<svg width="100" height="100" viewBox="0 0 100 100" fill="none" xmlns="http://www.w3.org/2000/svg">
<path d="M59.1867 12.0275C58.1365 11.7746 57.083 12.4201 56.8303 13.4685C56.5775 14.5172 57.2226 15.5722 58.2713 15.825C74.1009 19.6416 85.1563 33.695 85.1563 50.0004C85.1563 69.3855 69.3853 85.1563 50.0002 85.1563C30.6151 85.1563 14.8441 69.3855 14.8441 50.0004C14.8441 33.6946 25.9001 19.6412 41.7305 15.825C42.7791 15.5722 43.4243 14.5172 43.1715 13.4685C42.9188 12.4201 41.8645 11.7746 40.8151 12.0275C32.4397 14.0467 24.8519 18.8877 19.449 25.6591C13.8808 32.6374 10.9379 41.0548 10.9379 50.0006C10.9379 71.5396 28.4612 89.0628 50.0002 89.0628C71.5392 89.0628 89.0626 71.5396 89.0626 50.0006C89.0626 41.055 86.1198 32.6382 80.552 25.6597C75.1495 18.888 67.5617 14.0467 59.1867 12.0275Z" fill="#8DD6DD"/>
<path d="M98.8227 45.303L96.5379 41.0401L96.9192 35.7698C97.2852 32.3915 95.9377 29.095 93.31 26.9448L89.5171 23.839L88.0251 19.3445C87.1895 15.908 84.5794 13.1461 81.1933 12.1232L76.5114 10.7088L72.9259 6.56406C70.8042 4.06856 67.5929 2.77091 64.3357 3.09044L59.4762 3.57462L54.6996 1.17854C51.7559 -0.390599 48.2461 -0.391771 45.3016 1.17834L41.0389 3.4631L35.7688 3.08204C32.3907 2.71427 29.0939 4.06329 26.9437 6.69121L23.8378 10.4842L19.3433 11.9761C15.9068 12.8115 13.1449 15.4214 12.1219 18.8076L10.7078 23.4894L6.56269 27.0751C4.06759 29.197 2.76896 32.4075 3.08947 35.6653L3.57364 40.5247L1.17756 45.3016C-0.391771 48.2451 -0.393138 51.7549 1.17717 54.699L3.46193 58.9621L3.08087 64.2322C2.71447 67.6101 4.06192 70.9068 6.69004 73.0572L10.483 76.1628L11.975 80.6577C12.8105 84.0942 15.4205 86.8561 18.8068 87.8792L23.4886 89.2932L27.0741 93.4379C29.1956 95.9332 32.4056 97.2309 35.6645 96.9116L40.5237 96.4272L45.3 98.8233C46.7725 99.6086 48.3862 100.001 50.0002 100.001C51.6131 100.001 53.2264 99.6088 54.6981 98.8239L58.9611 96.5391L64.2308 96.9201C67.6089 97.2871 70.9062 95.9395 73.0562 93.3112L76.162 89.518L80.6567 88.026C84.0932 87.1909 86.855 84.5807 87.8782 81.1942L89.2923 76.5126L93.437 72.9271C95.9323 70.8054 97.2311 67.5949 96.9106 64.3367L96.4264 59.4775L98.8223 54.7012C100.392 51.7574 100.393 48.2477 98.8227 45.303ZM95.367 52.8787C95.3584 52.8945 95.35 52.9106 95.342 52.9268L92.6807 58.2322C92.5149 58.5627 92.4463 58.9336 92.4829 59.3015L93.0231 64.7214C93.218 66.7035 92.4268 68.6585 90.8938 69.9621L86.3083 73.929C86.0286 74.1708 85.8235 74.4872 85.7165 74.8413L84.1386 80.0647C83.5095 82.1477 81.8003 83.7489 79.678 84.2436C79.62 84.2571 79.5626 84.2733 79.5062 84.2921L74.3943 85.9889C74.0433 86.1055 73.7325 86.3192 73.4984 86.6051L70.0331 90.837C68.7173 92.4452 66.6961 93.2674 64.6271 93.0338C64.6013 93.0309 64.5754 93.0286 64.5498 93.0268L58.6781 92.6022C58.3078 92.5747 57.9406 92.654 57.6146 92.8288L52.8563 95.3791C51.0615 96.3358 48.918 96.3319 47.1225 95.3682C47.1067 95.3596 47.0907 95.3512 47.0746 95.3432L41.7692 92.6817C41.4965 92.545 41.1965 92.4743 40.8934 92.4743C40.829 92.4743 40.7643 92.4776 40.6997 92.4838L35.2798 93.0243C33.3003 93.218 31.3431 92.428 30.0394 90.895L26.0722 86.3094C25.8304 86.0298 25.514 85.8247 25.1599 85.7177L19.9363 84.1397C17.8535 83.5106 16.2523 81.8015 15.7574 79.6792C15.7439 79.6212 15.7277 79.5638 15.7089 79.5073L14.0121 74.3952C13.8955 74.0443 13.682 73.7337 13.3959 73.4993L9.16425 70.0345C7.55585 68.7183 6.73437 66.6972 6.96719 64.6283C6.97011 64.6025 6.97246 64.5765 6.97422 64.5509L7.39882 58.6793C7.42558 58.3103 7.34687 57.9416 7.17226 57.6158L4.62188 52.8574C3.66485 51.0629 3.66896 48.9196 4.63301 47.1239C4.64141 47.108 4.64981 47.092 4.65782 47.0758L7.31914 41.7702C7.48496 41.4397 7.55351 41.0688 7.51699 40.7008L6.97695 35.2807C6.78203 33.2989 7.57324 31.3438 9.10585 30.0401L13.6914 26.0732C13.9713 25.8314 14.1763 25.515 14.2834 25.1609L15.8613 19.9373C16.4904 17.8544 18.1996 16.2533 20.3218 15.7584C20.3798 15.7449 20.4373 15.7287 20.4937 15.7099L25.6056 14.0131C25.9566 13.8965 26.2673 13.6828 26.5015 13.3968L29.9665 9.16522C31.2825 7.55683 33.3036 6.73476 35.3727 6.96816C35.3985 6.97109 35.4245 6.97343 35.4501 6.97519L41.3217 7.3998C41.6913 7.42597 42.0594 7.34804 42.3854 7.17324L47.1434 4.62286C48.9377 3.66583 51.0813 3.66974 52.8774 4.63379C52.8932 4.64219 52.909 4.65059 52.925 4.6586L58.2305 7.32011C58.5611 7.48613 58.9324 7.55371 59.3 7.51796L64.7203 6.97773C66.7009 6.78379 68.6572 7.57402 69.9607 9.10702L73.9279 13.6925C74.1697 13.9722 74.4861 14.1773 74.84 14.2841L80.0636 15.8625C82.1466 16.4916 83.7477 18.2007 84.2425 20.323C84.2559 20.381 84.2722 20.4384 84.2909 20.4949L85.9878 25.6068C86.1044 25.9577 86.318 26.2685 86.604 26.5027L90.8356 29.9675C92.444 31.2835 93.2653 33.3048 93.0327 35.3741C93.0297 35.3999 93.0274 35.4257 93.0256 35.4514L92.6008 41.3229C92.5741 41.6918 92.6528 42.0606 92.8274 42.3864L95.378 47.145C96.3352 48.9393 96.3311 51.0826 95.367 52.8787Z" fill="#8DD6DD"/>
<path d="M33.3545 31.483L25.279 43.6947C24.2673 45.2224 24.4036 47.2425 25.6063 48.6034L47.1254 73.0815C47.8574 73.9113 48.9027 74.3877 49.9933 74.3887H49.9965C51.0834 74.3887 52.1263 73.9166 52.8599 73.093C57.7117 67.7426 62.5675 62.1618 67.264 56.7643C69.5991 54.0806 72.0138 51.3054 74.3872 48.606C75.6376 47.1884 75.7311 45.073 74.6198 43.5482L66.498 31.2662C65.7743 30.1727 64.5782 29.5191 63.296 29.5176H36.6996C35.3229 29.5178 34.0504 30.2682 33.3545 31.483ZM39.5037 47.8855L45.6049 65.4354L30.1764 47.8855H39.5037ZM53.5566 33.424L56.5251 43.9792H43.4707L46.4391 33.424H53.5566ZM56.3564 47.8855L49.9978 66.1756L43.6393 47.8855H56.3564ZM64.3171 54.2003C61.0476 57.9577 57.7003 61.8032 54.3359 65.5934L60.4919 47.8855H69.8231C67.9757 49.9958 66.1228 52.1251 64.3171 54.2003ZM70.2216 43.9792H60.5827L57.6144 33.424H63.2415L70.2216 43.9792ZM36.7446 33.424H42.3813L39.4129 43.9792H29.7741L36.6532 33.5765C36.6854 33.5281 36.7151 33.4781 36.7428 33.4269C36.7434 33.426 36.744 33.425 36.7446 33.424Z" fill="#8DD6DD"/>
<path d="M50.0018 14.844C51.0803 14.844 51.9549 13.9694 51.9549 12.8909C51.9549 11.8124 51.0803 10.9377 50.0018 10.9377H50.0004C48.9219 10.9377 48.0481 11.8124 48.0481 12.8909C48.0481 13.9694 48.9231 14.844 50.0018 14.844Z" fill="#8DD6DD"/>
</svg>
