<svg width="100" height="100" viewBox="0 0 100 100" fill="none" xmlns="http://www.w3.org/2000/svg">
<path d="M59.1867 12.0275C58.1365 11.7746 57.083 12.4201 56.8302 13.4685C56.5775 14.5172 57.2226 15.5722 58.2712 15.825C74.1009 19.6416 85.1563 33.695 85.1563 50.0004C85.1563 69.3855 69.3853 85.1563 50.0002 85.1563C30.6151 85.1563 14.8441 69.3855 14.8441 50.0004C14.8441 33.6946 25.9001 19.6412 41.7305 15.825C42.7791 15.5722 43.4242 14.5172 43.1715 13.4685C42.9188 12.4201 41.8645 11.7746 40.8151 12.0275C32.4397 14.0467 24.8518 18.8877 19.4489 25.6591C13.8808 32.6374 10.9378 41.0548 10.9378 50.0006C10.9378 71.5396 28.4612 89.0628 50.0002 89.0628C71.5392 89.0628 89.0625 71.5396 89.0625 50.0006C89.0625 41.055 86.1198 32.6382 80.552 25.6597C75.1495 18.888 67.5616 14.0467 59.1867 12.0275Z" fill="#8DD6DD"/>
<path d="M98.8227 45.303L96.5379 41.0401L96.9192 35.7698C97.2852 32.3915 95.9377 29.095 93.31 26.9448L89.5171 23.839L88.0251 19.3445C87.1895 15.908 84.5794 13.1461 81.1933 12.1232L76.5114 10.7088L72.9259 6.56406C70.8042 4.06856 67.5929 2.77091 64.3357 3.09044L59.4762 3.57462L54.6996 1.17854C51.7559 -0.390599 48.2461 -0.391771 45.3016 1.17834L41.0389 3.4631L35.7688 3.08204C32.3907 2.71427 29.0939 4.06329 26.9437 6.69121L23.8378 10.4842L19.3433 11.9761C15.9068 12.8115 13.1449 15.4214 12.1219 18.8076L10.7078 23.4894L6.56269 27.0751C4.06759 29.197 2.76896 32.4075 3.08947 35.6653L3.57364 40.5247L1.17756 45.3016C-0.391771 48.2451 -0.393138 51.7549 1.17717 54.699L3.46193 58.9621L3.08087 64.2322C2.71447 67.6101 4.06192 70.9068 6.69004 73.0572L10.483 76.1628L11.975 80.6577C12.8105 84.0942 15.4205 86.8561 18.8068 87.8792L23.4886 89.2932L27.0741 93.4379C29.1956 95.9332 32.4056 97.2309 35.6645 96.9116L40.5237 96.4272L45.3 98.8233C46.7725 99.6086 48.3862 100.001 50.0002 100.001C51.6131 100.001 53.2264 99.6088 54.6981 98.8239L58.9611 96.5391L64.2308 96.9201C67.6089 97.2871 70.9062 95.9395 73.0562 93.3112L76.162 89.518L80.6567 88.026C84.0932 87.1909 86.855 84.5807 87.8782 81.1942L89.2923 76.5126L93.437 72.9271C95.9323 70.8054 97.2311 67.5949 96.9106 64.3367L96.4264 59.4775L98.8223 54.7012C100.392 51.7574 100.393 48.2477 98.8227 45.303ZM95.367 52.8787C95.3584 52.8945 95.35 52.9106 95.342 52.9268L92.6807 58.2322C92.5149 58.5627 92.4463 58.9336 92.4829 59.3015L93.0231 64.7214C93.218 66.7035 92.4268 68.6585 90.8938 69.9621L86.3083 73.929C86.0286 74.1708 85.8235 74.4872 85.7165 74.8413L84.1386 80.0647C83.5095 82.1477 81.8003 83.7489 79.678 84.2436C79.62 84.2571 79.5626 84.2733 79.5062 84.2921L74.3943 85.9889C74.0433 86.1055 73.7325 86.3192 73.4984 86.6051L70.0331 90.837C68.7173 92.4452 66.6961 93.2674 64.6271 93.0338C64.6013 93.0309 64.5754 93.0286 64.5498 93.0268L58.6781 92.6022C58.3078 92.5747 57.9406 92.654 57.6146 92.8288L52.8563 95.3791C51.0615 96.3358 48.918 96.3319 47.1225 95.3682C47.1067 95.3596 47.0907 95.3512 47.0746 95.3432L41.7692 92.6817C41.4965 92.545 41.1965 92.4743 40.8934 92.4743C40.829 92.4743 40.7643 92.4776 40.6997 92.4838L35.2798 93.0243C33.3003 93.218 31.3431 92.428 30.0394 90.895L26.0722 86.3094C25.8304 86.0298 25.514 85.8247 25.1599 85.7177L19.9363 84.1397C17.8535 83.5106 16.2523 81.8015 15.7574 79.6792C15.7439 79.6212 15.7277 79.5638 15.7089 79.5073L14.0121 74.3952C13.8955 74.0443 13.682 73.7337 13.3959 73.4993L9.16425 70.0345C7.55585 68.7183 6.73437 66.6972 6.96719 64.6283C6.97011 64.6025 6.97246 64.5765 6.97422 64.5509L7.39882 58.6793C7.42558 58.3103 7.34687 57.9416 7.17226 57.6158L4.62188 52.8574C3.66485 51.0629 3.66896 48.9196 4.63301 47.1239C4.64141 47.108 4.64981 47.092 4.65782 47.0758L7.31914 41.7702C7.48496 41.4397 7.55351 41.0688 7.51699 40.7008L6.97695 35.2807C6.78203 33.2989 7.57324 31.3438 9.10585 30.0401L13.6914 26.0732C13.9713 25.8314 14.1763 25.515 14.2834 25.1609L15.8613 19.9373C16.4904 17.8544 18.1996 16.2533 20.3218 15.7584C20.3798 15.7449 20.4373 15.7287 20.4937 15.7099L25.6056 14.0131C25.9566 13.8965 26.2673 13.6828 26.5015 13.3968L29.9665 9.16522C31.2825 7.55683 33.3036 6.73476 35.3727 6.96816C35.3985 6.97109 35.4245 6.97343 35.4501 6.97519L41.3217 7.3998C41.6913 7.42597 42.0594 7.34804 42.3854 7.17324L47.1434 4.62286C48.9377 3.66583 51.0813 3.66974 52.8774 4.63379C52.8932 4.64219 52.909 4.65059 52.925 4.6586L58.2305 7.32011C58.5611 7.48613 58.9324 7.55371 59.3 7.51796L64.7203 6.97773C66.7009 6.78379 68.6572 7.57402 69.9607 9.10702L73.9279 13.6925C74.1697 13.9722 74.4861 14.1773 74.84 14.2841L80.0636 15.8625C82.1466 16.4916 83.7477 18.2007 84.2425 20.323C84.2559 20.381 84.2722 20.4384 84.2909 20.4949L85.9878 25.6068C86.1044 25.9577 86.318 26.2685 86.604 26.5027L90.8356 29.9675C92.444 31.2835 93.2653 33.3048 93.0327 35.3741C93.0297 35.3999 93.0274 35.4257 93.0256 35.4514L92.6008 41.3229C92.5741 41.6918 92.6528 42.0606 92.8274 42.3864L95.378 47.145C96.3352 48.9393 96.3311 51.0826 95.367 52.8787Z" fill="#8DD6DD"/>
<mask id="path-3-outside-1" maskUnits="userSpaceOnUse" x="25.78" y="25.7441" width="49" height="49" fill="black">
<rect fill="white" x="25.78" y="25.7441" width="49" height="49"/>
<path d="M72.5363 71.8529H64.9828V61.3248C65.128 61.3425 65.2741 61.3518 65.4203 61.3525C66.4334 61.3508 67.4044 60.9475 68.1207 60.2312C68.837 59.5148 69.2401 58.5437 69.2418 57.5307V57.4939C69.8817 57.4071 70.4892 57.1597 71.0076 56.7746C71.526 56.3895 71.9385 55.8794 72.2065 55.2919C72.4745 54.7044 72.5893 54.0585 72.5402 53.4146C72.4911 52.7707 72.2797 52.1497 71.9258 51.6096C72.3642 51.2232 72.7082 50.7414 72.9311 50.2013C73.1541 49.6611 73.2501 49.0769 73.2118 48.4938C73.1734 47.9107 73.0018 47.3441 72.71 46.8378C72.4182 46.3315 72.0142 45.8988 71.5289 45.5732C71.8369 44.7003 71.8173 43.7452 71.4736 42.8857C71.1299 42.0262 70.4855 41.3208 69.6605 40.901C69.6984 40.6865 69.7175 40.4692 69.7176 40.2514C69.7161 39.3595 69.4029 38.4961 68.8323 37.8107C68.2617 37.1252 67.4694 36.6607 66.5926 36.4975C66.5586 35.5077 66.1416 34.5698 65.4296 33.8814C64.7177 33.193 63.7662 32.8079 62.7759 32.8072C61.7855 32.8066 60.8336 33.1904 60.1207 33.8779C59.4078 34.5653 58.9896 35.5027 58.9543 36.4924C58.7343 36.5355 58.5186 36.5981 58.3098 36.6795C58.3691 36.3866 58.3991 36.0885 58.3992 35.7896C58.3975 34.7054 58.0091 33.6573 57.3037 32.8338C56.5983 32.0104 55.6223 31.4656 54.5512 31.2975C54.5518 30.0905 54.073 28.9327 53.2201 28.0788C52.3671 27.2249 51.2099 26.7448 50.0029 26.7441C48.796 26.7435 47.6382 27.2223 46.7843 28.0752C45.9304 28.9282 45.4503 30.0854 45.4496 31.2924C44.378 31.4612 43.4018 32.0068 42.6964 32.831C41.9911 33.6552 41.6028 34.704 41.6016 35.7889C41.6018 36.0881 41.6319 36.3866 41.6914 36.6799C41.4826 36.5987 41.2669 36.5366 41.0469 36.4943C41.0108 35.5056 40.5927 34.5694 39.8804 33.8826C39.1682 33.1959 38.2173 32.8121 37.2279 32.8121C36.2385 32.8121 35.2877 33.1959 34.5754 33.8826C33.8632 34.5694 33.445 35.5056 33.409 36.4943C32.5317 36.6583 31.7392 37.1236 31.1686 37.8098C30.598 38.496 30.2851 39.3601 30.284 40.2525C30.284 40.4703 30.3031 40.6877 30.341 40.9021C29.516 41.3217 28.8715 42.0267 28.5275 42.886C28.1836 43.7453 28.1635 44.7003 28.4711 45.5732C27.9858 45.8988 27.5818 46.3315 27.29 46.8378C26.9982 47.3441 26.8266 47.9107 26.7882 48.4938C26.7499 49.0769 26.8459 49.6611 27.0689 50.2013C27.2918 50.7414 27.6358 51.2232 28.0742 51.6096C27.7203 52.1497 27.5089 52.7707 27.4598 53.4146C27.4107 54.0585 27.5255 54.7044 27.7935 55.2919C28.0615 55.8794 28.474 56.3895 28.9924 56.7746C29.5108 57.1597 30.1183 57.4071 30.7582 57.4939V57.5307C30.7599 58.5437 31.163 59.5148 31.8793 60.2312C32.5956 60.9475 33.5666 61.3508 34.5797 61.3525C34.7259 61.3518 34.872 61.3425 35.0172 61.3248V71.8529H27.4637C27.2824 71.8529 27.1085 71.925 26.9803 72.0532C26.8521 72.1814 26.7801 72.3552 26.7801 72.5365C26.7801 72.7178 26.8521 72.8917 26.9803 73.0199C27.1085 73.1481 27.2824 73.2201 27.4637 73.2201H72.5363C72.7176 73.2201 72.8915 73.1481 73.0197 73.0199C73.1479 72.8917 73.2199 72.7178 73.2199 72.5365C73.2199 72.3552 73.1479 72.1814 73.0197 72.0532C72.8915 71.925 72.7176 71.8529 72.5363 71.8529ZM60.1953 37.5592C60.2594 37.4843 60.3065 37.3965 60.3335 37.3017C60.3605 37.2069 60.3666 37.1074 60.3516 37.01C60.3307 36.8852 60.3197 36.7591 60.3187 36.6326C60.3187 35.9817 60.5773 35.3574 61.0376 34.8972C61.4979 34.4369 62.1221 34.1783 62.773 34.1783C63.424 34.1783 64.0482 34.4369 64.5085 34.8972C64.9688 35.3574 65.2273 35.9817 65.2273 36.6326C65.2264 36.7591 65.2154 36.8852 65.1945 37.01C65.182 37.1079 65.1907 37.2075 65.2199 37.3018C65.2492 37.3962 65.2983 37.4831 65.3641 37.5568C65.4308 37.6319 65.5127 37.692 65.6043 37.733C65.696 37.7741 65.7953 37.7953 65.8957 37.7951C66.2895 37.7938 66.6779 37.8875 67.0278 38.0684C67.3776 38.2492 67.6786 38.5119 67.9053 38.834C68.1319 39.1561 68.2774 39.5282 68.3295 39.9186C68.3815 40.3089 68.3386 40.7061 68.2043 41.0764C68.1731 41.1634 68.1599 41.2558 68.1654 41.348C68.1709 41.4402 68.1951 41.5304 68.2364 41.6131C68.2777 41.6957 68.3354 41.7691 68.4058 41.8289C68.4763 41.8886 68.5582 41.9335 68.6465 41.9607C68.9986 42.0685 69.3219 42.2543 69.5923 42.5042C69.8627 42.7542 70.0733 43.0618 70.2084 43.4044C70.3435 43.7469 70.3997 44.1155 70.3728 44.4828C70.3458 44.85 70.2364 45.2064 70.0527 45.5256C70.0047 45.609 69.9749 45.7016 69.9652 45.7974C69.9555 45.8931 69.9662 45.9898 69.9964 46.0812C70.0267 46.1725 70.076 46.2565 70.1409 46.3274C70.2059 46.3984 70.2851 46.4549 70.3734 46.4932C70.7929 46.6745 71.1534 46.9694 71.4142 47.3447C71.675 47.72 71.8258 48.1606 71.8495 48.617C71.8733 49.0734 71.7691 49.5273 71.5486 49.9276C71.3282 50.3279 71.0003 50.6587 70.602 50.8826C70.5099 50.9346 70.4312 51.0072 70.372 51.0947C70.3128 51.1822 70.2746 51.2823 70.2606 51.387C70.2466 51.4917 70.257 51.5983 70.2911 51.6983C70.3251 51.7983 70.382 51.8891 70.457 51.9635C70.8026 52.3057 71.0387 52.743 71.1353 53.2197C71.2319 53.6964 71.1846 54.1911 70.9994 54.6408C70.8143 55.0906 70.4996 55.4752 70.0954 55.7458C69.6912 56.0163 69.2157 56.1606 68.7293 56.1604C68.6625 56.1604 68.5969 56.1553 68.5316 56.1498C68.4248 56.1412 68.3173 56.158 68.2181 56.1986C68.1189 56.2392 68.0306 56.3027 67.9604 56.3838C67.8903 56.4648 67.8402 56.5613 67.8142 56.6653C67.7882 56.7694 67.7871 56.8781 67.8109 56.9826C67.8523 57.162 67.8736 57.3454 67.8746 57.5295C67.8752 58.061 67.703 58.5784 67.3841 59.0036C67.0652 59.4289 66.6167 59.739 66.1062 59.8872C65.5958 60.0355 65.051 60.0138 64.5538 59.8256C64.0567 59.6374 63.6342 59.2927 63.35 58.8436C63.2882 58.7466 63.2029 58.6668 63.1021 58.6115C63.0013 58.5562 62.8882 58.5272 62.7732 58.5272C62.6583 58.5272 62.5451 58.5562 62.4443 58.6115C62.3435 58.6668 62.2583 58.7466 62.1965 58.8436C61.9338 59.2596 61.5518 59.5868 61.1003 59.7825C60.6488 59.9781 60.1489 60.0332 59.6657 59.9404C59.1824 59.8476 58.7384 59.6113 58.3915 59.2623C58.0446 58.9134 57.811 58.4679 57.7211 57.9842C57.7816 57.6868 57.8122 57.3841 57.8125 57.0807C57.8125 57.0189 57.8125 56.9572 57.8082 56.8947C58.5968 56.813 59.3503 56.5267 59.9942 56.0642C60.6381 55.6017 61.15 54.979 61.4792 54.2579C61.8084 53.5367 61.9436 52.742 61.8712 51.9525C61.7989 51.1631 61.5216 50.4062 61.0668 49.7568C61.6201 49.2991 62.0572 48.7167 62.3421 48.0575C62.627 47.3983 62.7517 46.6809 62.706 45.9642C62.6602 45.2475 62.4454 44.5519 62.079 43.9342C61.7126 43.3166 61.2051 42.7945 60.598 42.4107C60.8943 41.6383 60.9745 40.7997 60.8299 39.9851C60.6854 39.1705 60.3216 38.4107 59.7777 37.7873C59.939 37.7615 60.0865 37.681 60.1953 37.5592ZM53.2613 61.6307C53.9913 61.6302 54.7105 61.4538 55.3579 61.1166C56.0054 60.7793 56.5621 60.2911 56.9809 59.6932C57.3325 60.203 57.8022 60.6201 58.35 60.9091C58.8977 61.198 59.5073 61.3502 60.1266 61.3525C60.2727 61.3518 60.4186 61.3425 60.5637 61.3248V71.8529H52.5637V61.5717C52.7944 61.6093 53.0276 61.629 53.2613 61.6307ZM43.125 37.3967C43.1664 37.3141 43.1906 37.224 43.1961 37.1318C43.2017 37.0397 43.1885 36.9473 43.1574 36.8604C42.9849 36.3829 42.9293 35.871 42.9954 35.3676C43.0615 34.8642 43.2472 34.384 43.5372 33.9672C43.8271 33.5504 44.2127 33.2092 44.6617 32.9722C45.1106 32.7351 45.6099 32.6092 46.1176 32.6049C46.2268 32.6126 46.3363 32.5954 46.4379 32.5544C46.5394 32.5135 46.6302 32.4499 46.7035 32.3686C46.7676 32.2936 46.8147 32.2057 46.8417 32.1108C46.8687 32.016 46.8748 31.9164 46.8598 31.8189C46.833 31.6574 46.8188 31.494 46.8176 31.3303C46.8176 30.4859 47.153 29.6762 47.75 29.0791C48.3471 28.4821 49.1568 28.1467 50.0012 28.1467C50.8455 28.1467 51.6553 28.4821 52.2523 29.0791C52.8494 29.6762 53.1848 30.4859 53.1848 31.3303C53.1835 31.494 53.1694 31.6574 53.1426 31.8189C53.1303 31.9174 53.1393 32.0174 53.169 32.1121C53.1987 32.2068 53.2485 32.294 53.3148 32.3678C53.3822 32.4429 53.4647 32.503 53.557 32.5441C53.6492 32.5851 53.7491 32.6063 53.85 32.6061C54.3605 32.6048 54.8637 32.7266 55.3171 32.9613C55.7705 33.1959 56.1606 33.5364 56.4544 33.9539C56.7481 34.3713 56.9369 34.8535 57.0047 35.3595C57.0725 35.8654 57.0173 36.3803 56.8437 36.8604C56.8127 36.9473 56.7995 37.0397 56.8051 37.1319C56.8107 37.224 56.8349 37.3141 56.8762 37.3967C56.9175 37.4793 56.9751 37.5527 57.0455 37.6124C57.1159 37.6722 57.1977 37.717 57.2859 37.7443C57.7423 37.8844 58.1613 38.1256 58.5116 38.4498C58.862 38.7741 59.1349 39.1731 59.3099 39.6173C59.4849 40.0614 59.5575 40.5393 59.5225 41.0154C59.4874 41.4915 59.3456 41.9536 59.1074 42.3674C59.0595 42.4509 59.0298 42.5435 59.0201 42.6393C59.0105 42.7351 59.0211 42.8318 59.0515 42.9232C59.0818 43.0146 59.131 43.0985 59.196 43.1695C59.261 43.2405 59.3402 43.2971 59.4285 43.3354C59.9725 43.5704 60.44 43.9527 60.7784 44.4393C61.1167 44.9258 61.3124 45.4972 61.3434 46.089C61.3744 46.6808 61.2394 47.2695 60.9538 47.7887C60.6681 48.3079 60.243 48.737 59.7266 49.0275C59.6346 49.0795 59.5559 49.1521 59.4967 49.2396C59.4375 49.3271 59.3993 49.4271 59.3852 49.5319C59.3712 49.6366 59.3815 49.7431 59.4155 49.8431C59.4496 49.9432 59.5063 50.034 59.5812 50.1084C60.0294 50.5522 60.3355 51.1192 60.4608 51.7374C60.5861 52.3555 60.5248 52.997 60.2848 53.5803C60.0448 54.1635 59.6368 54.6623 59.1127 55.0133C58.5887 55.3642 57.9721 55.5515 57.3414 55.5514C57.2543 55.5514 57.1695 55.5447 57.0844 55.5381C56.9774 55.5296 56.87 55.5463 56.7707 55.5871C56.6714 55.6278 56.5832 55.6913 56.513 55.7724C56.4428 55.8536 56.3927 55.9501 56.3668 56.0542C56.3409 56.1583 56.3398 56.2671 56.3637 56.3717C56.532 57.103 56.4361 57.8703 56.0931 58.5378C55.7501 59.2053 55.1821 59.73 54.4894 60.0189C53.7968 60.3078 53.0243 60.3425 52.3087 60.1166C51.593 59.8908 50.9802 59.4191 50.5789 58.785C50.5172 58.6878 50.432 58.6079 50.3311 58.5525C50.2302 58.4971 50.117 58.468 50.002 58.468C49.8869 58.468 49.7737 58.4971 49.6728 58.5525C49.572 58.6079 49.4867 58.6878 49.425 58.785C49.0249 59.4213 48.4121 59.8952 47.6956 60.1224C46.9791 60.3496 46.2052 60.3155 45.5115 60.0261C44.8177 59.7367 44.249 59.2107 43.9064 58.5417C43.5638 57.8726 43.4695 57.1037 43.6402 56.3717C43.6641 56.2671 43.663 56.1583 43.6371 56.0542C43.6112 55.9501 43.5611 55.8536 43.4909 55.7724C43.4207 55.6913 43.3325 55.6278 43.2332 55.5871C43.1339 55.5463 43.0265 55.5296 42.9195 55.5381C42.8344 55.5447 42.7496 55.5514 42.6625 55.5514C42.0317 55.5517 41.415 55.3645 40.8908 55.0136C40.3666 54.6627 39.9586 54.1639 39.7185 53.5805C39.4785 52.9972 39.4172 52.3556 39.5426 51.7374C39.668 51.1192 39.9743 50.5521 40.4227 50.1084C40.4975 50.0337 40.554 49.9427 40.5877 49.8425C40.6214 49.7422 40.6314 49.6356 40.6169 49.5308C40.6025 49.4261 40.5639 49.3262 40.5043 49.2388C40.4447 49.1515 40.3657 49.0792 40.2734 49.0275C39.7569 48.7371 39.3317 48.3082 39.0459 47.7891C38.7601 47.27 38.6249 46.6814 38.6557 46.0896C38.6865 45.4978 38.882 44.9264 39.2201 44.4397C39.5583 43.9531 40.0256 43.5706 40.5695 43.3354C40.6578 43.2971 40.7371 43.2405 40.8021 43.1695C40.867 43.0985 40.9163 43.0146 40.9466 42.9232C40.9769 42.8318 40.9876 42.7351 40.9779 42.6393C40.9683 42.5435 40.9385 42.4509 40.8906 42.3674C40.6525 41.9535 40.5107 41.4913 40.4758 41.0151C40.4409 40.5388 40.5137 40.0609 40.6889 39.6167C40.8641 39.1725 41.1372 38.7735 41.4878 38.4493C41.8384 38.1252 42.2575 37.8842 42.7141 37.7443C42.8025 37.7172 42.8845 37.6724 42.9552 37.6126C43.0258 37.5529 43.0836 37.4794 43.125 37.3967ZM39.8734 61.3525C40.4927 61.3502 41.1023 61.198 41.65 60.9091C42.1978 60.6201 42.6675 60.203 43.0191 59.6932C43.5019 60.3925 44.1733 60.9404 44.9553 61.273C45.7373 61.6056 46.5977 61.7091 47.4363 61.5717V71.8529H39.4363V61.3248C39.5814 61.3425 39.7273 61.3518 39.8734 61.3525ZM32.1254 57.5307C32.1264 57.3466 32.1477 57.1632 32.1891 56.9838C32.2129 56.8792 32.2118 56.7705 32.1858 56.6665C32.1598 56.5625 32.1097 56.466 32.0396 56.3849C31.9694 56.3038 31.8811 56.2404 31.7819 56.1998C31.6827 56.1591 31.5752 56.1424 31.4684 56.151C31.4031 56.1564 31.3375 56.1615 31.2707 56.1615C30.7841 56.1619 30.3085 56.0177 29.9041 55.7471C29.4997 55.4765 29.1849 55.0918 28.9997 54.6419C28.8145 54.1919 28.7673 53.6971 28.864 53.2202C28.9608 52.7434 29.1971 52.3061 29.543 51.9639C29.618 51.8895 29.6749 51.7987 29.7089 51.6987C29.743 51.5987 29.7534 51.4921 29.7394 51.3874C29.7254 51.2826 29.6872 51.1826 29.628 51.0951C29.5688 51.0076 29.4901 50.935 29.398 50.883C28.9997 50.6591 28.6718 50.3283 28.4514 49.928C28.2309 49.5277 28.1267 49.0738 28.1505 48.6174C28.1742 48.161 28.325 47.7204 28.5858 47.3451C28.8466 46.9698 29.2071 46.6749 29.6266 46.4936C29.7149 46.4553 29.7941 46.3988 29.8591 46.3278C29.924 46.2568 29.9733 46.1729 30.0036 46.0816C30.0338 45.9902 30.0445 45.8935 30.0348 45.7978C30.0251 45.702 29.9953 45.6094 29.9473 45.526C29.7636 45.2068 29.6542 44.8504 29.6272 44.4832C29.6003 44.1159 29.6565 43.7473 29.7916 43.4048C29.9267 43.0622 30.1373 42.7546 30.4077 42.5046C30.6781 42.2547 31.0014 42.0689 31.3535 41.9611C31.4419 41.934 31.5239 41.8892 31.5945 41.8295C31.6651 41.7698 31.7229 41.6964 31.7643 41.6138C31.8058 41.5311 31.83 41.4409 31.8356 41.3486C31.8412 41.2563 31.828 41.1638 31.7969 41.0768C31.6638 40.7092 31.6207 40.3151 31.6711 39.9274C31.7216 39.5398 31.8642 39.1698 32.0869 38.8486C32.3097 38.5273 32.6061 38.264 32.9514 38.0808C33.2968 37.8976 33.681 37.7998 34.0719 37.7955C34.1799 37.8023 34.288 37.7845 34.3881 37.7435C34.4882 37.7025 34.5778 37.6393 34.65 37.5588C34.7141 37.4839 34.7612 37.3961 34.7882 37.3013C34.8151 37.2065 34.8213 37.107 34.8063 37.0096C34.7854 36.8849 34.7744 36.7587 34.7734 36.6322C34.7734 35.9813 35.032 35.357 35.4923 34.8968C35.9526 34.4365 36.5768 34.1779 37.2277 34.1779C37.8787 34.1779 38.5029 34.4365 38.9632 34.8968C39.4235 35.357 39.682 35.9813 39.682 36.6322C39.6811 36.7587 39.6701 36.8849 39.6492 37.0096C39.6367 37.1075 39.6454 37.2071 39.6746 37.3014C39.7039 37.3958 39.753 37.4827 39.8188 37.5564C39.9255 37.6765 40.0703 37.7561 40.2289 37.7818C39.6836 38.4051 39.3187 39.1652 39.1734 39.9805C39.0281 40.7957 39.1079 41.6352 39.4043 42.4084C38.7973 42.7921 38.2898 43.3142 37.9234 43.9319C37.557 44.5495 37.3421 45.2452 37.2964 45.9619C37.2507 46.6786 37.3754 47.3959 37.6603 48.0551C37.9452 48.7144 38.3822 49.2967 38.9355 49.7545C38.4801 50.4037 38.2022 51.1607 38.1294 51.9504C38.0566 52.7402 38.1914 53.5352 38.5206 54.2567C38.8497 54.9783 39.3617 55.6013 40.0058 56.064C40.6499 56.5267 41.4037 56.8131 42.1926 56.8947C42.1898 56.9572 42.1883 57.0189 42.1883 57.0807C42.1884 57.3838 42.2187 57.6863 42.2789 57.9834C42.189 58.4672 41.9554 58.9126 41.6085 59.2616C41.2616 59.6105 40.8176 59.8468 40.3343 59.9396C39.8511 60.0324 39.3512 59.9774 38.8997 59.7817C38.4482 59.586 38.0662 59.2588 37.8035 58.8428C37.7417 58.7458 37.6565 58.666 37.5557 58.6107C37.4549 58.5554 37.3417 58.5265 37.2268 58.5265C37.1118 58.5265 36.9987 58.5554 36.8979 58.6107C36.7971 58.666 36.7118 58.7458 36.65 58.8428C36.3658 59.2919 35.9433 59.6366 35.4462 59.8248C34.949 60.0131 34.4042 60.0347 33.8938 59.8864C33.3833 59.7382 32.9348 59.4281 32.6159 59.0029C32.297 58.5776 32.1248 58.0603 32.1254 57.5287V57.5307ZM36.3832 71.8529V60.8986C36.6911 60.734 36.9749 60.5278 37.2266 60.2857C37.4778 60.5279 37.7614 60.7341 38.0691 60.8986V71.8533L36.3832 71.8529ZM48.8023 71.8529V61.133C49.2474 60.9068 49.6521 60.6086 50 60.2506C50.3476 60.6085 50.7518 60.9067 51.1965 61.133V71.8545L48.8023 71.8529ZM61.9297 71.8529V60.8986C62.2379 60.7342 62.5218 60.528 62.7734 60.2857C63.0248 60.5277 63.3081 60.7339 63.6156 60.8986V71.8533L61.9297 71.8529Z"/>
</mask>
<path d="M72.5363 71.8529H64.9828V61.3248C65.128 61.3425 65.2741 61.3518 65.4203 61.3525C66.4334 61.3508 67.4044 60.9475 68.1207 60.2312C68.837 59.5148 69.2401 58.5437 69.2418 57.5307V57.4939C69.8817 57.4071 70.4892 57.1597 71.0076 56.7746C71.526 56.3895 71.9385 55.8794 72.2065 55.2919C72.4745 54.7044 72.5893 54.0585 72.5402 53.4146C72.4911 52.7707 72.2797 52.1497 71.9258 51.6096C72.3642 51.2232 72.7082 50.7414 72.9311 50.2013C73.1541 49.6611 73.2501 49.0769 73.2118 48.4938C73.1734 47.9107 73.0018 47.3441 72.71 46.8378C72.4182 46.3315 72.0142 45.8988 71.5289 45.5732C71.8369 44.7003 71.8173 43.7452 71.4736 42.8857C71.1299 42.0262 70.4855 41.3208 69.6605 40.901C69.6984 40.6865 69.7175 40.4692 69.7176 40.2514C69.7161 39.3595 69.4029 38.4961 68.8323 37.8107C68.2617 37.1252 67.4694 36.6607 66.5926 36.4975C66.5586 35.5077 66.1416 34.5698 65.4296 33.8814C64.7177 33.193 63.7662 32.8079 62.7759 32.8072C61.7855 32.8066 60.8336 33.1904 60.1207 33.8779C59.4078 34.5653 58.9896 35.5027 58.9543 36.4924C58.7343 36.5355 58.5186 36.5981 58.3098 36.6795C58.3691 36.3866 58.3991 36.0885 58.3992 35.7896C58.3975 34.7054 58.0091 33.6573 57.3037 32.8338C56.5983 32.0104 55.6223 31.4656 54.5512 31.2975C54.5518 30.0905 54.073 28.9327 53.2201 28.0788C52.3671 27.2249 51.2099 26.7448 50.0029 26.7441C48.796 26.7435 47.6382 27.2223 46.7843 28.0752C45.9304 28.9282 45.4503 30.0854 45.4496 31.2924C44.378 31.4612 43.4018 32.0068 42.6964 32.831C41.9911 33.6552 41.6028 34.704 41.6016 35.7889C41.6018 36.0881 41.6319 36.3866 41.6914 36.6799C41.4826 36.5987 41.2669 36.5366 41.0469 36.4943C41.0108 35.5056 40.5927 34.5694 39.8804 33.8826C39.1682 33.1959 38.2173 32.8121 37.2279 32.8121C36.2385 32.8121 35.2877 33.1959 34.5754 33.8826C33.8632 34.5694 33.445 35.5056 33.409 36.4943C32.5317 36.6583 31.7392 37.1236 31.1686 37.8098C30.598 38.496 30.2851 39.3601 30.284 40.2525C30.284 40.4703 30.3031 40.6877 30.341 40.9021C29.516 41.3217 28.8715 42.0267 28.5275 42.886C28.1836 43.7453 28.1635 44.7003 28.4711 45.5732C27.9858 45.8988 27.5818 46.3315 27.29 46.8378C26.9982 47.3441 26.8266 47.9107 26.7882 48.4938C26.7499 49.0769 26.8459 49.6611 27.0689 50.2013C27.2918 50.7414 27.6358 51.2232 28.0742 51.6096C27.7203 52.1497 27.5089 52.7707 27.4598 53.4146C27.4107 54.0585 27.5255 54.7044 27.7935 55.2919C28.0615 55.8794 28.474 56.3895 28.9924 56.7746C29.5108 57.1597 30.1183 57.4071 30.7582 57.4939V57.5307C30.7599 58.5437 31.163 59.5148 31.8793 60.2312C32.5956 60.9475 33.5666 61.3508 34.5797 61.3525C34.7259 61.3518 34.872 61.3425 35.0172 61.3248V71.8529H27.4637C27.2824 71.8529 27.1085 71.925 26.9803 72.0532C26.8521 72.1814 26.7801 72.3552 26.7801 72.5365C26.7801 72.7178 26.8521 72.8917 26.9803 73.0199C27.1085 73.1481 27.2824 73.2201 27.4637 73.2201H72.5363C72.7176 73.2201 72.8915 73.1481 73.0197 73.0199C73.1479 72.8917 73.2199 72.7178 73.2199 72.5365C73.2199 72.3552 73.1479 72.1814 73.0197 72.0532C72.8915 71.925 72.7176 71.8529 72.5363 71.8529ZM60.1953 37.5592C60.2594 37.4843 60.3065 37.3965 60.3335 37.3017C60.3605 37.2069 60.3666 37.1074 60.3516 37.01C60.3307 36.8852 60.3197 36.7591 60.3187 36.6326C60.3187 35.9817 60.5773 35.3574 61.0376 34.8972C61.4979 34.4369 62.1221 34.1783 62.773 34.1783C63.424 34.1783 64.0482 34.4369 64.5085 34.8972C64.9688 35.3574 65.2273 35.9817 65.2273 36.6326C65.2264 36.7591 65.2154 36.8852 65.1945 37.01C65.182 37.1079 65.1907 37.2075 65.2199 37.3018C65.2492 37.3962 65.2983 37.4831 65.3641 37.5568C65.4308 37.6319 65.5127 37.692 65.6043 37.733C65.696 37.7741 65.7953 37.7953 65.8957 37.7951C66.2895 37.7938 66.6779 37.8875 67.0278 38.0684C67.3776 38.2492 67.6786 38.5119 67.9053 38.834C68.1319 39.1561 68.2774 39.5282 68.3295 39.9186C68.3815 40.3089 68.3386 40.7061 68.2043 41.0764C68.1731 41.1634 68.1599 41.2558 68.1654 41.348C68.1709 41.4402 68.1951 41.5304 68.2364 41.6131C68.2777 41.6957 68.3354 41.7691 68.4058 41.8289C68.4763 41.8886 68.5582 41.9335 68.6465 41.9607C68.9986 42.0685 69.3219 42.2543 69.5923 42.5042C69.8627 42.7542 70.0733 43.0618 70.2084 43.4044C70.3435 43.7469 70.3997 44.1155 70.3728 44.4828C70.3458 44.85 70.2364 45.2064 70.0527 45.5256C70.0047 45.609 69.9749 45.7016 69.9652 45.7974C69.9555 45.8931 69.9662 45.9898 69.9964 46.0812C70.0267 46.1725 70.076 46.2565 70.1409 46.3274C70.2059 46.3984 70.2851 46.4549 70.3734 46.4932C70.7929 46.6745 71.1534 46.9694 71.4142 47.3447C71.675 47.72 71.8258 48.1606 71.8495 48.617C71.8733 49.0734 71.7691 49.5273 71.5486 49.9276C71.3282 50.3279 71.0003 50.6587 70.602 50.8826C70.5099 50.9346 70.4312 51.0072 70.372 51.0947C70.3128 51.1822 70.2746 51.2823 70.2606 51.387C70.2466 51.4917 70.257 51.5983 70.2911 51.6983C70.3251 51.7983 70.382 51.8891 70.457 51.9635C70.8026 52.3057 71.0387 52.743 71.1353 53.2197C71.2319 53.6964 71.1846 54.1911 70.9994 54.6408C70.8143 55.0906 70.4996 55.4752 70.0954 55.7458C69.6912 56.0163 69.2157 56.1606 68.7293 56.1604C68.6625 56.1604 68.5969 56.1553 68.5316 56.1498C68.4248 56.1412 68.3173 56.158 68.2181 56.1986C68.1189 56.2392 68.0306 56.3027 67.9604 56.3838C67.8903 56.4648 67.8402 56.5613 67.8142 56.6653C67.7882 56.7694 67.7871 56.8781 67.8109 56.9826C67.8523 57.162 67.8736 57.3454 67.8746 57.5295C67.8752 58.061 67.703 58.5784 67.3841 59.0036C67.0652 59.4289 66.6167 59.739 66.1062 59.8872C65.5958 60.0355 65.051 60.0138 64.5538 59.8256C64.0567 59.6374 63.6342 59.2927 63.35 58.8436C63.2882 58.7466 63.2029 58.6668 63.1021 58.6115C63.0013 58.5562 62.8882 58.5272 62.7732 58.5272C62.6583 58.5272 62.5451 58.5562 62.4443 58.6115C62.3435 58.6668 62.2583 58.7466 62.1965 58.8436C61.9338 59.2596 61.5518 59.5868 61.1003 59.7825C60.6488 59.9781 60.1489 60.0332 59.6657 59.9404C59.1824 59.8476 58.7384 59.6113 58.3915 59.2623C58.0446 58.9134 57.811 58.4679 57.7211 57.9842C57.7816 57.6868 57.8122 57.3841 57.8125 57.0807C57.8125 57.0189 57.8125 56.9572 57.8082 56.8947C58.5968 56.813 59.3503 56.5267 59.9942 56.0642C60.6381 55.6017 61.15 54.979 61.4792 54.2579C61.8084 53.5367 61.9436 52.742 61.8712 51.9525C61.7989 51.1631 61.5216 50.4062 61.0668 49.7568C61.6201 49.2991 62.0572 48.7167 62.3421 48.0575C62.627 47.3983 62.7517 46.6809 62.706 45.9642C62.6602 45.2475 62.4454 44.5519 62.079 43.9342C61.7126 43.3166 61.2051 42.7945 60.598 42.4107C60.8943 41.6383 60.9745 40.7997 60.8299 39.9851C60.6854 39.1705 60.3216 38.4107 59.7777 37.7873C59.939 37.7615 60.0865 37.681 60.1953 37.5592ZM53.2613 61.6307C53.9913 61.6302 54.7105 61.4538 55.3579 61.1166C56.0054 60.7793 56.5621 60.2911 56.9809 59.6932C57.3325 60.203 57.8022 60.6201 58.35 60.9091C58.8977 61.198 59.5073 61.3502 60.1266 61.3525C60.2727 61.3518 60.4186 61.3425 60.5637 61.3248V71.8529H52.5637V61.5717C52.7944 61.6093 53.0276 61.629 53.2613 61.6307ZM43.125 37.3967C43.1664 37.3141 43.1906 37.224 43.1961 37.1318C43.2017 37.0397 43.1885 36.9473 43.1574 36.8604C42.9849 36.3829 42.9293 35.871 42.9954 35.3676C43.0615 34.8642 43.2472 34.384 43.5372 33.9672C43.8271 33.5504 44.2127 33.2092 44.6617 32.9722C45.1106 32.7351 45.6099 32.6092 46.1176 32.6049C46.2268 32.6126 46.3363 32.5954 46.4379 32.5544C46.5394 32.5135 46.6302 32.4499 46.7035 32.3686C46.7676 32.2936 46.8147 32.2057 46.8417 32.1108C46.8687 32.016 46.8748 31.9164 46.8598 31.8189C46.833 31.6574 46.8188 31.494 46.8176 31.3303C46.8176 30.4859 47.153 29.6762 47.75 29.0791C48.3471 28.4821 49.1568 28.1467 50.0012 28.1467C50.8455 28.1467 51.6553 28.4821 52.2523 29.0791C52.8494 29.6762 53.1848 30.4859 53.1848 31.3303C53.1835 31.494 53.1694 31.6574 53.1426 31.8189C53.1303 31.9174 53.1393 32.0174 53.169 32.1121C53.1987 32.2068 53.2485 32.294 53.3148 32.3678C53.3822 32.4429 53.4647 32.503 53.557 32.5441C53.6492 32.5851 53.7491 32.6063 53.85 32.6061C54.3605 32.6048 54.8637 32.7266 55.3171 32.9613C55.7705 33.1959 56.1606 33.5364 56.4544 33.9539C56.7481 34.3713 56.9369 34.8535 57.0047 35.3595C57.0725 35.8654 57.0173 36.3803 56.8437 36.8604C56.8127 36.9473 56.7995 37.0397 56.8051 37.1319C56.8107 37.224 56.8349 37.3141 56.8762 37.3967C56.9175 37.4793 56.9751 37.5527 57.0455 37.6124C57.1159 37.6722 57.1977 37.717 57.2859 37.7443C57.7423 37.8844 58.1613 38.1256 58.5116 38.4498C58.862 38.7741 59.1349 39.1731 59.3099 39.6173C59.4849 40.0614 59.5575 40.5393 59.5225 41.0154C59.4874 41.4915 59.3456 41.9536 59.1074 42.3674C59.0595 42.4509 59.0298 42.5435 59.0201 42.6393C59.0105 42.7351 59.0211 42.8318 59.0515 42.9232C59.0818 43.0146 59.131 43.0985 59.196 43.1695C59.261 43.2405 59.3402 43.2971 59.4285 43.3354C59.9725 43.5704 60.44 43.9527 60.7784 44.4393C61.1167 44.9258 61.3124 45.4972 61.3434 46.089C61.3744 46.6808 61.2394 47.2695 60.9538 47.7887C60.6681 48.3079 60.243 48.737 59.7266 49.0275C59.6346 49.0795 59.5559 49.1521 59.4967 49.2396C59.4375 49.3271 59.3993 49.4271 59.3852 49.5319C59.3712 49.6366 59.3815 49.7431 59.4155 49.8431C59.4496 49.9432 59.5063 50.034 59.5812 50.1084C60.0294 50.5522 60.3355 51.1192 60.4608 51.7374C60.5861 52.3555 60.5248 52.997 60.2848 53.5803C60.0448 54.1635 59.6368 54.6623 59.1127 55.0133C58.5887 55.3642 57.9721 55.5515 57.3414 55.5514C57.2543 55.5514 57.1695 55.5447 57.0844 55.5381C56.9774 55.5296 56.87 55.5463 56.7707 55.5871C56.6714 55.6278 56.5832 55.6913 56.513 55.7724C56.4428 55.8536 56.3927 55.9501 56.3668 56.0542C56.3409 56.1583 56.3398 56.2671 56.3637 56.3717C56.532 57.103 56.4361 57.8703 56.0931 58.5378C55.7501 59.2053 55.1821 59.73 54.4894 60.0189C53.7968 60.3078 53.0243 60.3425 52.3087 60.1166C51.593 59.8908 50.9802 59.4191 50.5789 58.785C50.5172 58.6878 50.432 58.6079 50.3311 58.5525C50.2302 58.4971 50.117 58.468 50.002 58.468C49.8869 58.468 49.7737 58.4971 49.6728 58.5525C49.572 58.6079 49.4867 58.6878 49.425 58.785C49.0249 59.4213 48.4121 59.8952 47.6956 60.1224C46.9791 60.3496 46.2052 60.3155 45.5115 60.0261C44.8177 59.7367 44.249 59.2107 43.9064 58.5417C43.5638 57.8726 43.4695 57.1037 43.6402 56.3717C43.6641 56.2671 43.663 56.1583 43.6371 56.0542C43.6112 55.9501 43.5611 55.8536 43.4909 55.7724C43.4207 55.6913 43.3325 55.6278 43.2332 55.5871C43.1339 55.5463 43.0265 55.5296 42.9195 55.5381C42.8344 55.5447 42.7496 55.5514 42.6625 55.5514C42.0317 55.5517 41.415 55.3645 40.8908 55.0136C40.3666 54.6627 39.9586 54.1639 39.7185 53.5805C39.4785 52.9972 39.4172 52.3556 39.5426 51.7374C39.668 51.1192 39.9743 50.5521 40.4227 50.1084C40.4975 50.0337 40.554 49.9427 40.5877 49.8425C40.6214 49.7422 40.6314 49.6356 40.6169 49.5308C40.6025 49.4261 40.5639 49.3262 40.5043 49.2388C40.4447 49.1515 40.3657 49.0792 40.2734 49.0275C39.7569 48.7371 39.3317 48.3082 39.0459 47.7891C38.7601 47.27 38.6249 46.6814 38.6557 46.0896C38.6865 45.4978 38.882 44.9264 39.2201 44.4397C39.5583 43.9531 40.0256 43.5706 40.5695 43.3354C40.6578 43.2971 40.7371 43.2405 40.8021 43.1695C40.867 43.0985 40.9163 43.0146 40.9466 42.9232C40.9769 42.8318 40.9876 42.7351 40.9779 42.6393C40.9683 42.5435 40.9385 42.4509 40.8906 42.3674C40.6525 41.9535 40.5107 41.4913 40.4758 41.0151C40.4409 40.5388 40.5137 40.0609 40.6889 39.6167C40.8641 39.1725 41.1372 38.7735 41.4878 38.4493C41.8384 38.1252 42.2575 37.8842 42.7141 37.7443C42.8025 37.7172 42.8845 37.6724 42.9552 37.6126C43.0258 37.5529 43.0836 37.4794 43.125 37.3967ZM39.8734 61.3525C40.4927 61.3502 41.1023 61.198 41.65 60.9091C42.1978 60.6201 42.6675 60.203 43.0191 59.6932C43.5019 60.3925 44.1733 60.9404 44.9553 61.273C45.7373 61.6056 46.5977 61.7091 47.4363 61.5717V71.8529H39.4363V61.3248C39.5814 61.3425 39.7273 61.3518 39.8734 61.3525ZM32.1254 57.5307C32.1264 57.3466 32.1477 57.1632 32.1891 56.9838C32.2129 56.8792 32.2118 56.7705 32.1858 56.6665C32.1598 56.5625 32.1097 56.466 32.0396 56.3849C31.9694 56.3038 31.8811 56.2404 31.7819 56.1998C31.6827 56.1591 31.5752 56.1424 31.4684 56.151C31.4031 56.1564 31.3375 56.1615 31.2707 56.1615C30.7841 56.1619 30.3085 56.0177 29.9041 55.7471C29.4997 55.4765 29.1849 55.0918 28.9997 54.6419C28.8145 54.1919 28.7673 53.6971 28.864 53.2202C28.9608 52.7434 29.1971 52.3061 29.543 51.9639C29.618 51.8895 29.6749 51.7987 29.7089 51.6987C29.743 51.5987 29.7534 51.4921 29.7394 51.3874C29.7254 51.2826 29.6872 51.1826 29.628 51.0951C29.5688 51.0076 29.4901 50.935 29.398 50.883C28.9997 50.6591 28.6718 50.3283 28.4514 49.928C28.2309 49.5277 28.1267 49.0738 28.1505 48.6174C28.1742 48.161 28.325 47.7204 28.5858 47.3451C28.8466 46.9698 29.2071 46.6749 29.6266 46.4936C29.7149 46.4553 29.7941 46.3988 29.8591 46.3278C29.924 46.2568 29.9733 46.1729 30.0036 46.0816C30.0338 45.9902 30.0445 45.8935 30.0348 45.7978C30.0251 45.702 29.9953 45.6094 29.9473 45.526C29.7636 45.2068 29.6542 44.8504 29.6272 44.4832C29.6003 44.1159 29.6565 43.7473 29.7916 43.4048C29.9267 43.0622 30.1373 42.7546 30.4077 42.5046C30.6781 42.2547 31.0014 42.0689 31.3535 41.9611C31.4419 41.934 31.5239 41.8892 31.5945 41.8295C31.6651 41.7698 31.7229 41.6964 31.7643 41.6138C31.8058 41.5311 31.83 41.4409 31.8356 41.3486C31.8412 41.2563 31.828 41.1638 31.7969 41.0768C31.6638 40.7092 31.6207 40.3151 31.6711 39.9274C31.7216 39.5398 31.8642 39.1698 32.0869 38.8486C32.3097 38.5273 32.6061 38.264 32.9514 38.0808C33.2968 37.8976 33.681 37.7998 34.0719 37.7955C34.1799 37.8023 34.288 37.7845 34.3881 37.7435C34.4882 37.7025 34.5778 37.6393 34.65 37.5588C34.7141 37.4839 34.7612 37.3961 34.7882 37.3013C34.8151 37.2065 34.8213 37.107 34.8063 37.0096C34.7854 36.8849 34.7744 36.7587 34.7734 36.6322C34.7734 35.9813 35.032 35.357 35.4923 34.8968C35.9526 34.4365 36.5768 34.1779 37.2277 34.1779C37.8787 34.1779 38.5029 34.4365 38.9632 34.8968C39.4235 35.357 39.682 35.9813 39.682 36.6322C39.6811 36.7587 39.6701 36.8849 39.6492 37.0096C39.6367 37.1075 39.6454 37.2071 39.6746 37.3014C39.7039 37.3958 39.753 37.4827 39.8188 37.5564C39.9255 37.6765 40.0703 37.7561 40.2289 37.7818C39.6836 38.4051 39.3187 39.1652 39.1734 39.9805C39.0281 40.7957 39.1079 41.6352 39.4043 42.4084C38.7973 42.7921 38.2898 43.3142 37.9234 43.9319C37.557 44.5495 37.3421 45.2452 37.2964 45.9619C37.2507 46.6786 37.3754 47.3959 37.6603 48.0551C37.9452 48.7144 38.3822 49.2967 38.9355 49.7545C38.4801 50.4037 38.2022 51.1607 38.1294 51.9504C38.0566 52.7402 38.1914 53.5352 38.5206 54.2567C38.8497 54.9783 39.3617 55.6013 40.0058 56.064C40.6499 56.5267 41.4037 56.8131 42.1926 56.8947C42.1898 56.9572 42.1883 57.0189 42.1883 57.0807C42.1884 57.3838 42.2187 57.6863 42.2789 57.9834C42.189 58.4672 41.9554 58.9126 41.6085 59.2616C41.2616 59.6105 40.8176 59.8468 40.3343 59.9396C39.8511 60.0324 39.3512 59.9774 38.8997 59.7817C38.4482 59.586 38.0662 59.2588 37.8035 58.8428C37.7417 58.7458 37.6565 58.666 37.5557 58.6107C37.4549 58.5554 37.3417 58.5265 37.2268 58.5265C37.1118 58.5265 36.9987 58.5554 36.8979 58.6107C36.7971 58.666 36.7118 58.7458 36.65 58.8428C36.3658 59.2919 35.9433 59.6366 35.4462 59.8248C34.949 60.0131 34.4042 60.0347 33.8938 59.8864C33.3833 59.7382 32.9348 59.4281 32.6159 59.0029C32.297 58.5776 32.1248 58.0603 32.1254 57.5287V57.5307ZM36.3832 71.8529V60.8986C36.6911 60.734 36.9749 60.5278 37.2266 60.2857C37.4778 60.5279 37.7614 60.7341 38.0691 60.8986V71.8533L36.3832 71.8529ZM48.8023 71.8529V61.133C49.2474 60.9068 49.6521 60.6086 50 60.2506C50.3476 60.6085 50.7518 60.9067 51.1965 61.133V71.8545L48.8023 71.8529ZM61.9297 71.8529V60.8986C62.2379 60.7342 62.5218 60.528 62.7734 60.2857C63.0248 60.5277 63.3081 60.7339 63.6156 60.8986V71.8533L61.9297 71.8529Z" fill="#8DD6DD"/>
<path d="M72.5363 71.8529H64.9828V61.3248C65.128 61.3425 65.2741 61.3518 65.4203 61.3525C66.4334 61.3508 67.4044 60.9475 68.1207 60.2312C68.837 59.5148 69.2401 58.5437 69.2418 57.5307V57.4939C69.8817 57.4071 70.4892 57.1597 71.0076 56.7746C71.526 56.3895 71.9385 55.8794 72.2065 55.2919C72.4745 54.7044 72.5893 54.0585 72.5402 53.4146C72.4911 52.7707 72.2797 52.1497 71.9258 51.6096C72.3642 51.2232 72.7082 50.7414 72.9311 50.2013C73.1541 49.6611 73.2501 49.0769 73.2118 48.4938C73.1734 47.9107 73.0018 47.3441 72.71 46.8378C72.4182 46.3315 72.0142 45.8988 71.5289 45.5732C71.8369 44.7003 71.8173 43.7452 71.4736 42.8857C71.1299 42.0262 70.4855 41.3208 69.6605 40.901C69.6984 40.6865 69.7175 40.4692 69.7176 40.2514C69.7161 39.3595 69.4029 38.4961 68.8323 37.8107C68.2617 37.1252 67.4694 36.6607 66.5926 36.4975C66.5586 35.5077 66.1416 34.5698 65.4296 33.8814C64.7177 33.193 63.7662 32.8079 62.7759 32.8072C61.7855 32.8066 60.8336 33.1904 60.1207 33.8779C59.4078 34.5653 58.9896 35.5027 58.9543 36.4924C58.7343 36.5355 58.5186 36.5981 58.3098 36.6795C58.3691 36.3866 58.3991 36.0885 58.3992 35.7896C58.3975 34.7054 58.0091 33.6573 57.3037 32.8338C56.5983 32.0104 55.6223 31.4656 54.5512 31.2975C54.5518 30.0905 54.073 28.9327 53.2201 28.0788C52.3671 27.2249 51.2099 26.7448 50.0029 26.7441C48.796 26.7435 47.6382 27.2223 46.7843 28.0752C45.9304 28.9282 45.4503 30.0854 45.4496 31.2924C44.378 31.4612 43.4018 32.0068 42.6964 32.831C41.9911 33.6552 41.6028 34.704 41.6016 35.7889C41.6018 36.0881 41.6319 36.3866 41.6914 36.6799C41.4826 36.5987 41.2669 36.5366 41.0469 36.4943C41.0108 35.5056 40.5927 34.5694 39.8804 33.8826C39.1682 33.1959 38.2173 32.8121 37.2279 32.8121C36.2385 32.8121 35.2877 33.1959 34.5754 33.8826C33.8632 34.5694 33.445 35.5056 33.409 36.4943C32.5317 36.6583 31.7392 37.1236 31.1686 37.8098C30.598 38.496 30.2851 39.3601 30.284 40.2525C30.284 40.4703 30.3031 40.6877 30.341 40.9021C29.516 41.3217 28.8715 42.0267 28.5275 42.886C28.1836 43.7453 28.1635 44.7003 28.4711 45.5732C27.9858 45.8988 27.5818 46.3315 27.29 46.8378C26.9982 47.3441 26.8266 47.9107 26.7882 48.4938C26.7499 49.0769 26.8459 49.6611 27.0689 50.2013C27.2918 50.7414 27.6358 51.2232 28.0742 51.6096C27.7203 52.1497 27.5089 52.7707 27.4598 53.4146C27.4107 54.0585 27.5255 54.7044 27.7935 55.2919C28.0615 55.8794 28.474 56.3895 28.9924 56.7746C29.5108 57.1597 30.1183 57.4071 30.7582 57.4939V57.5307C30.7599 58.5437 31.163 59.5148 31.8793 60.2312C32.5956 60.9475 33.5666 61.3508 34.5797 61.3525C34.7259 61.3518 34.872 61.3425 35.0172 61.3248V71.8529H27.4637C27.2824 71.8529 27.1085 71.925 26.9803 72.0532C26.8521 72.1814 26.7801 72.3552 26.7801 72.5365C26.7801 72.7178 26.8521 72.8917 26.9803 73.0199C27.1085 73.1481 27.2824 73.2201 27.4637 73.2201H72.5363C72.7176 73.2201 72.8915 73.1481 73.0197 73.0199C73.1479 72.8917 73.2199 72.7178 73.2199 72.5365C73.2199 72.3552 73.1479 72.1814 73.0197 72.0532C72.8915 71.925 72.7176 71.8529 72.5363 71.8529ZM60.1953 37.5592C60.2594 37.4843 60.3065 37.3965 60.3335 37.3017C60.3605 37.2069 60.3666 37.1074 60.3516 37.01C60.3307 36.8852 60.3197 36.7591 60.3187 36.6326C60.3187 35.9817 60.5773 35.3574 61.0376 34.8972C61.4979 34.4369 62.1221 34.1783 62.773 34.1783C63.424 34.1783 64.0482 34.4369 64.5085 34.8972C64.9688 35.3574 65.2273 35.9817 65.2273 36.6326C65.2264 36.7591 65.2154 36.8852 65.1945 37.01C65.182 37.1079 65.1907 37.2075 65.2199 37.3018C65.2492 37.3962 65.2983 37.4831 65.3641 37.5568C65.4308 37.6319 65.5127 37.692 65.6043 37.733C65.696 37.7741 65.7953 37.7953 65.8957 37.7951C66.2895 37.7938 66.6779 37.8875 67.0278 38.0684C67.3776 38.2492 67.6786 38.5119 67.9053 38.834C68.1319 39.1561 68.2774 39.5282 68.3295 39.9186C68.3815 40.3089 68.3386 40.7061 68.2043 41.0764C68.1731 41.1634 68.1599 41.2558 68.1654 41.348C68.1709 41.4402 68.1951 41.5304 68.2364 41.6131C68.2777 41.6957 68.3354 41.7691 68.4058 41.8289C68.4763 41.8886 68.5582 41.9335 68.6465 41.9607C68.9986 42.0685 69.3219 42.2543 69.5923 42.5042C69.8627 42.7542 70.0733 43.0618 70.2084 43.4044C70.3435 43.7469 70.3997 44.1155 70.3728 44.4828C70.3458 44.85 70.2364 45.2064 70.0527 45.5256C70.0047 45.609 69.9749 45.7016 69.9652 45.7974C69.9555 45.8931 69.9662 45.9898 69.9964 46.0812C70.0267 46.1725 70.076 46.2565 70.1409 46.3274C70.2059 46.3984 70.2851 46.4549 70.3734 46.4932C70.7929 46.6745 71.1534 46.9694 71.4142 47.3447C71.675 47.72 71.8258 48.1606 71.8495 48.617C71.8733 49.0734 71.7691 49.5273 71.5486 49.9276C71.3282 50.3279 71.0003 50.6587 70.602 50.8826C70.5099 50.9346 70.4312 51.0072 70.372 51.0947C70.3128 51.1822 70.2746 51.2823 70.2606 51.387C70.2466 51.4917 70.257 51.5983 70.2911 51.6983C70.3251 51.7983 70.382 51.8891 70.457 51.9635C70.8026 52.3057 71.0387 52.743 71.1353 53.2197C71.2319 53.6964 71.1846 54.1911 70.9994 54.6408C70.8143 55.0906 70.4996 55.4752 70.0954 55.7458C69.6912 56.0163 69.2157 56.1606 68.7293 56.1604C68.6625 56.1604 68.5969 56.1553 68.5316 56.1498C68.4248 56.1412 68.3173 56.158 68.2181 56.1986C68.1189 56.2392 68.0306 56.3027 67.9604 56.3838C67.8903 56.4648 67.8402 56.5613 67.8142 56.6653C67.7882 56.7694 67.7871 56.8781 67.8109 56.9826C67.8523 57.162 67.8736 57.3454 67.8746 57.5295C67.8752 58.061 67.703 58.5784 67.3841 59.0036C67.0652 59.4289 66.6167 59.739 66.1062 59.8872C65.5958 60.0355 65.051 60.0138 64.5538 59.8256C64.0567 59.6374 63.6342 59.2927 63.35 58.8436C63.2882 58.7466 63.2029 58.6668 63.1021 58.6115C63.0013 58.5562 62.8882 58.5272 62.7732 58.5272C62.6583 58.5272 62.5451 58.5562 62.4443 58.6115C62.3435 58.6668 62.2583 58.7466 62.1965 58.8436C61.9338 59.2596 61.5518 59.5868 61.1003 59.7825C60.6488 59.9781 60.1489 60.0332 59.6657 59.9404C59.1824 59.8476 58.7384 59.6113 58.3915 59.2623C58.0446 58.9134 57.811 58.4679 57.7211 57.9842C57.7816 57.6868 57.8122 57.3841 57.8125 57.0807C57.8125 57.0189 57.8125 56.9572 57.8082 56.8947C58.5968 56.813 59.3503 56.5267 59.9942 56.0642C60.6381 55.6017 61.15 54.979 61.4792 54.2579C61.8084 53.5367 61.9436 52.742 61.8712 51.9525C61.7989 51.1631 61.5216 50.4062 61.0668 49.7568C61.6201 49.2991 62.0572 48.7167 62.3421 48.0575C62.627 47.3983 62.7517 46.6809 62.706 45.9642C62.6602 45.2475 62.4454 44.5519 62.079 43.9342C61.7126 43.3166 61.2051 42.7945 60.598 42.4107C60.8943 41.6383 60.9745 40.7997 60.8299 39.9851C60.6854 39.1705 60.3216 38.4107 59.7777 37.7873C59.939 37.7615 60.0865 37.681 60.1953 37.5592ZM53.2613 61.6307C53.9913 61.6302 54.7105 61.4538 55.3579 61.1166C56.0054 60.7793 56.5621 60.2911 56.9809 59.6932C57.3325 60.203 57.8022 60.6201 58.35 60.9091C58.8977 61.198 59.5073 61.3502 60.1266 61.3525C60.2727 61.3518 60.4186 61.3425 60.5637 61.3248V71.8529H52.5637V61.5717C52.7944 61.6093 53.0276 61.629 53.2613 61.6307ZM43.125 37.3967C43.1664 37.3141 43.1906 37.224 43.1961 37.1318C43.2017 37.0397 43.1885 36.9473 43.1574 36.8604C42.9849 36.3829 42.9293 35.871 42.9954 35.3676C43.0615 34.8642 43.2472 34.384 43.5372 33.9672C43.8271 33.5504 44.2127 33.2092 44.6617 32.9722C45.1106 32.7351 45.6099 32.6092 46.1176 32.6049C46.2268 32.6126 46.3363 32.5954 46.4379 32.5544C46.5394 32.5135 46.6302 32.4499 46.7035 32.3686C46.7676 32.2936 46.8147 32.2057 46.8417 32.1108C46.8687 32.016 46.8748 31.9164 46.8598 31.8189C46.833 31.6574 46.8188 31.494 46.8176 31.3303C46.8176 30.4859 47.153 29.6762 47.75 29.0791C48.3471 28.4821 49.1568 28.1467 50.0012 28.1467C50.8455 28.1467 51.6553 28.4821 52.2523 29.0791C52.8494 29.6762 53.1848 30.4859 53.1848 31.3303C53.1835 31.494 53.1694 31.6574 53.1426 31.8189C53.1303 31.9174 53.1393 32.0174 53.169 32.1121C53.1987 32.2068 53.2485 32.294 53.3148 32.3678C53.3822 32.4429 53.4647 32.503 53.557 32.5441C53.6492 32.5851 53.7491 32.6063 53.85 32.6061C54.3605 32.6048 54.8637 32.7266 55.3171 32.9613C55.7705 33.1959 56.1606 33.5364 56.4544 33.9539C56.7481 34.3713 56.9369 34.8535 57.0047 35.3595C57.0725 35.8654 57.0173 36.3803 56.8437 36.8604C56.8127 36.9473 56.7995 37.0397 56.8051 37.1319C56.8107 37.224 56.8349 37.3141 56.8762 37.3967C56.9175 37.4793 56.9751 37.5527 57.0455 37.6124C57.1159 37.6722 57.1977 37.717 57.2859 37.7443C57.7423 37.8844 58.1613 38.1256 58.5116 38.4498C58.862 38.7741 59.1349 39.1731 59.3099 39.6173C59.4849 40.0614 59.5575 40.5393 59.5225 41.0154C59.4874 41.4915 59.3456 41.9536 59.1074 42.3674C59.0595 42.4509 59.0298 42.5435 59.0201 42.6393C59.0105 42.7351 59.0211 42.8318 59.0515 42.9232C59.0818 43.0146 59.131 43.0985 59.196 43.1695C59.261 43.2405 59.3402 43.2971 59.4285 43.3354C59.9725 43.5704 60.44 43.9527 60.7784 44.4393C61.1167 44.9258 61.3124 45.4972 61.3434 46.089C61.3744 46.6808 61.2394 47.2695 60.9538 47.7887C60.6681 48.3079 60.243 48.737 59.7266 49.0275C59.6346 49.0795 59.5559 49.1521 59.4967 49.2396C59.4375 49.3271 59.3993 49.4271 59.3852 49.5319C59.3712 49.6366 59.3815 49.7431 59.4155 49.8431C59.4496 49.9432 59.5063 50.034 59.5812 50.1084C60.0294 50.5522 60.3355 51.1192 60.4608 51.7374C60.5861 52.3555 60.5248 52.997 60.2848 53.5803C60.0448 54.1635 59.6368 54.6623 59.1127 55.0133C58.5887 55.3642 57.9721 55.5515 57.3414 55.5514C57.2543 55.5514 57.1695 55.5447 57.0844 55.5381C56.9774 55.5296 56.87 55.5463 56.7707 55.5871C56.6714 55.6278 56.5832 55.6913 56.513 55.7724C56.4428 55.8536 56.3927 55.9501 56.3668 56.0542C56.3409 56.1583 56.3398 56.2671 56.3637 56.3717C56.532 57.103 56.4361 57.8703 56.0931 58.5378C55.7501 59.2053 55.1821 59.73 54.4894 60.0189C53.7968 60.3078 53.0243 60.3425 52.3087 60.1166C51.593 59.8908 50.9802 59.4191 50.5789 58.785C50.5172 58.6878 50.432 58.6079 50.3311 58.5525C50.2302 58.4971 50.117 58.468 50.002 58.468C49.8869 58.468 49.7737 58.4971 49.6728 58.5525C49.572 58.6079 49.4867 58.6878 49.425 58.785C49.0249 59.4213 48.4121 59.8952 47.6956 60.1224C46.9791 60.3496 46.2052 60.3155 45.5115 60.0261C44.8177 59.7367 44.249 59.2107 43.9064 58.5417C43.5638 57.8726 43.4695 57.1037 43.6402 56.3717C43.6641 56.2671 43.663 56.1583 43.6371 56.0542C43.6112 55.9501 43.5611 55.8536 43.4909 55.7724C43.4207 55.6913 43.3325 55.6278 43.2332 55.5871C43.1339 55.5463 43.0265 55.5296 42.9195 55.5381C42.8344 55.5447 42.7496 55.5514 42.6625 55.5514C42.0317 55.5517 41.415 55.3645 40.8908 55.0136C40.3666 54.6627 39.9586 54.1639 39.7185 53.5805C39.4785 52.9972 39.4172 52.3556 39.5426 51.7374C39.668 51.1192 39.9743 50.5521 40.4227 50.1084C40.4975 50.0337 40.554 49.9427 40.5877 49.8425C40.6214 49.7422 40.6314 49.6356 40.6169 49.5308C40.6025 49.4261 40.5639 49.3262 40.5043 49.2388C40.4447 49.1515 40.3657 49.0792 40.2734 49.0275C39.7569 48.7371 39.3317 48.3082 39.0459 47.7891C38.7601 47.27 38.6249 46.6814 38.6557 46.0896C38.6865 45.4978 38.882 44.9264 39.2201 44.4397C39.5583 43.9531 40.0256 43.5706 40.5695 43.3354C40.6578 43.2971 40.7371 43.2405 40.8021 43.1695C40.867 43.0985 40.9163 43.0146 40.9466 42.9232C40.9769 42.8318 40.9876 42.7351 40.9779 42.6393C40.9683 42.5435 40.9385 42.4509 40.8906 42.3674C40.6525 41.9535 40.5107 41.4913 40.4758 41.0151C40.4409 40.5388 40.5137 40.0609 40.6889 39.6167C40.8641 39.1725 41.1372 38.7735 41.4878 38.4493C41.8384 38.1252 42.2575 37.8842 42.7141 37.7443C42.8025 37.7172 42.8845 37.6724 42.9552 37.6126C43.0258 37.5529 43.0836 37.4794 43.125 37.3967ZM39.8734 61.3525C40.4927 61.3502 41.1023 61.198 41.65 60.9091C42.1978 60.6201 42.6675 60.203 43.0191 59.6932C43.5019 60.3925 44.1733 60.9404 44.9553 61.273C45.7373 61.6056 46.5977 61.7091 47.4363 61.5717V71.8529H39.4363V61.3248C39.5814 61.3425 39.7273 61.3518 39.8734 61.3525ZM32.1254 57.5307C32.1264 57.3466 32.1477 57.1632 32.1891 56.9838C32.2129 56.8792 32.2118 56.7705 32.1858 56.6665C32.1598 56.5625 32.1097 56.466 32.0396 56.3849C31.9694 56.3038 31.8811 56.2404 31.7819 56.1998C31.6827 56.1591 31.5752 56.1424 31.4684 56.151C31.4031 56.1564 31.3375 56.1615 31.2707 56.1615C30.7841 56.1619 30.3085 56.0177 29.9041 55.7471C29.4997 55.4765 29.1849 55.0918 28.9997 54.6419C28.8145 54.1919 28.7673 53.6971 28.864 53.2202C28.9608 52.7434 29.1971 52.3061 29.543 51.9639C29.618 51.8895 29.6749 51.7987 29.7089 51.6987C29.743 51.5987 29.7534 51.4921 29.7394 51.3874C29.7254 51.2826 29.6872 51.1826 29.628 51.0951C29.5688 51.0076 29.4901 50.935 29.398 50.883C28.9997 50.6591 28.6718 50.3283 28.4514 49.928C28.2309 49.5277 28.1267 49.0738 28.1505 48.6174C28.1742 48.161 28.325 47.7204 28.5858 47.3451C28.8466 46.9698 29.2071 46.6749 29.6266 46.4936C29.7149 46.4553 29.7941 46.3988 29.8591 46.3278C29.924 46.2568 29.9733 46.1729 30.0036 46.0816C30.0338 45.9902 30.0445 45.8935 30.0348 45.7978C30.0251 45.702 29.9953 45.6094 29.9473 45.526C29.7636 45.2068 29.6542 44.8504 29.6272 44.4832C29.6003 44.1159 29.6565 43.7473 29.7916 43.4048C29.9267 43.0622 30.1373 42.7546 30.4077 42.5046C30.6781 42.2547 31.0014 42.0689 31.3535 41.9611C31.4419 41.934 31.5239 41.8892 31.5945 41.8295C31.6651 41.7698 31.7229 41.6964 31.7643 41.6138C31.8058 41.5311 31.83 41.4409 31.8356 41.3486C31.8412 41.2563 31.828 41.1638 31.7969 41.0768C31.6638 40.7092 31.6207 40.3151 31.6711 39.9274C31.7216 39.5398 31.8642 39.1698 32.0869 38.8486C32.3097 38.5273 32.6061 38.264 32.9514 38.0808C33.2968 37.8976 33.681 37.7998 34.0719 37.7955C34.1799 37.8023 34.288 37.7845 34.3881 37.7435C34.4882 37.7025 34.5778 37.6393 34.65 37.5588C34.7141 37.4839 34.7612 37.3961 34.7882 37.3013C34.8151 37.2065 34.8213 37.107 34.8063 37.0096C34.7854 36.8849 34.7744 36.7587 34.7734 36.6322C34.7734 35.9813 35.032 35.357 35.4923 34.8968C35.9526 34.4365 36.5768 34.1779 37.2277 34.1779C37.8787 34.1779 38.5029 34.4365 38.9632 34.8968C39.4235 35.357 39.682 35.9813 39.682 36.6322C39.6811 36.7587 39.6701 36.8849 39.6492 37.0096C39.6367 37.1075 39.6454 37.2071 39.6746 37.3014C39.7039 37.3958 39.753 37.4827 39.8188 37.5564C39.9255 37.6765 40.0703 37.7561 40.2289 37.7818C39.6836 38.4051 39.3187 39.1652 39.1734 39.9805C39.0281 40.7957 39.1079 41.6352 39.4043 42.4084C38.7973 42.7921 38.2898 43.3142 37.9234 43.9319C37.557 44.5495 37.3421 45.2452 37.2964 45.9619C37.2507 46.6786 37.3754 47.3959 37.6603 48.0551C37.9452 48.7144 38.3822 49.2967 38.9355 49.7545C38.4801 50.4037 38.2022 51.1607 38.1294 51.9504C38.0566 52.7402 38.1914 53.5352 38.5206 54.2567C38.8497 54.9783 39.3617 55.6013 40.0058 56.064C40.6499 56.5267 41.4037 56.8131 42.1926 56.8947C42.1898 56.9572 42.1883 57.0189 42.1883 57.0807C42.1884 57.3838 42.2187 57.6863 42.2789 57.9834C42.189 58.4672 41.9554 58.9126 41.6085 59.2616C41.2616 59.6105 40.8176 59.8468 40.3343 59.9396C39.8511 60.0324 39.3512 59.9774 38.8997 59.7817C38.4482 59.586 38.0662 59.2588 37.8035 58.8428C37.7417 58.7458 37.6565 58.666 37.5557 58.6107C37.4549 58.5554 37.3417 58.5265 37.2268 58.5265C37.1118 58.5265 36.9987 58.5554 36.8979 58.6107C36.7971 58.666 36.7118 58.7458 36.65 58.8428C36.3658 59.2919 35.9433 59.6366 35.4462 59.8248C34.949 60.0131 34.4042 60.0347 33.8938 59.8864C33.3833 59.7382 32.9348 59.4281 32.6159 59.0029C32.297 58.5776 32.1248 58.0603 32.1254 57.5287V57.5307ZM36.3832 71.8529V60.8986C36.6911 60.734 36.9749 60.5278 37.2266 60.2857C37.4778 60.5279 37.7614 60.7341 38.0691 60.8986V71.8533L36.3832 71.8529ZM48.8023 71.8529V61.133C49.2474 60.9068 49.6521 60.6086 50 60.2506C50.3476 60.6085 50.7518 60.9067 51.1965 61.133V71.8545L48.8023 71.8529ZM61.9297 71.8529V60.8986C62.2379 60.7342 62.5218 60.528 62.7734 60.2857C63.0248 60.5277 63.3081 60.7339 63.6156 60.8986V71.8533L61.9297 71.8529Z" stroke="#8DD6DD" stroke-width="1.4" mask="url(#path-3-outside-1)"/>
<path d="M52.8159 37.8282L52.8218 37.8141C52.8585 37.7266 52.8644 37.6291 52.8383 37.5378C52.8123 37.4465 52.7559 37.3668 52.6785 37.3118L52.6593 37.2981L52.642 37.2819C52.4419 37.0945 52.3245 36.8353 52.3155 36.5613C52.3065 36.2873 52.4068 36.0209 52.5942 35.8208C52.7816 35.6207 53.0408 35.5033 53.3148 35.4943C53.5854 35.4854 53.8485 35.5831 54.0477 35.7659C54.4314 36.0896 54.7072 36.5229 54.8377 37.0078C54.9686 37.4938 54.9475 38.0082 54.7772 38.4817C54.7094 38.6871 54.5789 38.8662 54.404 38.9937C54.2273 39.1225 54.0143 39.1919 53.7956 39.1921L52.8159 37.8282ZM52.8159 37.8282L52.8113 37.8426M52.8159 37.8282L52.8113 37.8426M52.8113 37.8426C52.7277 38.1034 52.7509 38.3866 52.8759 38.6302M52.8113 37.8426L52.8759 38.6302M52.8759 38.6302C53.0009 38.8739 53.2175 39.0579 53.4781 39.142M52.8759 38.6302L53.4781 39.142M53.4781 39.142L53.5856 38.8089M53.4781 39.142L53.5856 38.8089M53.5856 38.8089L53.4772 39.1417C53.58 39.1752 53.6875 39.1922 53.7956 39.1921L53.1873 38.4704C53.27 38.6316 53.4132 38.7533 53.5856 38.8089Z" fill="#8DD6DD" stroke="#8DD6DD" stroke-width="0.7"/>
<path d="M54.4664 52.5296V52.5296H54.4691L54.4664 52.5296ZM54.4664 52.5296L54.465 52.5296M54.4664 52.5296L54.465 52.5296M54.465 52.5296C54.3293 52.5302 54.195 52.5575 54.0698 52.6099M54.465 52.5296L54.0698 52.6099M53.4356 53.5676L53.4356 53.5674C53.435 53.4316 53.4612 53.2971 53.5126 53.1715M53.4356 53.5676L53.8265 53.3L53.5126 53.1715M53.4356 53.5676C53.4371 53.9132 53.4174 54.0404 53.3862 54.1196C53.3566 54.1948 53.3086 54.2532 53.1296 54.4453L53.1295 54.4453M53.4356 53.5676L53.1295 54.4453M53.5126 53.1715C53.5641 53.0459 53.6398 52.9317 53.7354 52.8353M53.5126 53.1715L53.7354 52.8353M53.1295 54.4453C52.9426 54.6459 52.8431 54.9125 52.8527 55.1865M53.1295 54.4453L52.8527 55.1865M55.5027 53.5585V53.5585C55.5052 54.0986 55.4549 54.5103 55.3105 54.8771C55.1655 55.2453 54.9377 55.5374 54.642 55.8545L55.5027 53.5585ZM55.5027 53.5585C55.5015 53.2852 55.392 53.0235 55.1983 52.8307M55.5027 53.5585L55.1983 52.8307M54.0698 52.6099C53.9446 52.6623 53.831 52.7389 53.7354 52.8353M54.0698 52.6099L53.7354 52.8353M52.8527 55.1865C52.8624 55.4605 52.9806 55.7193 53.1811 55.9062M52.8527 55.1865L53.1811 55.9062M53.1811 55.9062C53.3817 56.0931 53.6483 56.1926 53.9223 56.1829M53.1811 55.9062L53.9223 56.1829M53.9223 56.1829C54.1962 56.1732 54.4551 56.0551 54.6419 55.8546L53.9223 56.1829ZM55.1983 52.8307C55.0046 52.6379 54.7425 52.5296 54.4691 52.5296L55.1983 52.8307Z" fill="#8DD6DD" stroke="#8DD6DD" stroke-width="0.7"/>
<path d="M54.6429 41.2161L54.4461 41.5055C54.4453 41.5049 54.4456 41.5052 54.4472 41.5063C54.4663 41.5203 54.6699 41.6688 54.8828 41.9114C55.1149 42.1759 55.3269 42.517 55.3659 42.8909C55.3929 43.2237 55.3495 43.5585 55.2384 43.8734C55.1273 44.1883 54.9511 44.4761 54.7212 44.7183C54.5334 44.9081 54.4264 45.1633 54.4225 45.4304C54.4186 45.6991 54.5195 45.9587 54.7037 46.1543C54.8879 46.3499 55.1411 46.4661 55.4095 46.4783C55.6779 46.4905 55.9405 46.3977 56.1417 46.2196L56.1511 46.2113L56.1598 46.2024C56.6103 45.7423 56.9563 45.1904 57.174 44.5845C57.3917 43.9785 57.4761 43.3326 57.4214 42.691L57.4214 42.691L57.4208 42.6854C57.3296 41.7882 56.8825 41.0744 56.4679 40.5898C56.0522 40.1038 55.6493 39.825 55.6045 39.7946L55.6045 39.7946L55.6034 39.7938C55.3766 39.641 55.0985 39.5842 54.8299 39.636C54.5613 39.6878 54.3242 39.844 54.1706 40.0703L54.1706 40.0703L54.1703 40.0707C54.0166 40.2977 53.9595 40.5764 54.0113 40.8455C54.0631 41.1147 54.2197 41.3522 54.4467 41.5059L54.6429 41.2161ZM54.6429 41.2161C54.4928 41.1144 54.3893 40.9573 54.355 40.7793C54.3207 40.6013 54.3585 40.417 54.4601 40.2669L54.9722 44.9622C55.2374 44.6838 55.4405 44.3524 55.5685 43.9899C55.6964 43.6273 55.7461 43.2418 55.7144 42.8587C55.6172 41.9005 54.6527 41.2227 54.6429 41.2161Z" fill="#8DD6DD" stroke="#8DD6DD" stroke-width="0.7"/>
<path d="M50.0018 14.844C51.0803 14.844 51.9549 13.9694 51.9549 12.8909C51.9549 11.8124 51.0803 10.9377 50.0018 10.9377H50.0004C48.9219 10.9377 48.0481 11.8124 48.0481 12.8909C48.0481 13.9694 48.9231 14.844 50.0018 14.844Z" fill="#8DD6DD"/>
</svg>
