<svg width="100" height="100" viewBox="0 0 100 100" fill="none" xmlns="http://www.w3.org/2000/svg">
<path d="M59.1867 12.0275C58.1365 11.7746 57.083 12.4201 56.8303 13.4685C56.5775 14.5172 57.2226 15.5722 58.2713 15.825C74.1009 19.6416 85.1563 33.695 85.1563 50.0004C85.1563 69.3855 69.3853 85.1563 50.0002 85.1563C30.6151 85.1563 14.8441 69.3855 14.8441 50.0004C14.8441 33.6946 25.9001 19.6412 41.7305 15.825C42.7791 15.5722 43.4243 14.5172 43.1715 13.4685C42.9188 12.4201 41.8645 11.7746 40.8151 12.0275C32.4397 14.0467 24.8519 18.8877 19.449 25.6591C13.8808 32.6374 10.9379 41.0548 10.9379 50.0006C10.9379 71.5396 28.4612 89.0628 50.0002 89.0628C71.5392 89.0628 89.0626 71.5396 89.0626 50.0006C89.0626 41.055 86.1198 32.6382 80.552 25.6597C75.1495 18.888 67.5617 14.0467 59.1867 12.0275Z" fill="#8DD6DD"/>
<path d="M98.8227 45.303L96.5379 41.0401L96.9192 35.7698C97.2852 32.3915 95.9377 29.095 93.31 26.9448L89.5171 23.839L88.0251 19.3445C87.1895 15.908 84.5794 13.1461 81.1933 12.1232L76.5114 10.7088L72.9259 6.56406C70.8042 4.06856 67.5929 2.77091 64.3357 3.09044L59.4762 3.57462L54.6996 1.17854C51.7559 -0.390599 48.2461 -0.391771 45.3016 1.17834L41.0389 3.4631L35.7688 3.08204C32.3907 2.71427 29.0939 4.06329 26.9437 6.69121L23.8378 10.4842L19.3433 11.9761C15.9068 12.8115 13.1449 15.4214 12.1219 18.8076L10.7078 23.4894L6.56269 27.0751C4.06759 29.197 2.76896 32.4075 3.08947 35.6653L3.57364 40.5247L1.17756 45.3016C-0.391771 48.2451 -0.393138 51.7549 1.17717 54.699L3.46193 58.9621L3.08087 64.2322C2.71447 67.6101 4.06192 70.9068 6.69004 73.0572L10.483 76.1628L11.975 80.6577C12.8105 84.0942 15.4205 86.8561 18.8068 87.8792L23.4886 89.2932L27.0741 93.4379C29.1956 95.9332 32.4056 97.2309 35.6645 96.9116L40.5237 96.4272L45.3 98.8233C46.7725 99.6086 48.3862 100.001 50.0002 100.001C51.6131 100.001 53.2264 99.6088 54.6981 98.8239L58.9611 96.5391L64.2308 96.9201C67.6089 97.2871 70.9062 95.9395 73.0562 93.3112L76.162 89.518L80.6567 88.026C84.0932 87.1909 86.855 84.5807 87.8782 81.1942L89.2923 76.5126L93.437 72.9271C95.9323 70.8054 97.2311 67.5949 96.9106 64.3367L96.4264 59.4775L98.8223 54.7012C100.392 51.7574 100.393 48.2477 98.8227 45.303ZM95.367 52.8787C95.3584 52.8945 95.35 52.9106 95.342 52.9268L92.6807 58.2322C92.5149 58.5627 92.4463 58.9336 92.4829 59.3015L93.0231 64.7214C93.218 66.7035 92.4268 68.6585 90.8938 69.9621L86.3083 73.929C86.0286 74.1708 85.8235 74.4872 85.7165 74.8413L84.1386 80.0647C83.5095 82.1477 81.8003 83.7489 79.678 84.2436C79.62 84.2571 79.5626 84.2733 79.5062 84.2921L74.3943 85.9889C74.0433 86.1055 73.7325 86.3192 73.4984 86.6051L70.0331 90.837C68.7173 92.4452 66.6961 93.2674 64.6271 93.0338C64.6013 93.0309 64.5754 93.0286 64.5498 93.0268L58.6781 92.6022C58.3078 92.5747 57.9406 92.654 57.6146 92.8288L52.8563 95.3791C51.0615 96.3358 48.918 96.3319 47.1225 95.3682C47.1067 95.3596 47.0907 95.3512 47.0746 95.3432L41.7692 92.6817C41.4965 92.545 41.1965 92.4743 40.8934 92.4743C40.829 92.4743 40.7643 92.4776 40.6997 92.4838L35.2798 93.0243C33.3003 93.218 31.3431 92.428 30.0394 90.895L26.0722 86.3094C25.8304 86.0298 25.514 85.8247 25.1599 85.7177L19.9363 84.1397C17.8535 83.5106 16.2523 81.8015 15.7574 79.6792C15.7439 79.6212 15.7277 79.5638 15.7089 79.5073L14.0121 74.3952C13.8955 74.0443 13.682 73.7337 13.3959 73.4993L9.16425 70.0345C7.55585 68.7183 6.73437 66.6972 6.96719 64.6283C6.97011 64.6025 6.97246 64.5765 6.97422 64.5509L7.39882 58.6793C7.42558 58.3103 7.34687 57.9416 7.17226 57.6158L4.62188 52.8574C3.66485 51.0629 3.66896 48.9196 4.63301 47.1239C4.64141 47.108 4.64981 47.092 4.65782 47.0758L7.31914 41.7702C7.48496 41.4397 7.55351 41.0688 7.51699 40.7008L6.97695 35.2807C6.78203 33.2989 7.57324 31.3438 9.10585 30.0401L13.6914 26.0732C13.9713 25.8314 14.1763 25.515 14.2834 25.1609L15.8613 19.9373C16.4904 17.8544 18.1996 16.2533 20.3218 15.7584C20.3798 15.7449 20.4373 15.7287 20.4937 15.7099L25.6056 14.0131C25.9566 13.8965 26.2673 13.6828 26.5015 13.3968L29.9665 9.16522C31.2825 7.55683 33.3036 6.73476 35.3727 6.96816C35.3985 6.97109 35.4245 6.97343 35.4501 6.97519L41.3217 7.3998C41.6913 7.42597 42.0594 7.34804 42.3854 7.17324L47.1434 4.62286C48.9377 3.66583 51.0813 3.66974 52.8774 4.63379C52.8932 4.64219 52.909 4.65059 52.925 4.6586L58.2305 7.32011C58.5611 7.48613 58.9324 7.55371 59.3 7.51796L64.7203 6.97773C66.7009 6.78379 68.6572 7.57402 69.9607 9.10702L73.9279 13.6925C74.1697 13.9722 74.4861 14.1773 74.84 14.2841L80.0636 15.8625C82.1466 16.4916 83.7477 18.2007 84.2425 20.323C84.2559 20.381 84.2722 20.4384 84.2909 20.4949L85.9878 25.6068C86.1044 25.9577 86.318 26.2685 86.604 26.5027L90.8356 29.9675C92.444 31.2835 93.2653 33.3048 93.0327 35.3741C93.0297 35.3999 93.0274 35.4257 93.0256 35.4514L92.6008 41.3229C92.5741 41.6918 92.6528 42.0606 92.8274 42.3864L95.378 47.145C96.3352 48.9393 96.3311 51.0826 95.367 52.8787Z" fill="#8DD6DD"/>
<path d="M41.2607 43.2023H41.5107V43.1667C41.8811 43.0586 42.1518 42.7164 42.1518 42.3111C42.1518 41.8189 41.7528 41.4199 41.2607 41.4199H38.3806C37.8885 41.4199 37.4895 41.8189 37.4895 42.3111V49.417C37.4895 49.9091 37.8885 50.3081 38.3806 50.3081C38.8728 50.3081 39.2718 49.9091 39.2718 49.417V46.6879H41.0319C41.5241 46.6879 41.923 46.2889 41.923 45.7968C41.923 45.3046 41.5241 44.9056 41.0319 44.9056H39.2718V43.2023H41.2607Z" fill="#8DD6DD" stroke="#8DD6DD" stroke-width="0.5"/>
<path d="M55.8244 43.2152C56.3165 43.2152 56.7155 42.8162 56.7155 42.324C56.7155 41.8319 56.3165 41.4329 55.8244 41.4329H52.8357C52.3435 41.4329 51.9445 41.8319 51.9445 42.324V49.4169C51.9445 49.9091 52.3435 50.3081 52.8357 50.3081H55.8244C56.3165 50.3081 56.7155 49.9091 56.7155 49.4169C56.7155 48.9248 56.3165 48.5258 55.8244 48.5258H53.7268V46.7617H55.604C56.0961 46.7617 56.4951 46.3627 56.4951 45.8705C56.4951 45.3784 56.0961 44.9794 55.604 44.9794H53.7268V43.2152H55.8244Z" fill="#8DD6DD" stroke="#8DD6DD" stroke-width="0.5"/>
<path d="M63.0791 43.2152C63.5712 43.2152 63.9702 42.8162 63.9702 42.324C63.9702 41.8319 63.5712 41.4329 63.0791 41.4329H60.0905C59.5983 41.4329 59.1993 41.8319 59.1993 42.324V49.4169C59.1993 49.9091 59.5983 50.3081 60.0905 50.3081H63.0791C63.5712 50.3081 63.9702 49.9091 63.9702 49.4169C63.9702 48.9248 63.5712 48.5258 63.0791 48.5258H60.9816V46.7617H62.8588C63.3509 46.7617 63.7499 46.3627 63.7499 45.8705C63.7499 45.3784 63.3509 44.9794 62.8588 44.9794H60.9816V43.2152H63.0791Z" fill="#8DD6DD" stroke="#8DD6DD" stroke-width="0.5"/>
<path d="M49.6794 48.8281L47.8561 46.7565C49.032 46.4202 49.9016 45.3715 49.9016 44.1189C49.9016 42.5919 48.6105 41.3674 47.0448 41.3674H45.1426H45.1426H45.1426H45.1426H45.1426H45.1426H45.1426H45.1426H45.1426H45.1426H45.1426H45.1426H45.1426H45.1426H45.1426H45.1426H45.1426H45.1426H45.1426H45.1426H45.1426H45.1426H45.1426H45.1426H45.1426H45.1426H45.1426H45.1426H45.1426H45.1426H45.1426H45.1426H45.1426H45.1426H45.1426H45.1426H45.1426H45.1425H45.1425H45.1425H45.1425H45.1425H45.1425H45.1425H45.1425H45.1425H45.1425H45.1425H45.1425H45.1425H45.1425H45.1425H45.1425H45.1425H45.1425H45.1425H45.1425H45.1425H45.1425H45.1425H45.1425H45.1425H45.1425H45.1425H45.1425H45.1425H45.1425H45.1425H45.1425H45.1425H45.1425H45.1425H45.1425H45.1425H45.1425H45.1425H45.1425H45.1425H45.1425H45.1425H45.1425H45.1425H45.1425H45.1425H45.1425H45.1425H45.1425H45.1425H45.1425H45.1425H45.1425H45.1425H45.1424H45.1424H45.1424H45.1424H45.1424H45.1424H45.1424H45.1424H45.1424H45.1424H45.1424H45.1424H45.1424H45.1424H45.1424H45.1424H45.1424H45.1424H45.1424H45.1424H45.1424H45.1424H45.1424H45.1424H45.1424H45.1424H45.1424H45.1424H45.1424H45.1424H45.1423H45.1423H45.1423H45.1423H45.1423H45.1423H45.1423H45.1423H45.1423H45.1423H45.1423H45.1423H45.1423H45.1423H45.1423H45.1423H45.1423H45.1423H45.1423H45.1423H45.1423H45.1423H45.1422H45.1422H45.1422H45.1422H45.1422H45.1422H45.1422H45.1422H45.1422H45.1422H45.1422H45.1422H45.1422H45.1422H45.1422H45.1422H45.1422H45.1422H45.1421H45.1421H45.1421H45.1421H45.1421H45.1421H45.1421H45.1421H45.1421H45.1421H45.1421H45.1421H45.1421H45.1421H45.1421H45.1421H45.142H45.142H45.142H45.142H45.142H45.142H45.142H45.142H45.142H45.142H45.142H45.142H45.142H45.1419H45.1419H45.1419H45.1419H45.1419H45.1419H45.1419H45.1419H45.1419H45.1419H45.1419H45.1419H45.1419H45.1418H45.1418H45.1418H45.1418H45.1418H45.1418H45.1418H45.1418H45.1418H45.1418H45.1418H45.1417H45.1417H45.1417H45.1417H45.1417H45.1417H45.1417H45.1417H45.1417H45.1417H45.1416H45.1416H45.1416H45.1416H45.1416H45.1416H45.1416H45.1416H45.1416H45.1416H45.1415H45.1415H45.1415H45.1415H45.1415H45.1415H45.1415H45.1415H45.1415H45.1414H45.1414H45.1414H45.1414H45.1414H45.1414H45.1414H45.1414H45.1414H45.1413H45.1413H45.1413H45.1413H45.1413H45.1413H45.1413H45.1413H45.1412H45.1412H45.1412H45.1412H45.1412H45.1412H45.1412H45.1412H45.1411H45.1411H45.1411H45.1411H45.1411H45.1411H45.1411H45.141H45.141H45.141H45.141H45.141H45.141H45.141H45.1409H45.1409H45.1409H45.1409H45.1409H45.1409H45.1409H45.1408H45.1408H45.1408H45.1408H45.1408H45.1408H45.1407H45.1407H45.1407H45.1407H45.1407H45.1407H45.1407H45.1406H45.1406H45.1406H45.1406H45.1406H45.1406H45.1405H45.1405H45.1405H45.1405H45.1405H45.1405H45.1404H45.1404H45.1404H45.1404H45.1404H45.1403H45.1403H45.1403H45.1403C44.6481 41.3674 44.2491 41.7664 44.2491 42.2586V49.4169C44.2491 49.909 44.6481 50.308 45.1403 50.308C45.6325 50.308 46.0314 49.909 46.0314 49.4169V47.381L48.3415 50.0056L48.3415 50.0056C48.6671 50.3756 49.2303 50.4106 49.5992 50.0858C49.9686 49.7607 50.0046 49.1976 49.6794 48.8281C49.6794 48.8281 49.6794 48.8281 49.6794 48.8281ZM47.0448 43.1497C47.6445 43.1497 48.1193 43.6152 48.1193 44.1189C48.1193 44.6226 47.6446 45.0881 47.0448 45.0881C46.8111 45.0881 46.4128 45.0898 46.0419 45.0916C46.0391 44.553 46.0389 44.3869 46.0384 44.0838C46.0381 43.8826 46.0377 43.621 46.0364 43.1497H47.0448Z" fill="#8DD6DD" stroke="#8DD6DD" stroke-width="0.5"/>
<path d="M52.7662 30.7517C52.2696 30.7233 51.8284 31.0472 51.6959 31.5084L51.6957 31.5089L50.4063 36.0323L49.069 31.4998L49.0689 31.4995C48.9334 31.0427 48.492 30.7193 47.9904 30.7528L47.9903 30.7528C47.5118 30.7849 47.1167 31.1363 47.0252 31.6118L47.0252 31.6118L47.0247 31.6147L45.7643 38.5979C45.7643 38.598 45.7643 38.598 45.7643 38.598C45.6768 39.0823 45.9987 39.5458 46.483 39.6332L46.4831 39.6333C46.9669 39.7205 47.4308 39.3991 47.5183 38.9145L47.5183 38.9145L48.2319 34.9608L49.247 38.4015L49.3976 38.9118L49.4146 38.9689C49.4179 38.9797 49.4196 38.9846 49.4194 38.984L49.4199 38.9856C49.7507 39.9702 51.1487 39.9242 51.4292 38.945L51.4293 38.9446L52.5667 34.9547L53.3252 38.9235C53.4175 39.407 53.8844 39.724 54.3678 39.6316C54.8513 39.5392 55.1681 39.0723 55.0758 38.5891L55.0758 38.589L53.7394 31.5958L53.7394 31.5958L53.7388 31.5928C53.6432 31.1245 53.2435 30.7787 52.7662 30.7517ZM52.7662 30.7517C52.7662 30.7517 52.7662 30.7517 52.7661 30.7517L52.752 31.0013L52.7664 30.7517C52.7663 30.7517 52.7663 30.7517 52.7662 30.7517Z" fill="#8DD6DD" stroke="#8DD6DD" stroke-width="0.5"/>
<path d="M42.4359 36.5146H41.2729C40.7808 36.5146 40.3818 36.1156 40.3818 35.6235C40.3818 35.1313 40.7808 34.7323 41.2729 34.7323H43.4181C43.9103 34.7323 44.3093 35.1313 44.3093 35.6235C44.3093 36.9187 43.909 38.0373 43.2033 38.8356C42.4956 39.6362 41.4927 40.1002 40.3228 40.1003C37.8542 40.1003 35.8462 38.0922 35.8462 35.6236C35.8462 32.0103 39.8979 29.9336 42.8264 31.912C43.2342 32.1875 43.3416 32.7414 43.066 33.1492L42.4359 36.5146ZM42.4359 36.5146C42.2828 37.2007 41.9498 37.6635 41.5429 37.947C41.0781 38.2708 40.4918 38.3781 39.9071 38.2858C38.7333 38.1007 37.6285 37.1258 37.6285 35.6235C37.6285 33.4534 40.0653 32.1975 41.8287 33.3888L41.8288 33.3888C42.2366 33.6642 42.7905 33.5571 43.066 33.1493L42.4359 36.5146Z" fill="#8DD6DD" stroke="#8DD6DD" stroke-width="0.5"/>
<path d="M65.6135 35.6236C65.6135 33.1549 63.6055 31.147 61.1369 31.147C58.6683 31.147 56.6602 33.155 56.6602 35.6236C56.6602 38.0922 58.6682 40.1003 61.1369 40.1003C63.6056 40.1003 65.6135 38.0923 65.6135 35.6236ZM61.1369 38.318C59.6514 38.318 58.4425 37.1091 58.4425 35.6236C58.4425 34.1381 59.6514 32.9293 61.1369 32.9293C62.6224 32.9293 63.8312 34.1382 63.8312 35.6236C63.8312 37.109 62.6223 38.318 61.1369 38.318Z" fill="#8DD6DD" stroke="#8DD6DD" stroke-width="0.5"/>
<path d="M58.4783 52.4283C58.4703 52.4653 58.4556 52.4958 58.4378 52.5205C58.3611 52.4404 58.2815 52.3969 58.2491 52.3818L58.3659 52.1633C58.3696 52.1656 58.3778 52.1708 58.3875 52.1783L58.3878 52.1786C58.3918 52.1815 58.4245 52.2062 58.4497 52.2494C58.4627 52.2715 58.4976 52.3388 58.4783 52.4283ZM58.3393 52.1483C58.3361 52.147 58.3316 52.1451 58.3262 52.143C55.5546 50.887 52.2725 51.417 50.0347 53.4504C48.3157 51.2804 45.3243 50.5804 42.8375 51.7121L42.8137 51.7229L42.8095 51.726C42.8017 51.73 42.7919 51.735 42.7807 51.7412C42.7496 51.7583 42.7079 51.7834 42.6622 51.8182C42.5717 51.8872 42.4608 51.9978 42.3882 52.1627C40.6224 56.0469 43.3909 60.5534 47.6986 60.6518C47.8374 61.3203 48.0673 61.9647 48.245 62.3085L48.2451 62.3087C48.3416 62.4948 48.4972 62.6338 48.6694 62.712L48.6819 62.7177L48.695 62.722C48.6936 62.7215 48.6983 62.7231 48.7151 62.7302C48.7303 62.7365 48.7495 62.7449 48.7745 62.7557L48.7754 62.7561C48.8244 62.7774 48.8902 62.806 48.9706 62.8389C49.1325 62.9053 49.3533 62.9892 49.6256 63.0715C50.17 63.2361 50.9204 63.3943 51.8214 63.3943C57.4224 63.3943 61.0641 57.6309 58.7848 52.5924L58.7845 52.5916C58.708 52.4242 58.5926 52.3122 58.5011 52.244C58.455 52.2096 58.413 52.1849 58.3813 52.1684C58.3655 52.1601 58.3513 52.1534 58.3393 52.1483ZM55.9761 59.9026C54.5818 61.2969 52.5796 61.8743 50.6927 61.503L57.5767 54.619C57.9477 56.5062 57.3702 58.5084 55.9761 59.9026ZM50.2977 55.4232L50.5158 55.5516C51.8893 53.7427 54.1708 52.9367 56.3164 53.3586L49.4317 60.2434C49.1703 58.9375 49.4015 57.8135 49.7174 56.9913C49.8924 56.5357 50.0929 56.1741 50.2487 55.9279C50.3266 55.8049 50.393 55.7111 50.439 55.6493C50.4621 55.6183 50.4799 55.5955 50.4914 55.5812L50.503 55.567C50.5036 55.5663 50.5038 55.566 50.5038 55.566C50.5038 55.566 50.5035 55.5664 50.503 55.567L50.5012 55.569L50.4967 55.5738L50.4911 55.5795C50.4884 55.582 50.4807 55.589 50.4756 55.5933C50.4635 55.6027 50.3943 55.638 50.333 55.6498C50.2781 55.6299 50.233 55.5959 50.1972 55.5566C50.2428 55.4929 50.2777 55.448 50.2977 55.4232ZM47.5407 58.8606C45.1735 58.6914 43.4228 56.5813 43.6534 54.2366L47.5928 58.176C47.5652 58.4036 47.5478 58.632 47.5407 58.8606ZM48.8385 54.8324C48.5533 55.2558 48.3113 55.7075 48.1163 56.179L44.9144 52.977C46.4435 52.8305 47.9645 53.5245 48.8385 54.8324Z" fill="#8DD6DD" stroke="#8DD6DD" stroke-width="0.5"/>
<path d="M71.25 54.4864C71.25 53.9942 70.851 53.5952 70.3588 53.5952C69.8667 53.5952 69.4677 53.9942 69.4677 54.4864V61.3716C69.4677 63.332 67.8724 64.9273 65.912 64.9273H65.9036H65.8946H65.885H65.8747H65.8638H65.8524H65.8403H65.8276H65.8143H65.8004H65.7859H65.7709H65.7552H65.7389H65.7221H65.7046H65.6866H65.668H65.6488H65.629H65.6087H65.5878H65.5663H65.5443H65.5217H65.4985H65.4748H65.4505H65.4257H65.4003H65.3744H65.3479H65.3209H65.2933H65.2652H65.2366H65.2074H65.1777H65.1474H65.1167H65.0854H65.0536H65.0212H64.9884H64.955H64.9211H64.8867H64.8518H64.8164H64.7805H64.7441H64.7072H64.6698H64.6319H64.5935H64.5546H64.5153H64.4754H64.4351H64.3943H64.353H64.3112H64.269H64.2263H64.1831H64.1395H64.0954H64.0509H64.0059H63.9604H63.9145H63.8681H63.8213H63.7741H63.7264H63.6782H63.6297H63.5807H63.5312H63.4813H63.431H63.3803H63.3292H63.2776H63.2256H63.1732H63.1204H63.0672H63.0135H62.9595H62.9051H62.8502H62.795H62.7393H62.6833H62.6269H62.5701H62.5129H62.4553H62.3973H62.339H62.2802H62.2211H62.1617H62.1018H62.0416H61.9811H61.9201H61.8588H61.7972H61.7352H61.6728H61.6101H61.5471H61.4837H61.4199H61.3559H61.2914H61.2267H61.1616H61.0962H61.0304H60.9644H60.898H60.8313H60.7642H60.6969H60.6292H60.5612H60.493H60.4244H60.3555H60.2863H60.2168H60.147H60.0769H60.0065H59.9359H59.8649H59.7937H59.7222H59.6504H59.5783H59.5059H59.4333H59.3604H59.2873H59.2138H59.1402H59.0662H58.992H58.9176H58.8428H58.7679H58.6927H58.6172H58.5415H58.4656H58.3894H58.313H58.2363H58.1595H58.0824H58.005H57.9275H57.8497H57.7717H57.6935H57.6151H57.5364H57.4576H57.3785H57.2993H57.2198H57.1401H57.0603H56.9802H56.9H56.8196H56.7389H56.6581H56.5772H56.496H56.4146H56.3331H56.2514H56.1696H56.0875H56.0054H55.923H55.8405H55.7578H55.675H55.592H55.5089H55.4256H55.3421H55.2586H55.1749H55.091H55.007H54.9229H54.8386H54.7543H54.6698H54.5851H54.5004H54.4155H54.3305H54.2454H54.1602H54.0749H53.9894H53.9039H53.8183H53.7325H53.6467H53.5608H53.4747H53.3886H53.3024H53.2161H53.1298H53.0433H52.9568H52.8702H52.7835H52.6968H52.61H52.5231H52.4361H52.3491H52.2621H52.175H52.0878H52.0006H51.9133H51.826H51.7386H51.6512H51.5638H51.4763H51.3888H51.3013H51.2137H51.1261H51.0385H50.9508H50.8632H50.7755H50.6878H50.6001H50.5124H50.4246H50.3369H50.2492H50.1614H50.0737H49.986H49.8983H49.8106H49.7229H49.6352H49.5475H49.4599H49.3722H49.2846H49.1971H49.1095H49.022H48.9345H48.8471H48.7597H48.6723H48.585H48.4977H48.4105H48.3234H48.2362H48.1492H48.0622H47.9752H47.8883H47.8015H47.7148H47.6281H47.5415H47.455H47.3685H47.2822H47.1959H47.1097H47.0236H46.9375H46.8516H46.7658H46.68H46.5944H46.5088H46.4234H46.3381H46.2529H46.1677H46.0828H45.9979H45.9131H45.8285H45.744H45.6596H45.5753H45.4912H45.4072H45.3234H45.2396H45.1561H45.0726H44.9894H44.9062H44.8232H44.7404H44.6577H44.5752H44.4928H44.4106H44.3286H44.2467H44.165H44.0835H44.0022H43.921H43.84H43.7592H43.6786H43.5981H43.5179H43.4378H43.358H43.2783H43.1988H43.1196H43.0405H42.9617H42.883H42.8046H42.7264H42.6484H42.5706H42.493H42.4157H42.3386H42.2617H42.185H42.1086H42.0324H41.9565H41.8808H41.8053H41.7301H41.6551H41.5804H41.5059H41.4317H41.3578H41.2841H41.2107H41.1375H41.0646H40.992H40.9196H40.8475H40.7757H40.7042H40.6329H40.562H40.4913H40.4209H40.3508H40.281H40.2115H40.1423H40.0734H40.0048H39.9365H39.8686H39.8009H39.7335H39.6665H39.5998H39.5334H39.4673H39.4015H39.3361H39.271H39.2062H39.1418H39.0777H39.014H38.9506H38.8875H38.8248H38.7624H38.7004H38.6387H38.5774H38.5165H38.4559H38.3957H38.3359H38.2764H38.2173H38.1585H38.1002H38.0422H37.9846H37.9274H37.8706H37.8142H37.7581H37.7025H37.6472H37.5923H37.5379H37.4838H37.4302H37.377H37.3241H37.2717H37.2197H37.1681H37.117H37.0662H37.0159H36.966H36.9166H36.8676H36.819H36.7708H36.7231H36.6759H36.629H36.5827H36.5367H36.4913H36.4462H36.4017H36.3576H36.3139H36.2708H36.2281H36.1858H36.144H36.1027H36.0619H36.0216H35.9817H35.9423H35.9035H35.8651H35.8271H35.7897H35.7528H35.7164H35.6805H35.645H35.6101H35.5757H35.5418H35.5084H35.4756H35.4432H35.4114H35.3801H35.3493H35.319H35.2893H35.2601H35.2315H35.2033H35.1758H35.1487H35.1222H35.0963H35.0709H35.046H35.0217H34.998H34.9748H34.9522H34.9301H34.9086H34.8877H34.8674H34.8476H34.8284H34.8098H34.7917H34.7743H34.7574H34.7411H34.7254H34.7103H34.6958H34.6819H34.6686H34.6559H34.6438H34.6323H34.6215H34.6112H34.6015H34.5925H34.5841C32.6237 64.9273 31.0284 63.332 31.0284 61.3716V41.6678C31.0284 41.1756 30.6294 40.7766 30.1372 40.7766C29.6451 40.7766 29.2461 41.1756 29.2461 41.6678V61.3716C29.2461 64.3152 31.6405 66.7096 34.5841 66.7096H45.5769V71.6079C45.5769 72.1001 45.9759 72.499 46.4681 72.499H54.028C54.5202 72.499 54.9192 72.1001 54.9192 71.6079V66.7096H65.912C68.8556 66.7096 71.25 64.3151 71.25 61.3716V54.4864ZM53.1369 70.7167H47.3593V66.7096H53.1369V70.7167Z" fill="#8DD6DD" stroke="#8DD6DD" stroke-width="0.5"/>
<path d="M70.3589 52.813C70.8511 52.813 71.25 52.414 71.25 51.9219V33.5679C71.25 30.6243 68.8557 28.23 65.9121 28.23H34.5842C31.6406 28.23 29.2463 30.6243 29.2463 33.5679V39.1031C29.2463 39.5953 29.6453 39.9943 30.1375 39.9943C30.6296 39.9943 31.0286 39.5953 31.0286 39.1031V33.5679C31.0286 31.6075 32.6238 30.0123 34.5842 30.0123H65.9121C67.8725 30.0123 69.4678 31.6075 69.4678 33.5679V51.9218C69.4677 52.414 69.8667 52.813 70.3589 52.813Z" fill="#8DD6DD" stroke="#8DD6DD" stroke-width="0.5"/>
<path d="M50.0018 14.844C51.0803 14.844 51.9549 13.9694 51.9549 12.8909C51.9549 11.8124 51.0803 10.9377 50.0018 10.9377H50.0004C48.9219 10.9377 48.0481 11.8124 48.0481 12.8909C48.0481 13.9694 48.9231 14.844 50.0018 14.844Z" fill="#8DD6DD"/>
</svg>
