<svg width="100" height="100" viewBox="0 0 100 100" fill="none" xmlns="http://www.w3.org/2000/svg">
<path d="M59.1867 12.0275C58.1365 11.7746 57.083 12.4201 56.8302 13.4685C56.5775 14.5172 57.2226 15.5722 58.2712 15.825C74.1009 19.6416 85.1563 33.695 85.1563 50.0004C85.1563 69.3855 69.3853 85.1563 50.0002 85.1563C30.6151 85.1563 14.8441 69.3855 14.8441 50.0004C14.8441 33.6946 25.9001 19.6412 41.7305 15.825C42.7791 15.5722 43.4242 14.5172 43.1715 13.4685C42.9188 12.4201 41.8645 11.7746 40.8151 12.0275C32.4397 14.0467 24.8518 18.8877 19.4489 25.6591C13.8808 32.6374 10.9378 41.0548 10.9378 50.0006C10.9378 71.5396 28.4612 89.0628 50.0002 89.0628C71.5392 89.0628 89.0625 71.5396 89.0625 50.0006C89.0625 41.055 86.1198 32.6382 80.552 25.6597C75.1495 18.888 67.5616 14.0467 59.1867 12.0275Z" fill="#8DD6DD"/>
<path d="M98.8227 45.303L96.5379 41.0401L96.9192 35.7698C97.2852 32.3915 95.9377 29.095 93.31 26.9448L89.5171 23.839L88.0251 19.3445C87.1895 15.908 84.5794 13.1461 81.1933 12.1232L76.5114 10.7088L72.9259 6.56406C70.8042 4.06856 67.5929 2.77091 64.3357 3.09044L59.4762 3.57462L54.6996 1.17854C51.7559 -0.390599 48.2461 -0.391771 45.3016 1.17834L41.0389 3.4631L35.7688 3.08204C32.3907 2.71427 29.0939 4.06329 26.9437 6.69121L23.8378 10.4842L19.3433 11.9761C15.9068 12.8115 13.1449 15.4214 12.1219 18.8076L10.7078 23.4894L6.56269 27.0751C4.06759 29.197 2.76896 32.4075 3.08947 35.6653L3.57364 40.5247L1.17756 45.3016C-0.391771 48.2451 -0.393138 51.7549 1.17717 54.699L3.46193 58.9621L3.08087 64.2322C2.71447 67.6101 4.06192 70.9068 6.69004 73.0572L10.483 76.1628L11.975 80.6577C12.8105 84.0942 15.4205 86.8561 18.8068 87.8792L23.4886 89.2932L27.0741 93.4379C29.1956 95.9332 32.4056 97.2309 35.6645 96.9116L40.5237 96.4272L45.3 98.8233C46.7725 99.6086 48.3862 100.001 50.0002 100.001C51.6131 100.001 53.2264 99.6088 54.6981 98.8239L58.9611 96.5391L64.2308 96.9201C67.6089 97.2871 70.9062 95.9395 73.0562 93.3112L76.162 89.518L80.6567 88.026C84.0932 87.1909 86.855 84.5807 87.8782 81.1942L89.2923 76.5126L93.437 72.9271C95.9323 70.8054 97.2311 67.5949 96.9106 64.3367L96.4264 59.4775L98.8223 54.7012C100.392 51.7574 100.393 48.2477 98.8227 45.303ZM95.367 52.8787C95.3584 52.8945 95.35 52.9106 95.342 52.9268L92.6807 58.2322C92.5149 58.5627 92.4463 58.9336 92.4829 59.3015L93.0231 64.7214C93.218 66.7035 92.4268 68.6585 90.8938 69.9621L86.3083 73.929C86.0286 74.1708 85.8235 74.4872 85.7165 74.8413L84.1386 80.0647C83.5095 82.1477 81.8003 83.7489 79.678 84.2436C79.62 84.2571 79.5626 84.2733 79.5062 84.2921L74.3943 85.9889C74.0433 86.1055 73.7325 86.3192 73.4984 86.6051L70.0331 90.837C68.7173 92.4452 66.6961 93.2674 64.6271 93.0338C64.6013 93.0309 64.5754 93.0286 64.5498 93.0268L58.6781 92.6022C58.3078 92.5747 57.9406 92.654 57.6146 92.8288L52.8563 95.3791C51.0615 96.3358 48.918 96.3319 47.1225 95.3682C47.1067 95.3596 47.0907 95.3512 47.0746 95.3432L41.7692 92.6817C41.4965 92.545 41.1965 92.4743 40.8934 92.4743C40.829 92.4743 40.7643 92.4776 40.6997 92.4838L35.2798 93.0243C33.3003 93.218 31.3431 92.428 30.0394 90.895L26.0722 86.3094C25.8304 86.0298 25.514 85.8247 25.1599 85.7177L19.9363 84.1397C17.8535 83.5106 16.2523 81.8015 15.7574 79.6792C15.7439 79.6212 15.7277 79.5638 15.7089 79.5073L14.0121 74.3952C13.8955 74.0443 13.682 73.7337 13.3959 73.4993L9.16425 70.0345C7.55585 68.7183 6.73437 66.6972 6.96719 64.6283C6.97011 64.6025 6.97246 64.5765 6.97422 64.5509L7.39882 58.6793C7.42558 58.3103 7.34687 57.9416 7.17226 57.6158L4.62188 52.8574C3.66485 51.0629 3.66896 48.9196 4.63301 47.1239C4.64141 47.108 4.64981 47.092 4.65782 47.0758L7.31914 41.7702C7.48496 41.4397 7.55351 41.0688 7.51699 40.7008L6.97695 35.2807C6.78203 33.2989 7.57324 31.3438 9.10585 30.0401L13.6914 26.0732C13.9713 25.8314 14.1763 25.515 14.2834 25.1609L15.8613 19.9373C16.4904 17.8544 18.1996 16.2533 20.3218 15.7584C20.3798 15.7449 20.4373 15.7287 20.4937 15.7099L25.6056 14.0131C25.9566 13.8965 26.2673 13.6828 26.5015 13.3968L29.9665 9.16522C31.2825 7.55683 33.3036 6.73476 35.3727 6.96816C35.3985 6.97109 35.4245 6.97343 35.4501 6.97519L41.3217 7.3998C41.6913 7.42597 42.0594 7.34804 42.3854 7.17324L47.1434 4.62286C48.9377 3.66583 51.0813 3.66974 52.8774 4.63379C52.8932 4.64219 52.909 4.65059 52.925 4.6586L58.2305 7.32011C58.5611 7.48613 58.9324 7.55371 59.3 7.51796L64.7203 6.97773C66.7009 6.78379 68.6572 7.57402 69.9607 9.10702L73.9279 13.6925C74.1697 13.9722 74.4861 14.1773 74.84 14.2841L80.0636 15.8625C82.1466 16.4916 83.7477 18.2007 84.2425 20.323C84.2559 20.381 84.2722 20.4384 84.2909 20.4949L85.9878 25.6068C86.1044 25.9577 86.318 26.2685 86.604 26.5027L90.8356 29.9675C92.444 31.2835 93.2653 33.3048 93.0327 35.3741C93.0297 35.3999 93.0274 35.4257 93.0256 35.4514L92.6008 41.3229C92.5741 41.6918 92.6528 42.0606 92.8274 42.3864L95.378 47.145C96.3352 48.9393 96.3311 51.0826 95.367 52.8787Z" fill="#8DD6DD"/>
<g clip-path="url(#clip0)">
<mask id="path-3-outside-1" maskUnits="userSpaceOnUse" x="25.5791" y="24" width="49" height="52" fill="black">
<rect fill="white" x="25.5791" y="24" width="49" height="52"/>
<path d="M72.2408 45.2593L71.0046 43.4742C69.0693 40.6792 65.9235 38.9751 62.5383 38.8704L49.4845 25.8165C48.5737 24.9058 47.2188 24.7401 46.1127 25.4043C45.011 26.066 44.5226 27.335 44.8972 28.5621C45.8774 31.7723 47.6328 34.6442 49.9864 36.9584L43.4737 35.2133C42.2299 34.8801 40.9733 35.414 40.3475 36.5421C39.7243 37.666 39.9357 39.0092 40.8738 39.8846C44.4414 43.214 49.1784 45.1276 54.0507 45.247C53.8901 45.8949 53.8032 46.5718 53.8032 47.2686C53.8032 47.3155 53.8061 47.3618 53.8068 47.4086H44.2456C42.1586 47.4086 40.1531 47.8632 38.2846 48.7596C37.7983 48.9929 37.5933 49.5763 37.8267 50.0625C37.9947 50.4125 38.3439 50.6169 38.7078 50.6169C38.8494 50.6169 38.9933 50.586 39.1296 50.5207C40.7321 49.7517 42.4535 49.3618 44.2456 49.3618H54.0671C54.9996 52.9862 58.2954 55.6724 62.2068 55.6724H66.6018C66.2412 58.7596 65.0237 61.6463 63.0826 64.0506V63.0534C63.0826 62.5141 62.6452 62.0769 62.106 62.0769C61.5667 62.0769 61.1294 62.5141 61.1294 63.0534V69.5157C61.1294 70.055 61.5667 70.4922 62.106 70.4922C63.7145 70.4922 65.0751 71.5733 65.4999 73.0469H59.8127L57.5061 63.908C57.3741 63.3851 56.8431 63.0681 56.3202 63.2001C55.7974 63.3321 55.4803 63.863 55.6123 64.3859L56.7425 68.8637C55.813 69.2626 54.8501 69.574 53.8635 69.7943C53.2117 69.2559 52.4343 68.8646 51.582 68.6727C51.682 68.0515 51.7025 67.4191 51.6432 66.7823C51.2891 62.9885 48.13 60.0168 44.4511 60.0168C42.4014 60.0168 40.473 60.7761 39.021 62.1551C37.5409 63.5608 36.7257 65.4545 36.7257 67.4873C36.7257 68.7568 37.0434 69.953 37.6016 71.0027C34.4664 68.87 32.4032 65.2737 32.4032 61.2044C32.4032 59.4597 32.7735 57.78 33.5038 56.2117C33.7315 55.7227 33.5198 55.1418 33.0308 54.9142C32.5415 54.6865 31.9608 54.8982 31.7333 55.3872C30.8818 57.2156 30.4501 59.1728 30.4501 61.2045C30.4501 62.2572 30.569 63.2823 30.7934 64.268C28.3826 64.824 26.5791 66.9867 26.5791 69.564C26.5791 72.5615 29.0177 75.0002 32.0152 75.0002C33.8258 75.0002 35.509 74.0797 36.5087 72.6208C38.7129 74.1193 41.3714 74.9971 44.2311 75C44.2335 75 44.2359 75.0002 44.2383 75.0002H54.8841C55.4233 75.0002 55.8606 74.563 55.8606 74.0236C55.8606 73.1002 55.6304 72.2298 55.2255 71.4655C55.9047 71.2756 56.5722 71.046 57.2257 70.7787L58.105 74.2626C58.2144 74.6963 58.6046 75.0002 59.0518 75.0002H66.6138C67.153 75.0002 67.5903 74.563 67.5903 74.0236C67.5903 71.3327 65.6425 69.0882 63.0826 68.6264V66.9433C66.2591 63.8615 68.1938 59.8084 68.5911 55.4209C71.3749 54.6323 73.4209 52.07 73.4209 49.0371C73.4209 47.6806 73.0129 46.3744 72.2408 45.2593ZM32.0151 73.0469C30.0946 73.0469 28.5321 71.4844 28.5321 69.5638C28.5321 67.8656 29.754 66.4483 31.3645 66.1426C32.1444 68.1699 33.3889 69.9684 34.9682 71.4059C34.3392 72.4071 33.2223 73.0469 32.0151 73.0469ZM44.2455 73.0469C44.2406 73.0469 44.2359 73.0467 44.2311 73.0467C41.1688 73.0428 38.6787 70.5503 38.6787 67.4872C38.6787 64.3933 41.2142 61.9698 44.451 61.9698C47.1322 61.9698 49.4372 64.1633 49.6984 66.9637C49.7698 67.7293 49.6852 68.4854 49.4469 69.2111C49.3493 69.5086 49.4002 69.8349 49.5838 70.0885C49.7674 70.3421 50.0617 70.4923 50.3748 70.4923H50.3764C51.9848 70.4923 53.3455 71.5734 53.7702 73.047H44.2455V73.0469ZM46.7651 27.9918C46.5973 27.4421 46.9931 27.1539 47.1183 27.0786C47.2454 27.0024 47.6916 26.7855 48.1034 27.1975L60.0522 39.1463C59.7595 39.2241 59.4736 39.318 59.1943 39.4257L54.8844 38.2709C50.9692 35.9679 48.0866 32.3196 46.7651 27.9918ZM42.2063 38.4568C41.7861 38.0647 41.9846 37.6173 42.0556 37.4894C42.1274 37.3599 42.4054 36.9491 42.9682 37.0999L56.8319 40.8147C56.0074 41.5026 55.3162 42.3448 54.8033 43.297C50.1614 43.3666 45.597 41.6212 42.2063 38.4568ZM66.7854 53.7193H62.2068C58.65 53.7193 55.7563 50.8256 55.7563 47.2688C55.7563 43.712 58.65 40.8183 62.2068 40.8183C65.0766 40.8183 67.7652 42.2268 69.3989 44.5861L70.6349 46.3711C71.1797 47.158 71.4677 48.0799 71.4677 49.0369C71.4678 51.6188 69.3673 53.7193 66.7854 53.7193Z"/>
</mask>
<path d="M72.2408 45.2593L71.0046 43.4742C69.0693 40.6792 65.9235 38.9751 62.5383 38.8704L49.4845 25.8165C48.5737 24.9058 47.2188 24.7401 46.1127 25.4043C45.011 26.066 44.5226 27.335 44.8972 28.5621C45.8774 31.7723 47.6328 34.6442 49.9864 36.9584L43.4737 35.2133C42.2299 34.8801 40.9733 35.414 40.3475 36.5421C39.7243 37.666 39.9357 39.0092 40.8738 39.8846C44.4414 43.214 49.1784 45.1276 54.0507 45.247C53.8901 45.8949 53.8032 46.5718 53.8032 47.2686C53.8032 47.3155 53.8061 47.3618 53.8068 47.4086H44.2456C42.1586 47.4086 40.1531 47.8632 38.2846 48.7596C37.7983 48.9929 37.5933 49.5763 37.8267 50.0625C37.9947 50.4125 38.3439 50.6169 38.7078 50.6169C38.8494 50.6169 38.9933 50.586 39.1296 50.5207C40.7321 49.7517 42.4535 49.3618 44.2456 49.3618H54.0671C54.9996 52.9862 58.2954 55.6724 62.2068 55.6724H66.6018C66.2412 58.7596 65.0237 61.6463 63.0826 64.0506V63.0534C63.0826 62.5141 62.6452 62.0769 62.106 62.0769C61.5667 62.0769 61.1294 62.5141 61.1294 63.0534V69.5157C61.1294 70.055 61.5667 70.4922 62.106 70.4922C63.7145 70.4922 65.0751 71.5733 65.4999 73.0469H59.8127L57.5061 63.908C57.3741 63.3851 56.8431 63.0681 56.3202 63.2001C55.7974 63.3321 55.4803 63.863 55.6123 64.3859L56.7425 68.8637C55.813 69.2626 54.8501 69.574 53.8635 69.7943C53.2117 69.2559 52.4343 68.8646 51.582 68.6727C51.682 68.0515 51.7025 67.4191 51.6432 66.7823C51.2891 62.9885 48.13 60.0168 44.4511 60.0168C42.4014 60.0168 40.473 60.7761 39.021 62.1551C37.5409 63.5608 36.7257 65.4545 36.7257 67.4873C36.7257 68.7568 37.0434 69.953 37.6016 71.0027C34.4664 68.87 32.4032 65.2737 32.4032 61.2044C32.4032 59.4597 32.7735 57.78 33.5038 56.2117C33.7315 55.7227 33.5198 55.1418 33.0308 54.9142C32.5415 54.6865 31.9608 54.8982 31.7333 55.3872C30.8818 57.2156 30.4501 59.1728 30.4501 61.2045C30.4501 62.2572 30.569 63.2823 30.7934 64.268C28.3826 64.824 26.5791 66.9867 26.5791 69.564C26.5791 72.5615 29.0177 75.0002 32.0152 75.0002C33.8258 75.0002 35.509 74.0797 36.5087 72.6208C38.7129 74.1193 41.3714 74.9971 44.2311 75C44.2335 75 44.2359 75.0002 44.2383 75.0002H54.8841C55.4233 75.0002 55.8606 74.563 55.8606 74.0236C55.8606 73.1002 55.6304 72.2298 55.2255 71.4655C55.9047 71.2756 56.5722 71.046 57.2257 70.7787L58.105 74.2626C58.2144 74.6963 58.6046 75.0002 59.0518 75.0002H66.6138C67.153 75.0002 67.5903 74.563 67.5903 74.0236C67.5903 71.3327 65.6425 69.0882 63.0826 68.6264V66.9433C66.2591 63.8615 68.1938 59.8084 68.5911 55.4209C71.3749 54.6323 73.4209 52.07 73.4209 49.0371C73.4209 47.6806 73.0129 46.3744 72.2408 45.2593ZM32.0151 73.0469C30.0946 73.0469 28.5321 71.4844 28.5321 69.5638C28.5321 67.8656 29.754 66.4483 31.3645 66.1426C32.1444 68.1699 33.3889 69.9684 34.9682 71.4059C34.3392 72.4071 33.2223 73.0469 32.0151 73.0469ZM44.2455 73.0469C44.2406 73.0469 44.2359 73.0467 44.2311 73.0467C41.1688 73.0428 38.6787 70.5503 38.6787 67.4872C38.6787 64.3933 41.2142 61.9698 44.451 61.9698C47.1322 61.9698 49.4372 64.1633 49.6984 66.9637C49.7698 67.7293 49.6852 68.4854 49.4469 69.2111C49.3493 69.5086 49.4002 69.8349 49.5838 70.0885C49.7674 70.3421 50.0617 70.4923 50.3748 70.4923H50.3764C51.9848 70.4923 53.3455 71.5734 53.7702 73.047H44.2455V73.0469ZM46.7651 27.9918C46.5973 27.4421 46.9931 27.1539 47.1183 27.0786C47.2454 27.0024 47.6916 26.7855 48.1034 27.1975L60.0522 39.1463C59.7595 39.2241 59.4736 39.318 59.1943 39.4257L54.8844 38.2709C50.9692 35.9679 48.0866 32.3196 46.7651 27.9918ZM42.2063 38.4568C41.7861 38.0647 41.9846 37.6173 42.0556 37.4894C42.1274 37.3599 42.4054 36.9491 42.9682 37.0999L56.8319 40.8147C56.0074 41.5026 55.3162 42.3448 54.8033 43.297C50.1614 43.3666 45.597 41.6212 42.2063 38.4568ZM66.7854 53.7193H62.2068C58.65 53.7193 55.7563 50.8256 55.7563 47.2688C55.7563 43.712 58.65 40.8183 62.2068 40.8183C65.0766 40.8183 67.7652 42.2268 69.3989 44.5861L70.6349 46.3711C71.1797 47.158 71.4677 48.0799 71.4677 49.0369C71.4678 51.6188 69.3673 53.7193 66.7854 53.7193Z" fill="#8DD6DD"/>
<path d="M72.2408 45.2593L71.0046 43.4742C69.0693 40.6792 65.9235 38.9751 62.5383 38.8704L49.4845 25.8165C48.5737 24.9058 47.2188 24.7401 46.1127 25.4043C45.011 26.066 44.5226 27.335 44.8972 28.5621C45.8774 31.7723 47.6328 34.6442 49.9864 36.9584L43.4737 35.2133C42.2299 34.8801 40.9733 35.414 40.3475 36.5421C39.7243 37.666 39.9357 39.0092 40.8738 39.8846C44.4414 43.214 49.1784 45.1276 54.0507 45.247C53.8901 45.8949 53.8032 46.5718 53.8032 47.2686C53.8032 47.3155 53.8061 47.3618 53.8068 47.4086H44.2456C42.1586 47.4086 40.1531 47.8632 38.2846 48.7596C37.7983 48.9929 37.5933 49.5763 37.8267 50.0625C37.9947 50.4125 38.3439 50.6169 38.7078 50.6169C38.8494 50.6169 38.9933 50.586 39.1296 50.5207C40.7321 49.7517 42.4535 49.3618 44.2456 49.3618H54.0671C54.9996 52.9862 58.2954 55.6724 62.2068 55.6724H66.6018C66.2412 58.7596 65.0237 61.6463 63.0826 64.0506V63.0534C63.0826 62.5141 62.6452 62.0769 62.106 62.0769C61.5667 62.0769 61.1294 62.5141 61.1294 63.0534V69.5157C61.1294 70.055 61.5667 70.4922 62.106 70.4922C63.7145 70.4922 65.0751 71.5733 65.4999 73.0469H59.8127L57.5061 63.908C57.3741 63.3851 56.8431 63.0681 56.3202 63.2001C55.7974 63.3321 55.4803 63.863 55.6123 64.3859L56.7425 68.8637C55.813 69.2626 54.8501 69.574 53.8635 69.7943C53.2117 69.2559 52.4343 68.8646 51.582 68.6727C51.682 68.0515 51.7025 67.4191 51.6432 66.7823C51.2891 62.9885 48.13 60.0168 44.4511 60.0168C42.4014 60.0168 40.473 60.7761 39.021 62.1551C37.5409 63.5608 36.7257 65.4545 36.7257 67.4873C36.7257 68.7568 37.0434 69.953 37.6016 71.0027C34.4664 68.87 32.4032 65.2737 32.4032 61.2044C32.4032 59.4597 32.7735 57.78 33.5038 56.2117C33.7315 55.7227 33.5198 55.1418 33.0308 54.9142C32.5415 54.6865 31.9608 54.8982 31.7333 55.3872C30.8818 57.2156 30.4501 59.1728 30.4501 61.2045C30.4501 62.2572 30.569 63.2823 30.7934 64.268C28.3826 64.824 26.5791 66.9867 26.5791 69.564C26.5791 72.5615 29.0177 75.0002 32.0152 75.0002C33.8258 75.0002 35.509 74.0797 36.5087 72.6208C38.7129 74.1193 41.3714 74.9971 44.2311 75C44.2335 75 44.2359 75.0002 44.2383 75.0002H54.8841C55.4233 75.0002 55.8606 74.563 55.8606 74.0236C55.8606 73.1002 55.6304 72.2298 55.2255 71.4655C55.9047 71.2756 56.5722 71.046 57.2257 70.7787L58.105 74.2626C58.2144 74.6963 58.6046 75.0002 59.0518 75.0002H66.6138C67.153 75.0002 67.5903 74.563 67.5903 74.0236C67.5903 71.3327 65.6425 69.0882 63.0826 68.6264V66.9433C66.2591 63.8615 68.1938 59.8084 68.5911 55.4209C71.3749 54.6323 73.4209 52.07 73.4209 49.0371C73.4209 47.6806 73.0129 46.3744 72.2408 45.2593ZM32.0151 73.0469C30.0946 73.0469 28.5321 71.4844 28.5321 69.5638C28.5321 67.8656 29.754 66.4483 31.3645 66.1426C32.1444 68.1699 33.3889 69.9684 34.9682 71.4059C34.3392 72.4071 33.2223 73.0469 32.0151 73.0469ZM44.2455 73.0469C44.2406 73.0469 44.2359 73.0467 44.2311 73.0467C41.1688 73.0428 38.6787 70.5503 38.6787 67.4872C38.6787 64.3933 41.2142 61.9698 44.451 61.9698C47.1322 61.9698 49.4372 64.1633 49.6984 66.9637C49.7698 67.7293 49.6852 68.4854 49.4469 69.2111C49.3493 69.5086 49.4002 69.8349 49.5838 70.0885C49.7674 70.3421 50.0617 70.4923 50.3748 70.4923H50.3764C51.9848 70.4923 53.3455 71.5734 53.7702 73.047H44.2455V73.0469ZM46.7651 27.9918C46.5973 27.4421 46.9931 27.1539 47.1183 27.0786C47.2454 27.0024 47.6916 26.7855 48.1034 27.1975L60.0522 39.1463C59.7595 39.2241 59.4736 39.318 59.1943 39.4257L54.8844 38.2709C50.9692 35.9679 48.0866 32.3196 46.7651 27.9918ZM42.2063 38.4568C41.7861 38.0647 41.9846 37.6173 42.0556 37.4894C42.1274 37.3599 42.4054 36.9491 42.9682 37.0999L56.8319 40.8147C56.0074 41.5026 55.3162 42.3448 54.8033 43.297C50.1614 43.3666 45.597 41.6212 42.2063 38.4568ZM66.7854 53.7193H62.2068C58.65 53.7193 55.7563 50.8256 55.7563 47.2688C55.7563 43.712 58.65 40.8183 62.2068 40.8183C65.0766 40.8183 67.7652 42.2268 69.3989 44.5861L70.6349 46.3711C71.1797 47.158 71.4677 48.0799 71.4677 49.0369C71.4678 51.6188 69.3673 53.7193 66.7854 53.7193Z" stroke="#8DD6DD" stroke-width="1.2" mask="url(#path-3-outside-1)"/>
<path d="M63.1759 45.4838L63.1759 45.4838C63.4143 45.2468 63.7411 45.1104 64.0789 45.1104C64.4153 45.1104 64.7436 45.2464 64.9815 45.4844L63.1759 45.4838ZM63.1759 45.4838L63.1754 45.4844C62.937 45.7228 62.8023 46.0512 62.8023 46.387C62.8023 46.7227 62.937 47.0512 63.1754 47.2895L63.1759 47.2901C63.4143 47.5272 63.7411 47.6635 64.0789 47.6635C64.4159 47.6635 64.7427 47.527 64.9809 47.2901L64.9815 47.2895C65.2191 47.0517 65.3555 46.7235 65.3555 46.387C65.3555 46.0505 65.2193 45.7223 64.9815 45.4845L63.1759 45.4838Z" fill="#8DD6DD" stroke="#8DD6DD" stroke-width="0.6"/>
<path d="M34.2264 53.0949L34.2264 53.0949C34.4643 53.3328 34.7925 53.4689 35.129 53.4689C35.4666 53.4689 35.7938 53.3327 36.0316 53.0949C36.2694 52.8571 36.4056 52.5289 36.4056 52.1924C36.4056 51.8558 36.2692 51.5276 36.0316 51.2899L36.0316 51.2898C35.7938 51.0521 35.4666 50.9158 35.129 50.9158C34.7925 50.9158 34.4643 51.052 34.2264 51.2898C33.9886 51.5276 33.8524 51.8559 33.8524 52.1924C33.8524 52.529 33.9888 52.8571 34.2264 53.0949Z" fill="#8DD6DD" stroke="#8DD6DD" stroke-width="0.6"/>
</g>
<path d="M50.0018 14.844C51.0803 14.844 51.9549 13.9694 51.9549 12.8909C51.9549 11.8124 51.0803 10.9377 50.0018 10.9377H50.0004C48.9219 10.9377 48.0481 11.8124 48.0481 12.8909C48.0481 13.9694 48.9231 14.844 50.0018 14.844Z" fill="#8DD6DD"/>
<defs>
<clipPath id="clip0">
<rect width="50" height="50" fill="white" transform="translate(25 25)"/>
</clipPath>
</defs>
</svg>
