<svg width="74" height="74" viewBox="0 0 74 74" fill="none" xmlns="http://www.w3.org/2000/svg">
<rect opacity="0.5" width="74" height="74" rx="20" fill="#F3F6FA"/>
<path d="M35.3716 23.617V25.5949C29.8993 26.3532 25.927 28.1828 23.4545 31.0837C21.0151 33.9847 19.7953 36.4242 19.7953 38.4021C19.7953 39.8856 20.4547 40.6273 21.7733 40.6273C21.9711 40.6273 22.2018 40.6108 22.4656 40.5779C23.1578 40.5119 23.6194 40.479 23.8501 40.479C25.0039 40.479 26.0753 40.9075 27.0643 41.7646C28.0533 42.5888 28.5477 43.7755 28.5477 45.3249C28.5477 47.138 28.0038 48.5061 26.9159 49.4292C25.8281 50.3192 24.6083 50.7643 23.2567 50.7643C21.2788 50.7643 19.6635 49.9566 18.4108 48.3413C17.1581 46.726 16.5317 44.5173 16.5317 41.7152C16.5317 37.3307 18.2295 33.3254 21.6249 29.6992C25.0534 26.04 29.6356 24.0126 35.3716 23.617ZM57.7719 23.617V25.5949C52.2666 26.3532 48.2942 28.1828 45.8547 31.0837C43.4153 33.9847 42.1956 36.4242 42.1956 38.4021C42.1956 39.8856 42.8384 40.6273 44.124 40.6273C44.3548 40.6273 44.6021 40.6108 44.8658 40.5779C45.5251 40.5119 45.9701 40.479 46.2009 40.479C47.3877 40.479 48.459 40.9075 49.415 41.7646C50.404 42.5888 50.8985 43.7755 50.8985 45.3249C50.8985 47.0392 50.3711 48.3743 49.3162 49.3303C48.2942 50.2863 47.0745 50.7643 45.657 50.7643C43.679 50.7643 42.0472 49.9566 40.7615 48.3413C39.5088 46.726 38.8825 44.5173 38.8825 41.7152C38.8825 37.3307 40.5802 33.3254 43.9757 29.6992C47.4041 26.04 52.0029 24.0126 57.7719 23.617Z" fill="#22324F"/>
</svg>
