<svg width="141" height="59" viewBox="0 0 141 59" fill="none" xmlns="http://www.w3.org/2000/svg">
<g clip-path="url(#clip0)">
<path fill-rule="evenodd" clip-rule="evenodd" d="M78.7807 29.9966H65.6603C64.9645 29.9966 64.2971 30.2724 63.8042 30.7637C63.3114 31.2549 63.0335 31.9215 63.0312 32.6173V36.2813H78.7807V29.9966Z" fill="#A51D26"/>
<path fill-rule="evenodd" clip-rule="evenodd" d="M33.235 22.101L33.3435 21.9341C33.427 21.8005 36.0978 14.1887 42.0654 14.5893C43.4277 14.627 44.7857 14.7581 46.13 14.9816C50.42 15.8162 53.2578 16.3087 57.239 14.5476C58.5562 14.0412 59.7675 13.294 60.8112 12.3442C61.1546 12.0302 61.4727 11.6898 61.7627 11.3259L61.8461 11.2174H61.8044H61.7042C60.3026 10.8098 58.9283 10.3135 57.5895 9.73179C56.7549 9.3729 54.6266 8.32961 53.7001 7.85387C53.5082 7.76206 49.8942 5.49187 46.1885 6.56854C44.1466 7.06591 42.3129 8.193 40.947 9.79021L40.7801 9.90706L41.5145 8.94723C41.7316 8.71354 45.3622 4.68227 40.9804 0C39.5287 1.32341 38.6089 3.13039 38.393 5.0829C38.1758 6.87373 38.4649 8.6896 39.2277 10.3244C39.284 10.4259 39.3512 10.5211 39.428 10.6081C40.3035 9.03882 40.8701 7.31623 41.0972 5.5336C41.2279 4.77133 41.2024 3.99046 41.0221 3.23836H41.0805C42.2741 4.67393 39.8286 10.6415 39.7451 10.8418V10.9337L39.9121 10.8335C42.3041 9.75684 44.8883 9.17245 47.5108 9.11509C50.1334 9.05774 52.7406 9.5286 55.1774 10.4996C53.4116 10.0678 51.6186 9.75552 49.8108 9.56486C46.8933 9.2539 43.9454 9.71738 41.2642 10.9086C39.3236 11.8411 37.6563 13.2583 36.4233 15.0233C35.0962 16.8095 33.3852 19.6055 33.1849 21.7004L33.235 22.101Z" fill="#08793D"/>
<path fill-rule="evenodd" clip-rule="evenodd" d="M81.944 59H129.476C130.975 59 132.46 58.7043 133.845 58.1297C135.23 57.5552 136.488 56.7132 137.547 55.6518C138.606 54.5905 139.445 53.3307 140.017 51.9446C140.588 50.5585 140.88 49.0732 140.877 47.5739C140.877 45.5791 140.819 0.408958 140.819 0.408958L140.443 0.0584135H94.0962C92.4993 0.0573145 90.9179 0.371167 89.4425 0.982006C87.9671 1.59284 86.6266 2.48868 85.4979 3.61822C84.3691 4.74776 83.4742 6.08883 82.8644 7.56466C82.2546 9.04049 81.9418 10.6221 81.944 12.219V59Z" fill="url(#paint0_linear)"/>
<path fill-rule="evenodd" clip-rule="evenodd" d="M103.678 25.4645V17.8694H112.024C113.268 17.78 114.516 17.977 115.671 18.4453C117.132 19.1547 117.483 20.4484 117.341 22.535C117.199 24.6216 115.171 25.3477 112.759 25.4645C109.604 25.6148 103.678 25.4645 103.678 25.4645ZM103.678 40.2876C103.657 40.0683 103.657 39.8475 103.678 39.6282V31.6241H113.693C114.676 31.4653 115.682 31.6724 116.522 32.2062C117.362 32.74 117.977 33.5634 118.25 34.5203C118.355 35.1832 118.413 35.8525 118.426 36.5234C118.495 37.4316 118.244 38.3354 117.717 39.0779C117.189 39.8204 116.418 40.3547 115.538 40.588C115.25 40.6815 114.948 40.7267 114.645 40.7216L105.213 40.9636C104.972 40.9866 104.729 40.9866 104.487 40.9636C104.012 40.8969 103.795 40.7466 103.711 40.2876H103.678ZM96.8254 15.3739L96.8755 47.2484C96.8755 47.2484 108.61 47.5989 113.568 47.3652C117.967 47.1566 122.807 45.9964 125.086 41.3142C126.38 38.6684 126.138 34.2365 125.086 32.0665C124.572 31.1848 123.924 30.388 123.166 29.7045C122.416 29.1513 121.633 28.6441 120.821 28.1854L121.071 27.9684C127.047 24.0123 125.862 13.6378 118.033 12.1939C116.958 11.9368 115.864 11.7665 114.762 11.6848C112.642 11.5262 105.147 11.6848 100.339 11.6848C100.033 11.6686 99.7264 11.714 99.4378 11.8183C98.8374 11.9977 98.2954 12.3334 97.8672 12.7909C97.439 13.2484 97.14 13.8114 97.0007 14.4224C96.8839 14.7252 96.8355 15.0501 96.8588 15.3739H96.8254Z" fill="#FDFDFD"/>
<path fill-rule="evenodd" clip-rule="evenodd" d="M39.9788 29.7546C39.5281 35.1212 39.8119 41.6981 45.4373 42.1488C46.3747 42.1385 47.3023 41.9574 48.1749 41.6147C50.6787 40.2626 51.6386 36.9992 51.8389 34.1698C52.2312 28.561 50.1696 22.9941 44.3272 24.3879C43.1261 24.704 42.0569 25.3948 41.275 26.3598C40.493 27.3248 40.039 28.514 39.9788 29.7546ZM7.84552 35.8891H0C0 35.8891 0.375584 38.1176 0.742821 39.5531C2.73759 47.2568 10.6081 49.3767 18.0197 48.7341C25.4312 48.0914 30.1719 45.454 31.307 38.1176C31.6548 35.8323 31.2721 33.4955 30.2136 31.4405C29.838 30.7227 28.344 28.5193 27.2924 28.0185C25.0389 26.5412 19.4385 25.3644 17.6524 24.8052L12.219 23.136C11.1006 22.7854 5.43344 20.6821 10.1908 16.2586C12.3609 14.5893 15.2737 14.6811 17.4938 15.2821C18.5575 15.5154 19.5548 15.9856 20.4117 16.6575C21.2685 17.3294 21.9629 18.1858 22.4432 19.1631C22.473 19.1763 22.5037 19.1875 22.535 19.1965C22.7344 19.4902 22.9548 19.7692 23.1944 20.0311C23.6757 20.4057 24.2558 20.632 24.8636 20.6821C26.5329 20.824 30.1218 20.6821 30.1218 20.6821C30.1218 20.6821 29.9549 19.0129 29.7629 17.9696C29.3813 16.1702 28.5766 14.4875 27.4155 13.0608C26.2544 11.6341 24.7703 10.5044 23.0859 9.76518C17.7526 7.51168 7.34474 7.78711 3.16325 12.8867C1.99954 14.3644 1.20976 16.1012 0.861019 17.9495C0.512281 19.7978 0.614893 21.703 1.16014 23.5032C2.15335 27.0838 4.12307 28.8281 7.51167 30.0467C10.4496 31.1234 14.7646 31.7159 17.9529 32.8177C20.2815 33.6523 22.4933 34.4869 23.4448 36.4733C24.2126 38.0758 23.3947 39.912 21.909 40.9553C19.5721 42.6246 15.5325 42.6663 12.4944 41.5562C11.3264 41.2221 10.2819 40.5532 9.48981 39.6321C8.69774 38.711 8.19285 37.578 8.03749 36.3732C7.90395 36.0894 7.84552 35.8891 7.84552 35.8891ZM32.5506 28.6946C31.4739 34.2198 32.3753 41.7315 36.4984 45.2119C41.3977 49.3851 49.8525 49.3851 54.3177 45.8629C55.804 44.6643 56.9901 43.1353 57.7814 41.3977C58.349 40.2125 60.2853 35.3883 58.9332 27.8349C57.264 20.9826 52.1811 17.0682 44.6694 17.6024C37.8839 18.0948 33.9444 21.4667 32.5506 28.6946Z" fill="#203658"/>
</g>
<defs>
<linearGradient id="paint0_linear" x1="128.575" y1="10.6332" x2="93.6371" y2="49.577" gradientUnits="userSpaceOnUse">
<stop stop-color="#A71D28"/>
<stop offset="0.5" stop-color="#EA1F24"/>
<stop offset="1" stop-color="#A71D28"/>
</linearGradient>
<clipPath id="clip0">
<rect width="140.877" height="59" fill="white"/>
</clipPath>
</defs>
</svg>
