<svg width="100" height="100" viewBox="0 0 100 100" fill="none" xmlns="http://www.w3.org/2000/svg">
<path d="M59.1867 12.0275C58.1365 11.7746 57.083 12.4201 56.8302 13.4685C56.5775 14.5172 57.2226 15.5722 58.2712 15.825C74.1009 19.6416 85.1563 33.695 85.1563 50.0004C85.1563 69.3855 69.3853 85.1563 50.0002 85.1563C30.6151 85.1563 14.8441 69.3855 14.8441 50.0004C14.8441 33.6946 25.9001 19.6412 41.7305 15.825C42.7791 15.5722 43.4242 14.5172 43.1715 13.4685C42.9188 12.4201 41.8645 11.7746 40.8151 12.0275C32.4397 14.0467 24.8518 18.8877 19.4489 25.6591C13.8808 32.6374 10.9378 41.0548 10.9378 50.0006C10.9378 71.5396 28.4612 89.0628 50.0002 89.0628C71.5392 89.0628 89.0625 71.5396 89.0625 50.0006C89.0625 41.055 86.1198 32.6382 80.552 25.6597C75.1495 18.888 67.5616 14.0467 59.1867 12.0275Z" fill="#8DD6DD"/>
<path d="M98.8227 45.303L96.5379 41.0401L96.9192 35.7698C97.2852 32.3915 95.9377 29.095 93.31 26.9448L89.5171 23.839L88.0251 19.3445C87.1895 15.908 84.5794 13.1461 81.1933 12.1232L76.5114 10.7088L72.9259 6.56406C70.8042 4.06856 67.5929 2.77091 64.3357 3.09044L59.4762 3.57462L54.6996 1.17854C51.7559 -0.390599 48.2461 -0.391771 45.3016 1.17834L41.0389 3.4631L35.7688 3.08204C32.3907 2.71427 29.0939 4.06329 26.9437 6.69121L23.8378 10.4842L19.3433 11.9761C15.9068 12.8115 13.1449 15.4214 12.1219 18.8076L10.7078 23.4894L6.56269 27.0751C4.06759 29.197 2.76896 32.4075 3.08947 35.6653L3.57364 40.5247L1.17756 45.3016C-0.391771 48.2451 -0.393138 51.7549 1.17717 54.699L3.46193 58.9621L3.08087 64.2322C2.71447 67.6101 4.06192 70.9068 6.69004 73.0572L10.483 76.1628L11.975 80.6577C12.8105 84.0942 15.4205 86.8561 18.8068 87.8792L23.4886 89.2932L27.0741 93.4379C29.1956 95.9332 32.4056 97.2309 35.6645 96.9116L40.5237 96.4272L45.3 98.8233C46.7725 99.6086 48.3862 100.001 50.0002 100.001C51.6131 100.001 53.2264 99.6088 54.6981 98.8239L58.9611 96.5391L64.2308 96.9201C67.6089 97.2871 70.9062 95.9395 73.0562 93.3112L76.162 89.518L80.6567 88.026C84.0932 87.1909 86.855 84.5807 87.8782 81.1942L89.2923 76.5126L93.437 72.9271C95.9323 70.8054 97.2311 67.5949 96.9106 64.3367L96.4264 59.4775L98.8223 54.7012C100.392 51.7574 100.393 48.2477 98.8227 45.303ZM95.367 52.8787C95.3584 52.8945 95.35 52.9106 95.342 52.9268L92.6807 58.2322C92.5149 58.5627 92.4463 58.9336 92.4829 59.3015L93.0231 64.7214C93.218 66.7035 92.4268 68.6585 90.8938 69.9621L86.3083 73.929C86.0286 74.1708 85.8235 74.4872 85.7165 74.8413L84.1386 80.0647C83.5095 82.1477 81.8003 83.7489 79.678 84.2436C79.62 84.2571 79.5626 84.2733 79.5062 84.2921L74.3943 85.9889C74.0433 86.1055 73.7325 86.3192 73.4984 86.6051L70.0331 90.837C68.7173 92.4452 66.6961 93.2674 64.6271 93.0338C64.6013 93.0309 64.5754 93.0286 64.5498 93.0268L58.6781 92.6022C58.3078 92.5747 57.9406 92.654 57.6146 92.8288L52.8563 95.3791C51.0615 96.3358 48.918 96.3319 47.1225 95.3682C47.1067 95.3596 47.0907 95.3512 47.0746 95.3432L41.7692 92.6817C41.4965 92.545 41.1965 92.4743 40.8934 92.4743C40.829 92.4743 40.7643 92.4776 40.6997 92.4838L35.2798 93.0243C33.3003 93.218 31.3431 92.428 30.0394 90.895L26.0722 86.3094C25.8304 86.0298 25.514 85.8247 25.1599 85.7177L19.9363 84.1397C17.8535 83.5106 16.2523 81.8015 15.7574 79.6792C15.7439 79.6212 15.7277 79.5638 15.7089 79.5073L14.0121 74.3952C13.8955 74.0443 13.682 73.7337 13.3959 73.4993L9.16425 70.0345C7.55585 68.7183 6.73437 66.6972 6.96719 64.6283C6.97011 64.6025 6.97246 64.5765 6.97422 64.5509L7.39882 58.6793C7.42558 58.3103 7.34687 57.9416 7.17226 57.6158L4.62188 52.8574C3.66485 51.0629 3.66896 48.9196 4.63301 47.1239C4.64141 47.108 4.64981 47.092 4.65782 47.0758L7.31914 41.7702C7.48496 41.4397 7.55351 41.0688 7.51699 40.7008L6.97695 35.2807C6.78203 33.2989 7.57324 31.3438 9.10585 30.0401L13.6914 26.0732C13.9713 25.8314 14.1763 25.515 14.2834 25.1609L15.8613 19.9373C16.4904 17.8544 18.1996 16.2533 20.3218 15.7584C20.3798 15.7449 20.4373 15.7287 20.4937 15.7099L25.6056 14.0131C25.9566 13.8965 26.2673 13.6828 26.5015 13.3968L29.9665 9.16522C31.2825 7.55683 33.3036 6.73476 35.3727 6.96816C35.3985 6.97109 35.4245 6.97343 35.4501 6.97519L41.3217 7.3998C41.6913 7.42597 42.0594 7.34804 42.3854 7.17324L47.1434 4.62286C48.9377 3.66583 51.0813 3.66974 52.8774 4.63379C52.8932 4.64219 52.909 4.65059 52.925 4.6586L58.2305 7.32011C58.5611 7.48613 58.9324 7.55371 59.3 7.51796L64.7203 6.97773C66.7009 6.78379 68.6572 7.57402 69.9607 9.10702L73.9279 13.6925C74.1697 13.9722 74.4861 14.1773 74.84 14.2841L80.0636 15.8625C82.1466 16.4916 83.7477 18.2007 84.2425 20.323C84.2559 20.381 84.2722 20.4384 84.2909 20.4949L85.9878 25.6068C86.1044 25.9577 86.318 26.2685 86.604 26.5027L90.8356 29.9675C92.444 31.2835 93.2653 33.3048 93.0327 35.3741C93.0297 35.3999 93.0274 35.4257 93.0256 35.4514L92.6008 41.3229C92.5741 41.6918 92.6528 42.0606 92.8274 42.3864L95.378 47.145C96.3352 48.9393 96.3311 51.0826 95.367 52.8787Z" fill="#8DD6DD"/>
<mask id="path-3-outside-1" maskUnits="userSpaceOnUse" x="24" y="24.0002" width="52" height="52" fill="black">
<rect fill="white" x="24" y="24.0002" width="52" height="52"/>
<path d="M73.2889 49.4993H72.5213C72.4469 49.0492 72.4084 48.6247 72.4939 48.31C72.644 47.7572 73.1378 47.1712 73.6153 46.6045C74.2919 45.8017 74.9914 44.9718 74.9999 43.9593C75.0105 42.6848 74.1308 41.7366 73.3544 40.9C72.933 40.4458 72.5349 40.0168 72.3807 39.641C72.1958 39.1903 72.1048 38.5815 72.0167 37.9929C71.8332 36.7655 71.6252 35.3745 70.4539 34.7739C69.2814 34.1736 68.0306 34.8173 66.9266 35.3855C66.3977 35.6577 65.8506 35.9392 65.3777 36.0524C65.0246 36.1365 64.4995 36.0838 64.0348 36.0276C63.6337 35.9791 63.2683 36.2653 63.2198 36.6669C63.1713 37.0685 63.4576 37.4334 63.8591 37.4818C64.4768 37.5565 65.1294 37.6175 65.718 37.4771C66.3635 37.3227 66.9906 37 67.5969 36.6879C68.4641 36.2416 69.2831 35.82 69.7858 36.0775C70.2877 36.3349 70.4238 37.2454 70.568 38.2096C70.6689 38.8845 70.7734 39.5823 71.0254 40.1972C71.2805 40.8186 71.7889 41.3665 72.2807 41.8964C72.9002 42.5641 73.5408 43.2547 73.5351 43.947C73.5311 44.4316 73.0044 45.0564 72.4953 45.6606C71.9151 46.3491 71.3153 47.0609 71.0803 47.9262C70.9445 48.426 70.9668 48.9686 71.0403 49.4994H66.1219C66.1104 48.8561 65.8336 48.279 65.4573 47.7342C65.9492 46.3712 66.3861 44.9685 66.7563 43.558C66.859 43.1668 66.625 42.7664 66.2338 42.6637C65.8423 42.561 65.4422 42.795 65.3395 43.1862C65.057 44.2625 64.7343 45.334 64.3775 46.3858C63.9494 45.868 63.5544 45.3415 63.4167 44.8344C63.2805 44.3332 63.4215 43.6123 63.5707 42.8491C63.7845 41.7556 64.0269 40.5161 63.4877 39.4639C62.9484 38.4113 61.8001 37.8842 60.7869 37.419C60.0805 37.0947 59.4133 36.7884 59.0863 36.3863C58.6882 35.8954 58.4841 35.086 58.2869 34.3032C58.0123 33.2131 57.7282 32.0859 56.8623 31.4511C55.7697 30.6511 54.3944 30.8233 53.1812 30.975C52.5113 31.0589 51.8787 31.1382 51.4414 31.0337C50.922 30.9098 50.327 30.6037 49.7515 30.3076C48.5715 29.7006 47.2345 29.0125 45.995 29.648C44.8186 30.2509 44.5586 31.6225 44.3674 32.8829C43.7796 32.6084 43.2523 32.335 42.9731 31.9917C42.5749 31.5008 42.3709 30.6914 42.1737 29.9086C41.8991 28.8185 41.615 27.6913 40.7491 27.0565C39.6565 26.2565 38.2812 26.4287 37.068 26.5804C36.3983 26.6643 35.7656 26.7434 35.3282 26.6391C34.8088 26.5152 34.2137 26.2091 33.6382 25.913C32.4584 25.3062 31.1212 24.6183 29.8821 25.2534C28.6428 25.888 28.4202 27.3753 28.224 28.6876C28.1283 29.3278 28.0292 29.9896 27.8264 30.4839C27.6559 30.8999 27.2221 31.3674 26.7627 31.8624C25.9312 32.7585 24.9889 33.7742 25.0001 35.1282C25.0092 36.2018 25.7586 37.0909 26.4833 37.9508C27.0035 38.5681 27.5415 39.2063 27.7072 39.8157C27.843 40.3163 27.7019 41.0369 27.5527 41.7997C27.3387 42.8937 27.096 44.1338 27.6353 45.1855C28.1745 46.2378 29.3224 46.7649 30.3353 47.23C31.042 47.5546 31.7095 47.8611 32.0371 48.2646C32.2904 48.5763 32.4649 49.0178 32.6092 49.4993H26.7111C25.7451 49.4939 24.948 50.3375 25.003 51.3008C25.1571 54.001 25.8813 56.5747 27.1555 58.9503C27.3467 59.3069 27.7907 59.4409 28.1471 59.2495C28.5035 59.0583 28.6375 58.6144 28.4463 58.2579C27.2738 56.0717 26.6073 53.7029 26.4653 51.2171C26.4568 51.0683 26.5512 50.9691 26.7111 50.964H73.2889C73.4504 50.9698 73.5431 51.0678 73.5346 51.2172C73.2969 55.3807 71.5381 59.3017 68.582 62.2581C65.3025 65.5379 61.1233 67.2272 56.5562 67.2393H43.4437C38.2926 67.2382 33.5453 65.0081 30.2546 60.9694C29.9991 60.6559 29.5378 60.6086 29.2241 60.8645C28.9105 61.12 28.8636 61.5814 29.1191 61.8949C31.4136 64.7101 34.4254 66.7431 37.7851 67.8212V69.912C37.7851 72.7174 40.0675 74.9999 42.873 74.9999H57.1269C59.9324 74.9999 62.2148 72.7174 62.2148 69.912V67.8242C64.9764 66.9391 67.5074 65.4037 69.6178 63.2938C72.8285 60.0828 74.7389 55.8237 74.9971 51.3008C75.052 50.3374 74.2497 49.4944 73.2889 49.4993ZM42.121 49.4993C40.2927 46.733 38.7333 43.794 37.4851 40.7566C36.6279 38.6723 35.9014 36.5025 35.3258 34.3074C35.2231 33.9161 34.8228 33.6822 34.4316 33.7847C34.0403 33.8873 33.8063 34.2876 33.9089 34.6789C34.5009 36.9369 35.2484 39.1691 36.1302 41.3136C37.2936 44.1442 38.7188 46.892 40.3747 49.4993H34.131C33.9249 48.722 33.672 47.9537 33.1742 47.3411C32.6315 46.6725 31.7751 46.2792 30.9467 45.8988C30.1109 45.515 29.2469 45.1182 28.9389 44.5173C28.631 43.917 28.8137 42.9836 28.9902 42.0809C29.1651 41.1869 29.3461 40.2625 29.1208 39.4317C28.87 38.5098 28.2261 37.7457 27.6032 37.0067C27.0458 36.3453 26.4694 35.6613 26.4648 35.1159C26.4584 34.344 27.1589 33.5889 27.8364 32.8587C28.3642 32.2898 28.9101 31.7014 29.1814 31.0399C29.4515 30.3817 29.5639 29.6307 29.6725 28.9043C29.8306 27.8473 29.98 26.849 30.5499 26.5571C31.1201 26.2649 32.0174 26.7268 32.9679 27.2158C33.621 27.5517 34.2963 27.8991 34.988 28.0641C35.6833 28.2301 36.4797 28.1304 37.2499 28.0341C38.2383 27.9104 39.2607 27.7825 39.8833 28.2383C40.3234 28.5609 40.5418 29.4281 40.7532 30.2666C40.9892 31.2036 41.2333 32.1726 41.8359 32.9154C42.3786 33.5829 43.2346 33.9759 44.0624 34.3559C44.8985 34.7397 45.7628 35.1365 46.0707 35.7374C46.3785 36.3382 46.1961 37.2713 46.0197 38.1735C45.8448 39.0681 45.664 39.993 45.8896 40.8231C45.9897 41.1933 46.1564 41.5372 46.3438 41.8467C44.3723 42.8992 43.0273 44.9768 43.0273 47.3633C43.0273 48.0961 43.1561 48.8185 43.4035 49.4994H42.121V49.4993ZM53.5592 49.4993H44.9954C44.6655 48.8388 44.4921 48.1082 44.4921 47.3632C44.4921 44.7247 46.6387 42.5781 49.2773 42.5781C51.9158 42.5781 54.0624 44.7247 54.0624 47.3632C54.0625 48.1083 53.889 48.8389 53.5592 49.4993ZM58.6763 49.4993H55.1511C55.3985 48.8184 55.5272 48.0961 55.5272 47.3632C55.5272 45.5005 54.7071 43.8265 53.41 42.6805C53.7304 42.6137 54.0587 42.5781 54.3944 42.5781C57.033 42.5781 59.1796 44.7247 59.1796 47.3632C59.1797 48.1083 59.0062 48.8389 58.6763 49.4993ZM60.2682 49.4993C60.5157 48.8184 60.6445 48.0961 60.6445 47.3632C60.6445 43.917 57.8408 41.1133 54.3945 41.1133C53.5108 41.1133 52.6324 41.3019 51.832 41.6614C51.0515 41.3103 50.1872 41.1133 49.2773 41.1133C48.7463 41.1133 48.2306 41.1804 47.7379 41.3056C47.5538 41.037 47.3844 40.7385 47.3035 40.4397C47.1673 39.9385 47.3083 39.2176 47.4575 38.4544C47.6713 37.3608 47.9137 36.1214 47.3745 35.0692C47.0226 34.3824 46.4111 33.92 45.7476 33.552C45.9062 32.51 46.0488 31.2662 46.6633 30.9515C47.2335 30.6594 48.1308 31.1212 49.0814 31.6102C49.7344 31.9461 50.4097 32.2935 51.1015 32.4585C51.7968 32.6245 52.5931 32.5248 53.3633 32.4285C54.3517 32.3048 55.3741 32.177 55.9968 32.6327C56.4368 32.9554 56.6552 33.8225 56.8666 34.661C57.1026 35.5981 57.3468 36.567 57.9493 37.3098C58.4921 37.9773 59.348 38.3703 60.1758 38.7503C61.0119 39.1341 61.8762 39.531 62.1841 40.1318C62.4919 40.7326 62.3095 41.6657 62.1332 42.568C61.9583 43.4625 61.7774 44.3874 62.0032 45.2182C62.2536 46.1408 62.8977 46.9051 63.5207 47.6443C64.0663 48.2917 64.6286 48.9604 64.6558 49.4993H60.2682ZM60.75 69.912C60.75 71.9097 59.1247 73.535 57.1269 73.535H42.8731C40.8753 73.535 39.25 71.9097 39.25 69.912V68.225C40.6097 68.5402 42.0149 68.7042 43.4437 68.7042H56.5562C57.9859 68.7042 59.3905 68.5418 60.7499 68.2276V69.912H60.75Z"/>
</mask>
<path d="M73.2889 49.4993H72.5213C72.4469 49.0492 72.4084 48.6247 72.4939 48.31C72.644 47.7572 73.1378 47.1712 73.6153 46.6045C74.2919 45.8017 74.9914 44.9718 74.9999 43.9593C75.0105 42.6848 74.1308 41.7366 73.3544 40.9C72.933 40.4458 72.5349 40.0168 72.3807 39.641C72.1958 39.1903 72.1048 38.5815 72.0167 37.9929C71.8332 36.7655 71.6252 35.3745 70.4539 34.7739C69.2814 34.1736 68.0306 34.8173 66.9266 35.3855C66.3977 35.6577 65.8506 35.9392 65.3777 36.0524C65.0246 36.1365 64.4995 36.0838 64.0348 36.0276C63.6337 35.9791 63.2683 36.2653 63.2198 36.6669C63.1713 37.0685 63.4576 37.4334 63.8591 37.4818C64.4768 37.5565 65.1294 37.6175 65.718 37.4771C66.3635 37.3227 66.9906 37 67.5969 36.6879C68.4641 36.2416 69.2831 35.82 69.7858 36.0775C70.2877 36.3349 70.4238 37.2454 70.568 38.2096C70.6689 38.8845 70.7734 39.5823 71.0254 40.1972C71.2805 40.8186 71.7889 41.3665 72.2807 41.8964C72.9002 42.5641 73.5408 43.2547 73.5351 43.947C73.5311 44.4316 73.0044 45.0564 72.4953 45.6606C71.9151 46.3491 71.3153 47.0609 71.0803 47.9262C70.9445 48.426 70.9668 48.9686 71.0403 49.4994H66.1219C66.1104 48.8561 65.8336 48.279 65.4573 47.7342C65.9492 46.3712 66.3861 44.9685 66.7563 43.558C66.859 43.1668 66.625 42.7664 66.2338 42.6637C65.8423 42.561 65.4422 42.795 65.3395 43.1862C65.057 44.2625 64.7343 45.334 64.3775 46.3858C63.9494 45.868 63.5544 45.3415 63.4167 44.8344C63.2805 44.3332 63.4215 43.6123 63.5707 42.8491C63.7845 41.7556 64.0269 40.5161 63.4877 39.4639C62.9484 38.4113 61.8001 37.8842 60.7869 37.419C60.0805 37.0947 59.4133 36.7884 59.0863 36.3863C58.6882 35.8954 58.4841 35.086 58.2869 34.3032C58.0123 33.2131 57.7282 32.0859 56.8623 31.4511C55.7697 30.6511 54.3944 30.8233 53.1812 30.975C52.5113 31.0589 51.8787 31.1382 51.4414 31.0337C50.922 30.9098 50.327 30.6037 49.7515 30.3076C48.5715 29.7006 47.2345 29.0125 45.995 29.648C44.8186 30.2509 44.5586 31.6225 44.3674 32.8829C43.7796 32.6084 43.2523 32.335 42.9731 31.9917C42.5749 31.5008 42.3709 30.6914 42.1737 29.9086C41.8991 28.8185 41.615 27.6913 40.7491 27.0565C39.6565 26.2565 38.2812 26.4287 37.068 26.5804C36.3983 26.6643 35.7656 26.7434 35.3282 26.6391C34.8088 26.5152 34.2137 26.2091 33.6382 25.913C32.4584 25.3062 31.1212 24.6183 29.8821 25.2534C28.6428 25.888 28.4202 27.3753 28.224 28.6876C28.1283 29.3278 28.0292 29.9896 27.8264 30.4839C27.6559 30.8999 27.2221 31.3674 26.7627 31.8624C25.9312 32.7585 24.9889 33.7742 25.0001 35.1282C25.0092 36.2018 25.7586 37.0909 26.4833 37.9508C27.0035 38.5681 27.5415 39.2063 27.7072 39.8157C27.843 40.3163 27.7019 41.0369 27.5527 41.7997C27.3387 42.8937 27.096 44.1338 27.6353 45.1855C28.1745 46.2378 29.3224 46.7649 30.3353 47.23C31.042 47.5546 31.7095 47.8611 32.0371 48.2646C32.2904 48.5763 32.4649 49.0178 32.6092 49.4993H26.7111C25.7451 49.4939 24.948 50.3375 25.003 51.3008C25.1571 54.001 25.8813 56.5747 27.1555 58.9503C27.3467 59.3069 27.7907 59.4409 28.1471 59.2495C28.5035 59.0583 28.6375 58.6144 28.4463 58.2579C27.2738 56.0717 26.6073 53.7029 26.4653 51.2171C26.4568 51.0683 26.5512 50.9691 26.7111 50.964H73.2889C73.4504 50.9698 73.5431 51.0678 73.5346 51.2172C73.2969 55.3807 71.5381 59.3017 68.582 62.2581C65.3025 65.5379 61.1233 67.2272 56.5562 67.2393H43.4437C38.2926 67.2382 33.5453 65.0081 30.2546 60.9694C29.9991 60.6559 29.5378 60.6086 29.2241 60.8645C28.9105 61.12 28.8636 61.5814 29.1191 61.8949C31.4136 64.7101 34.4254 66.7431 37.7851 67.8212V69.912C37.7851 72.7174 40.0675 74.9999 42.873 74.9999H57.1269C59.9324 74.9999 62.2148 72.7174 62.2148 69.912V67.8242C64.9764 66.9391 67.5074 65.4037 69.6178 63.2938C72.8285 60.0828 74.7389 55.8237 74.9971 51.3008C75.052 50.3374 74.2497 49.4944 73.2889 49.4993ZM42.121 49.4993C40.2927 46.733 38.7333 43.794 37.4851 40.7566C36.6279 38.6723 35.9014 36.5025 35.3258 34.3074C35.2231 33.9161 34.8228 33.6822 34.4316 33.7847C34.0403 33.8873 33.8063 34.2876 33.9089 34.6789C34.5009 36.9369 35.2484 39.1691 36.1302 41.3136C37.2936 44.1442 38.7188 46.892 40.3747 49.4993H34.131C33.9249 48.722 33.672 47.9537 33.1742 47.3411C32.6315 46.6725 31.7751 46.2792 30.9467 45.8988C30.1109 45.515 29.2469 45.1182 28.9389 44.5173C28.631 43.917 28.8137 42.9836 28.9902 42.0809C29.1651 41.1869 29.3461 40.2625 29.1208 39.4317C28.87 38.5098 28.2261 37.7457 27.6032 37.0067C27.0458 36.3453 26.4694 35.6613 26.4648 35.1159C26.4584 34.344 27.1589 33.5889 27.8364 32.8587C28.3642 32.2898 28.9101 31.7014 29.1814 31.0399C29.4515 30.3817 29.5639 29.6307 29.6725 28.9043C29.8306 27.8473 29.98 26.849 30.5499 26.5571C31.1201 26.2649 32.0174 26.7268 32.9679 27.2158C33.621 27.5517 34.2963 27.8991 34.988 28.0641C35.6833 28.2301 36.4797 28.1304 37.2499 28.0341C38.2383 27.9104 39.2607 27.7825 39.8833 28.2383C40.3234 28.5609 40.5418 29.4281 40.7532 30.2666C40.9892 31.2036 41.2333 32.1726 41.8359 32.9154C42.3786 33.5829 43.2346 33.9759 44.0624 34.3559C44.8985 34.7397 45.7628 35.1365 46.0707 35.7374C46.3785 36.3382 46.1961 37.2713 46.0197 38.1735C45.8448 39.0681 45.664 39.993 45.8896 40.8231C45.9897 41.1933 46.1564 41.5372 46.3438 41.8467C44.3723 42.8992 43.0273 44.9768 43.0273 47.3633C43.0273 48.0961 43.1561 48.8185 43.4035 49.4994H42.121V49.4993ZM53.5592 49.4993H44.9954C44.6655 48.8388 44.4921 48.1082 44.4921 47.3632C44.4921 44.7247 46.6387 42.5781 49.2773 42.5781C51.9158 42.5781 54.0624 44.7247 54.0624 47.3632C54.0625 48.1083 53.889 48.8389 53.5592 49.4993ZM58.6763 49.4993H55.1511C55.3985 48.8184 55.5272 48.0961 55.5272 47.3632C55.5272 45.5005 54.7071 43.8265 53.41 42.6805C53.7304 42.6137 54.0587 42.5781 54.3944 42.5781C57.033 42.5781 59.1796 44.7247 59.1796 47.3632C59.1797 48.1083 59.0062 48.8389 58.6763 49.4993ZM60.2682 49.4993C60.5157 48.8184 60.6445 48.0961 60.6445 47.3632C60.6445 43.917 57.8408 41.1133 54.3945 41.1133C53.5108 41.1133 52.6324 41.3019 51.832 41.6614C51.0515 41.3103 50.1872 41.1133 49.2773 41.1133C48.7463 41.1133 48.2306 41.1804 47.7379 41.3056C47.5538 41.037 47.3844 40.7385 47.3035 40.4397C47.1673 39.9385 47.3083 39.2176 47.4575 38.4544C47.6713 37.3608 47.9137 36.1214 47.3745 35.0692C47.0226 34.3824 46.4111 33.92 45.7476 33.552C45.9062 32.51 46.0488 31.2662 46.6633 30.9515C47.2335 30.6594 48.1308 31.1212 49.0814 31.6102C49.7344 31.9461 50.4097 32.2935 51.1015 32.4585C51.7968 32.6245 52.5931 32.5248 53.3633 32.4285C54.3517 32.3048 55.3741 32.177 55.9968 32.6327C56.4368 32.9554 56.6552 33.8225 56.8666 34.661C57.1026 35.5981 57.3468 36.567 57.9493 37.3098C58.4921 37.9773 59.348 38.3703 60.1758 38.7503C61.0119 39.1341 61.8762 39.531 62.1841 40.1318C62.4919 40.7326 62.3095 41.6657 62.1332 42.568C61.9583 43.4625 61.7774 44.3874 62.0032 45.2182C62.2536 46.1408 62.8977 46.9051 63.5207 47.6443C64.0663 48.2917 64.6286 48.9604 64.6558 49.4993H60.2682ZM60.75 69.912C60.75 71.9097 59.1247 73.535 57.1269 73.535H42.8731C40.8753 73.535 39.25 71.9097 39.25 69.912V68.225C40.6097 68.5402 42.0149 68.7042 43.4437 68.7042H56.5562C57.9859 68.7042 59.3905 68.5418 60.7499 68.2276V69.912H60.75Z" fill="#8DD6DD"/>
<path d="M73.2889 49.4993H72.5213C72.4469 49.0492 72.4084 48.6247 72.4939 48.31C72.644 47.7572 73.1378 47.1712 73.6153 46.6045C74.2919 45.8017 74.9914 44.9718 74.9999 43.9593C75.0105 42.6848 74.1308 41.7366 73.3544 40.9C72.933 40.4458 72.5349 40.0168 72.3807 39.641C72.1958 39.1903 72.1048 38.5815 72.0167 37.9929C71.8332 36.7655 71.6252 35.3745 70.4539 34.7739C69.2814 34.1736 68.0306 34.8173 66.9266 35.3855C66.3977 35.6577 65.8506 35.9392 65.3777 36.0524C65.0246 36.1365 64.4995 36.0838 64.0348 36.0276C63.6337 35.9791 63.2683 36.2653 63.2198 36.6669C63.1713 37.0685 63.4576 37.4334 63.8591 37.4818C64.4768 37.5565 65.1294 37.6175 65.718 37.4771C66.3635 37.3227 66.9906 37 67.5969 36.6879C68.4641 36.2416 69.2831 35.82 69.7858 36.0775C70.2877 36.3349 70.4238 37.2454 70.568 38.2096C70.6689 38.8845 70.7734 39.5823 71.0254 40.1972C71.2805 40.8186 71.7889 41.3665 72.2807 41.8964C72.9002 42.5641 73.5408 43.2547 73.5351 43.947C73.5311 44.4316 73.0044 45.0564 72.4953 45.6606C71.9151 46.3491 71.3153 47.0609 71.0803 47.9262C70.9445 48.426 70.9668 48.9686 71.0403 49.4994H66.1219C66.1104 48.8561 65.8336 48.279 65.4573 47.7342C65.9492 46.3712 66.3861 44.9685 66.7563 43.558C66.859 43.1668 66.625 42.7664 66.2338 42.6637C65.8423 42.561 65.4422 42.795 65.3395 43.1862C65.057 44.2625 64.7343 45.334 64.3775 46.3858C63.9494 45.868 63.5544 45.3415 63.4167 44.8344C63.2805 44.3332 63.4215 43.6123 63.5707 42.8491C63.7845 41.7556 64.0269 40.5161 63.4877 39.4639C62.9484 38.4113 61.8001 37.8842 60.7869 37.419C60.0805 37.0947 59.4133 36.7884 59.0863 36.3863C58.6882 35.8954 58.4841 35.086 58.2869 34.3032C58.0123 33.2131 57.7282 32.0859 56.8623 31.4511C55.7697 30.6511 54.3944 30.8233 53.1812 30.975C52.5113 31.0589 51.8787 31.1382 51.4414 31.0337C50.922 30.9098 50.327 30.6037 49.7515 30.3076C48.5715 29.7006 47.2345 29.0125 45.995 29.648C44.8186 30.2509 44.5586 31.6225 44.3674 32.8829C43.7796 32.6084 43.2523 32.335 42.9731 31.9917C42.5749 31.5008 42.3709 30.6914 42.1737 29.9086C41.8991 28.8185 41.615 27.6913 40.7491 27.0565C39.6565 26.2565 38.2812 26.4287 37.068 26.5804C36.3983 26.6643 35.7656 26.7434 35.3282 26.6391C34.8088 26.5152 34.2137 26.2091 33.6382 25.913C32.4584 25.3062 31.1212 24.6183 29.8821 25.2534C28.6428 25.888 28.4202 27.3753 28.224 28.6876C28.1283 29.3278 28.0292 29.9896 27.8264 30.4839C27.6559 30.8999 27.2221 31.3674 26.7627 31.8624C25.9312 32.7585 24.9889 33.7742 25.0001 35.1282C25.0092 36.2018 25.7586 37.0909 26.4833 37.9508C27.0035 38.5681 27.5415 39.2063 27.7072 39.8157C27.843 40.3163 27.7019 41.0369 27.5527 41.7997C27.3387 42.8937 27.096 44.1338 27.6353 45.1855C28.1745 46.2378 29.3224 46.7649 30.3353 47.23C31.042 47.5546 31.7095 47.8611 32.0371 48.2646C32.2904 48.5763 32.4649 49.0178 32.6092 49.4993H26.7111C25.7451 49.4939 24.948 50.3375 25.003 51.3008C25.1571 54.001 25.8813 56.5747 27.1555 58.9503C27.3467 59.3069 27.7907 59.4409 28.1471 59.2495C28.5035 59.0583 28.6375 58.6144 28.4463 58.2579C27.2738 56.0717 26.6073 53.7029 26.4653 51.2171C26.4568 51.0683 26.5512 50.9691 26.7111 50.964H73.2889C73.4504 50.9698 73.5431 51.0678 73.5346 51.2172C73.2969 55.3807 71.5381 59.3017 68.582 62.2581C65.3025 65.5379 61.1233 67.2272 56.5562 67.2393H43.4437C38.2926 67.2382 33.5453 65.0081 30.2546 60.9694C29.9991 60.6559 29.5378 60.6086 29.2241 60.8645C28.9105 61.12 28.8636 61.5814 29.1191 61.8949C31.4136 64.7101 34.4254 66.7431 37.7851 67.8212V69.912C37.7851 72.7174 40.0675 74.9999 42.873 74.9999H57.1269C59.9324 74.9999 62.2148 72.7174 62.2148 69.912V67.8242C64.9764 66.9391 67.5074 65.4037 69.6178 63.2938C72.8285 60.0828 74.7389 55.8237 74.9971 51.3008C75.052 50.3374 74.2497 49.4944 73.2889 49.4993ZM42.121 49.4993C40.2927 46.733 38.7333 43.794 37.4851 40.7566C36.6279 38.6723 35.9014 36.5025 35.3258 34.3074C35.2231 33.9161 34.8228 33.6822 34.4316 33.7847C34.0403 33.8873 33.8063 34.2876 33.9089 34.6789C34.5009 36.9369 35.2484 39.1691 36.1302 41.3136C37.2936 44.1442 38.7188 46.892 40.3747 49.4993H34.131C33.9249 48.722 33.672 47.9537 33.1742 47.3411C32.6315 46.6725 31.7751 46.2792 30.9467 45.8988C30.1109 45.515 29.2469 45.1182 28.9389 44.5173C28.631 43.917 28.8137 42.9836 28.9902 42.0809C29.1651 41.1869 29.3461 40.2625 29.1208 39.4317C28.87 38.5098 28.2261 37.7457 27.6032 37.0067C27.0458 36.3453 26.4694 35.6613 26.4648 35.1159C26.4584 34.344 27.1589 33.5889 27.8364 32.8587C28.3642 32.2898 28.9101 31.7014 29.1814 31.0399C29.4515 30.3817 29.5639 29.6307 29.6725 28.9043C29.8306 27.8473 29.98 26.849 30.5499 26.5571C31.1201 26.2649 32.0174 26.7268 32.9679 27.2158C33.621 27.5517 34.2963 27.8991 34.988 28.0641C35.6833 28.2301 36.4797 28.1304 37.2499 28.0341C38.2383 27.9104 39.2607 27.7825 39.8833 28.2383C40.3234 28.5609 40.5418 29.4281 40.7532 30.2666C40.9892 31.2036 41.2333 32.1726 41.8359 32.9154C42.3786 33.5829 43.2346 33.9759 44.0624 34.3559C44.8985 34.7397 45.7628 35.1365 46.0707 35.7374C46.3785 36.3382 46.1961 37.2713 46.0197 38.1735C45.8448 39.0681 45.664 39.993 45.8896 40.8231C45.9897 41.1933 46.1564 41.5372 46.3438 41.8467C44.3723 42.8992 43.0273 44.9768 43.0273 47.3633C43.0273 48.0961 43.1561 48.8185 43.4035 49.4994H42.121V49.4993ZM53.5592 49.4993H44.9954C44.6655 48.8388 44.4921 48.1082 44.4921 47.3632C44.4921 44.7247 46.6387 42.5781 49.2773 42.5781C51.9158 42.5781 54.0624 44.7247 54.0624 47.3632C54.0625 48.1083 53.889 48.8389 53.5592 49.4993ZM58.6763 49.4993H55.1511C55.3985 48.8184 55.5272 48.0961 55.5272 47.3632C55.5272 45.5005 54.7071 43.8265 53.41 42.6805C53.7304 42.6137 54.0587 42.5781 54.3944 42.5781C57.033 42.5781 59.1796 44.7247 59.1796 47.3632C59.1797 48.1083 59.0062 48.8389 58.6763 49.4993ZM60.2682 49.4993C60.5157 48.8184 60.6445 48.0961 60.6445 47.3632C60.6445 43.917 57.8408 41.1133 54.3945 41.1133C53.5108 41.1133 52.6324 41.3019 51.832 41.6614C51.0515 41.3103 50.1872 41.1133 49.2773 41.1133C48.7463 41.1133 48.2306 41.1804 47.7379 41.3056C47.5538 41.037 47.3844 40.7385 47.3035 40.4397C47.1673 39.9385 47.3083 39.2176 47.4575 38.4544C47.6713 37.3608 47.9137 36.1214 47.3745 35.0692C47.0226 34.3824 46.4111 33.92 45.7476 33.552C45.9062 32.51 46.0488 31.2662 46.6633 30.9515C47.2335 30.6594 48.1308 31.1212 49.0814 31.6102C49.7344 31.9461 50.4097 32.2935 51.1015 32.4585C51.7968 32.6245 52.5931 32.5248 53.3633 32.4285C54.3517 32.3048 55.3741 32.177 55.9968 32.6327C56.4368 32.9554 56.6552 33.8225 56.8666 34.661C57.1026 35.5981 57.3468 36.567 57.9493 37.3098C58.4921 37.9773 59.348 38.3703 60.1758 38.7503C61.0119 39.1341 61.8762 39.531 62.1841 40.1318C62.4919 40.7326 62.3095 41.6657 62.1332 42.568C61.9583 43.4625 61.7774 44.3874 62.0032 45.2182C62.2536 46.1408 62.8977 46.9051 63.5207 47.6443C64.0663 48.2917 64.6286 48.9604 64.6558 49.4993H60.2682ZM60.75 69.912C60.75 71.9097 59.1247 73.535 57.1269 73.535H42.8731C40.8753 73.535 39.25 71.9097 39.25 69.912V68.225C40.6097 68.5402 42.0149 68.7042 43.4437 68.7042H56.5562C57.9859 68.7042 59.3905 68.5418 60.7499 68.2276V69.912H60.75Z" stroke="#8DD6DD" stroke-width="1.99999" mask="url(#path-3-outside-1)"/>
<path d="M50.0018 14.844C51.0803 14.844 51.9549 13.9694 51.9549 12.8909C51.9549 11.8124 51.0803 10.9377 50.0018 10.9377H50.0004C48.9219 10.9377 48.0481 11.8124 48.0481 12.8909C48.0481 13.9694 48.9231 14.844 50.0018 14.844Z" fill="#8DD6DD"/>
</svg>
