<svg width="100" height="100" viewBox="0 0 100 100" fill="none" xmlns="http://www.w3.org/2000/svg">
<path d="M59.1867 12.0275C58.1365 11.7746 57.083 12.4201 56.8302 13.4685C56.5775 14.5172 57.2226 15.5722 58.2712 15.825C74.1009 19.6416 85.1563 33.695 85.1563 50.0004C85.1563 69.3855 69.3853 85.1563 50.0002 85.1563C30.6151 85.1563 14.8441 69.3855 14.8441 50.0004C14.8441 33.6946 25.9001 19.6412 41.7305 15.825C42.7791 15.5722 43.4242 14.5172 43.1715 13.4685C42.9188 12.4201 41.8645 11.7746 40.8151 12.0275C32.4397 14.0467 24.8518 18.8877 19.4489 25.6591C13.8808 32.6374 10.9378 41.0548 10.9378 50.0006C10.9378 71.5396 28.4612 89.0628 50.0002 89.0628C71.5392 89.0628 89.0625 71.5396 89.0625 50.0006C89.0625 41.055 86.1198 32.6382 80.552 25.6597C75.1495 18.888 67.5616 14.0467 59.1867 12.0275Z" fill="#8DD6DD"/>
<path d="M98.8227 45.303L96.5379 41.0401L96.9192 35.7698C97.2852 32.3915 95.9377 29.095 93.31 26.9448L89.5171 23.839L88.0251 19.3445C87.1895 15.908 84.5794 13.1461 81.1933 12.1232L76.5114 10.7088L72.9259 6.56406C70.8042 4.06856 67.5929 2.77091 64.3357 3.09044L59.4762 3.57462L54.6996 1.17854C51.7559 -0.390599 48.2461 -0.391771 45.3016 1.17834L41.0389 3.4631L35.7688 3.08204C32.3907 2.71427 29.0939 4.06329 26.9437 6.69121L23.8378 10.4842L19.3433 11.9761C15.9068 12.8115 13.1449 15.4214 12.1219 18.8076L10.7078 23.4894L6.56269 27.0751C4.06759 29.197 2.76896 32.4075 3.08947 35.6653L3.57364 40.5247L1.17756 45.3016C-0.391771 48.2451 -0.393138 51.7549 1.17717 54.699L3.46193 58.9621L3.08087 64.2322C2.71447 67.6101 4.06192 70.9068 6.69004 73.0572L10.483 76.1628L11.975 80.6577C12.8105 84.0942 15.4205 86.8561 18.8068 87.8792L23.4886 89.2932L27.0741 93.4379C29.1956 95.9332 32.4056 97.2309 35.6645 96.9116L40.5237 96.4272L45.3 98.8233C46.7725 99.6086 48.3862 100.001 50.0002 100.001C51.6131 100.001 53.2264 99.6088 54.6981 98.8239L58.9611 96.5391L64.2308 96.9201C67.6089 97.2871 70.9062 95.9395 73.0562 93.3112L76.162 89.518L80.6567 88.026C84.0932 87.1909 86.855 84.5807 87.8782 81.1942L89.2923 76.5126L93.437 72.9271C95.9323 70.8054 97.2311 67.5949 96.9106 64.3367L96.4264 59.4775L98.8223 54.7012C100.392 51.7574 100.393 48.2477 98.8227 45.303ZM95.367 52.8787C95.3584 52.8945 95.35 52.9106 95.342 52.9268L92.6807 58.2322C92.5149 58.5627 92.4463 58.9336 92.4829 59.3015L93.0231 64.7214C93.218 66.7035 92.4268 68.6585 90.8938 69.9621L86.3083 73.929C86.0286 74.1708 85.8235 74.4872 85.7165 74.8413L84.1386 80.0647C83.5095 82.1477 81.8003 83.7489 79.678 84.2436C79.62 84.2571 79.5626 84.2733 79.5062 84.2921L74.3943 85.9889C74.0433 86.1055 73.7325 86.3192 73.4984 86.6051L70.0331 90.837C68.7173 92.4452 66.6961 93.2674 64.6271 93.0338C64.6013 93.0309 64.5754 93.0286 64.5498 93.0268L58.6781 92.6022C58.3078 92.5747 57.9406 92.654 57.6146 92.8288L52.8563 95.3791C51.0615 96.3358 48.918 96.3319 47.1225 95.3682C47.1067 95.3596 47.0907 95.3512 47.0746 95.3432L41.7692 92.6817C41.4965 92.545 41.1965 92.4743 40.8934 92.4743C40.829 92.4743 40.7643 92.4776 40.6997 92.4838L35.2798 93.0243C33.3003 93.218 31.3431 92.428 30.0394 90.895L26.0722 86.3094C25.8304 86.0298 25.514 85.8247 25.1599 85.7177L19.9363 84.1397C17.8535 83.5106 16.2523 81.8015 15.7574 79.6792C15.7439 79.6212 15.7277 79.5638 15.7089 79.5073L14.0121 74.3952C13.8955 74.0443 13.682 73.7337 13.3959 73.4993L9.16425 70.0345C7.55585 68.7183 6.73437 66.6972 6.96719 64.6283C6.97011 64.6025 6.97246 64.5765 6.97422 64.5509L7.39882 58.6793C7.42558 58.3103 7.34687 57.9416 7.17226 57.6158L4.62188 52.8574C3.66485 51.0629 3.66896 48.9196 4.63301 47.1239C4.64141 47.108 4.64981 47.092 4.65782 47.0758L7.31914 41.7702C7.48496 41.4397 7.55351 41.0688 7.51699 40.7008L6.97695 35.2807C6.78203 33.2989 7.57324 31.3438 9.10585 30.0401L13.6914 26.0732C13.9713 25.8314 14.1763 25.515 14.2834 25.1609L15.8613 19.9373C16.4904 17.8544 18.1996 16.2533 20.3218 15.7584C20.3798 15.7449 20.4373 15.7287 20.4937 15.7099L25.6056 14.0131C25.9566 13.8965 26.2673 13.6828 26.5015 13.3968L29.9665 9.16522C31.2825 7.55683 33.3036 6.73476 35.3727 6.96816C35.3985 6.97109 35.4245 6.97343 35.4501 6.97519L41.3217 7.3998C41.6913 7.42597 42.0594 7.34804 42.3854 7.17324L47.1434 4.62286C48.9377 3.66583 51.0813 3.66974 52.8774 4.63379C52.8932 4.64219 52.909 4.65059 52.925 4.6586L58.2305 7.32011C58.5611 7.48613 58.9324 7.55371 59.3 7.51796L64.7203 6.97773C66.7009 6.78379 68.6572 7.57402 69.9607 9.10702L73.9279 13.6925C74.1697 13.9722 74.4861 14.1773 74.84 14.2841L80.0636 15.8625C82.1466 16.4916 83.7477 18.2007 84.2425 20.323C84.2559 20.381 84.2722 20.4384 84.2909 20.4949L85.9878 25.6068C86.1044 25.9577 86.318 26.2685 86.604 26.5027L90.8356 29.9675C92.444 31.2835 93.2653 33.3048 93.0327 35.3741C93.0297 35.3999 93.0274 35.4257 93.0256 35.4514L92.6008 41.3229C92.5741 41.6918 92.6528 42.0606 92.8274 42.3864L95.378 47.145C96.3352 48.9393 96.3311 51.0826 95.367 52.8787Z" fill="#8DD6DD"/>
<path d="M65.6165 36.1239C65.2994 36.1079 64.9893 36.2277 64.7644 36.4525L64.7644 36.4525L36.4535 64.7647L36.4535 64.7647C36.2287 64.9897 36.1093 65.2991 36.1249 65.6167C36.1406 65.9344 36.2897 66.2306 36.5357 66.4324L36.6308 66.3164L36.5357 66.4324C40.3185 69.5356 45.1001 71.2445 50.0001 71.2445C55.6743 71.2445 61.0095 69.0345 65.0217 65.0221C69.034 61.0096 71.2439 55.6741 71.2439 49.9997C71.2439 45.0994 69.5352 40.3176 66.4321 36.5346L66.432 36.5346C66.2303 36.2887 65.9342 36.1396 65.6165 36.1239ZM65.6165 36.1239C65.6165 36.1239 65.6166 36.1239 65.6166 36.1239L65.609 36.2737L65.6164 36.1239C65.6165 36.1239 65.6165 36.1239 65.6165 36.1239ZM65.449 38.9543L63.4426 40.9608C63.7647 41.3948 64.0644 41.845 64.3393 42.31C64.473 42.3384 64.6034 42.3914 64.7235 42.4705C64.7235 42.4705 64.7235 42.4705 64.7235 42.4705L64.6411 42.5958C66.2091 43.627 67.5562 44.9082 68.6385 46.3679L65.449 38.9543ZM65.449 38.9543C66.9649 41.0751 68.0247 43.489 68.5687 46.0273M54.8032 67.9586C51.1947 67.5284 47.9241 65.7403 45.6788 63.004C48.5444 60.8698 52.1703 59.8998 55.7841 60.3305C58.5829 60.6641 61.1781 61.8153 63.2496 63.5917C61.1987 65.5917 58.6985 67.1319 55.9168 68.0463C55.5459 68.0313 55.1744 68.0028 54.8032 67.9586ZM56.19 49.3982L56.19 49.3981C56.1439 49.0338 56.1135 48.6692 56.0985 48.3053L61.8291 42.5745C62.0599 42.9025 62.2759 43.2405 62.4758 43.5877C59.9225 46.8274 58.7616 50.9226 59.278 55.0054C59.3499 55.5745 59.4527 56.128 59.5843 56.6663C57.7324 54.6519 56.5344 52.1234 56.19 49.3982ZM43.198 63.4574L43.198 63.4574C44.914 65.9168 47.2925 67.8208 50.0302 68.9913C50.0201 68.9913 50.0101 68.9913 50.0001 68.9913C46.0375 68.9913 42.1615 67.7412 38.9553 65.4494L42.1261 62.2785C42.4099 62.4672 42.6998 62.6481 42.9963 62.8191C42.9973 63.0403 43.0627 63.2633 43.198 63.4574ZM43.7565 60.6478L49.4747 54.9294C49.8047 54.9455 50.1352 54.9728 50.4654 55.0121C53.4075 55.3627 56.1246 56.6168 58.2453 58.551C57.5396 58.3395 56.809 58.1834 56.0509 58.093C51.9323 57.6018 47.798 58.6832 44.4979 61.0763C44.246 60.9413 43.9991 60.798 43.7565 60.6478ZM68.9326 51.4924C68.6271 55.4044 67.1305 58.987 64.8066 61.8783C63.0125 59.8828 61.8516 57.3976 61.5133 54.7226C61.0704 51.2194 62.0771 47.7011 64.29 44.9242C66.4993 46.6143 68.1131 48.9096 68.9326 51.4924ZM53.5178 50.8862L54.0549 50.3491C54.133 50.8031 54.2314 51.2518 54.3493 51.694C54.2272 51.5739 54.0981 51.4484 53.9763 51.3304C53.9121 51.2682 53.8499 51.208 53.7916 51.1517C53.7209 51.0833 53.6559 51.0206 53.6001 50.9664C53.5695 50.9367 53.5419 50.9098 53.5178 50.8862ZM52.3111 52.923C52.364 52.9747 52.4176 53.027 52.4704 53.0785C52.1549 53.0061 51.8363 52.9429 51.5153 52.8888L51.89 52.5141C51.9762 52.5964 52.1075 52.7242 52.2537 52.867L52.3111 52.923Z" fill="#8DD6DD" stroke="#8DD6DD" stroke-width="0.3"/>
<mask id="path-4-outside-1" maskUnits="userSpaceOnUse" x="24" y="24.001" width="52" height="52" fill="black">
<rect fill="white" x="24" y="24.001" width="52" height="52"/>
<path d="M74.4924 44.9614C74.1633 43.3558 73.673 41.7767 73.0353 40.2678C72.4084 38.7863 71.633 37.3576 70.7307 36.0215C69.8361 34.6973 68.8088 33.4531 67.6779 32.3212C66.5461 31.1903 65.3019 30.1629 63.9777 29.2683C62.6418 28.3659 61.213 27.5904 59.7316 26.9635C58.2228 26.3248 56.6437 25.8356 55.0382 25.5063C51.7442 24.8325 48.256 24.8325 44.962 25.5063C43.3565 25.8355 41.7774 26.3247 40.2686 26.9635C38.7881 27.5905 37.3584 28.3659 36.0225 29.2683C34.6983 30.1629 33.4541 31.1903 32.3223 32.3212C31.1914 33.453 30.1641 34.6972 29.2695 36.0214C28.3672 37.3575 27.5918 38.7862 26.9649 40.2677C26.3262 41.7766 25.8369 43.3558 25.5078 44.9613C25.1709 46.608 25 48.3034 25 49.9998C25 51.6961 25.1709 53.3916 25.5078 55.0381C25.8369 56.6437 26.3262 58.2228 26.9649 59.7317C27.5918 61.2132 28.3672 62.6419 29.2695 63.978C30.1641 65.3023 31.1914 66.5465 32.3223 67.6784C33.4541 68.8093 34.6983 69.8367 36.0225 70.7312C37.3584 71.6337 38.7872 72.4091 40.2686 73.036C41.7774 73.6737 43.3565 74.164 44.962 74.4932C46.6085 74.8301 48.3038 75.001 50.0001 75.001H50.0021C56.296 75.001 62.3087 72.6542 66.9328 68.3932C67.1242 68.2165 67.2365 67.9762 67.2463 67.7155C67.257 67.4548 67.1662 67.2057 66.9894 67.0133C66.8049 66.8132 66.5431 66.6989 66.2707 66.6989C66.0246 66.6989 65.7902 66.7907 65.6095 66.9567C61.3439 70.8837 55.8009 73.0469 50.0001 73.0478C43.8448 73.0469 38.0577 70.6503 33.7032 66.2975C29.3506 61.9428 26.9531 56.1544 26.9531 49.9998C26.9531 44.3065 29.006 38.9276 32.7588 34.706C32.8118 35.588 32.9419 36.4603 33.1463 37.3141C31.781 39.1237 30.727 41.1194 30.0068 43.2586L30.008 43.2601C29.3861 43.5592 28.7806 43.8976 28.1972 44.2781C27.7802 44.55 27.6344 45.092 27.8588 45.5364C28.2076 46.2273 28.6075 46.8883 29.0528 47.5158L29.0517 47.5161C28.9551 48.3363 28.9063 49.1699 28.9063 49.9998C28.9063 54.8919 30.6193 59.6601 33.7295 63.4261C33.9047 63.6382 34.1613 63.7667 34.4361 63.7797C34.4516 63.7804 34.467 63.7808 34.4826 63.7808C34.741 63.7808 34.9895 63.6784 35.1731 63.4948L63.4945 35.172C63.689 34.9775 63.7924 34.7098 63.7794 34.435C63.7663 34.1602 63.6379 33.9036 63.4257 33.7285C59.66 30.618 54.892 28.9049 50.0001 28.9049C49.4926 28.9049 48.979 28.9234 48.4688 28.9598L48.4687 28.961C47.7577 28.4678 47.0037 28.0283 46.2107 27.651C45.7782 27.445 45.2605 27.5833 44.9881 27.9771C44.5817 28.5642 44.221 29.1741 43.9045 29.8014L43.9038 29.8002C42.0307 30.364 40.2499 31.1862 38.5988 32.2495L38.5991 32.2553C37.6876 32.0352 36.7555 31.8927 35.8143 31.8314C39.8502 28.6678 44.794 26.9517 50.0001 26.9517C56.1544 26.9517 61.9425 29.3492 66.297 33.702C70.6496 38.0567 73.0461 43.8441 73.0471 49.9997C73.0471 53.6024 72.2394 57.0518 70.6467 60.2532C70.4064 60.7356 70.6037 61.3226 71.0861 61.5628C71.2228 61.6302 71.3683 61.6654 71.5207 61.6654C71.8937 61.6654 72.2287 61.4574 72.3957 61.1234C73.2375 59.4309 73.8859 57.6408 74.3234 55.8028C74.7727 53.912 75.0002 51.9598 75.0002 49.9997C75.0002 48.3034 74.8293 46.608 74.4924 44.9614ZM42.2937 35.8831C42.2159 37.467 42.3867 39.0692 42.8184 40.6339C43.0699 41.5457 43.4508 42.3822 43.9223 43.1671C43.0421 42.7585 42.1222 42.426 41.1737 42.1793C39.8921 41.8457 38.5856 41.6736 37.2834 41.6562C35.5807 39.3522 34.6736 36.5872 34.6841 33.748C37.383 33.7369 40.0357 34.4792 42.2937 35.8831ZM50.3269 44.802C49.6161 41.2507 50.4063 37.5827 52.4971 34.6095C54.2565 35.7443 55.7212 37.2445 56.7883 39.0016C56.7037 39.1212 56.6215 39.2422 56.5406 39.3638L50.4716 45.4331C50.4188 45.2241 50.3692 45.0139 50.3269 44.802ZM39.6092 55.6393C37.8071 54.6112 36.2675 53.2035 35.1001 51.5149C38.1701 49.4929 41.9533 48.7314 45.6191 49.4233C45.8574 49.4683 46.0937 49.5197 46.3285 49.5764L41.2491 54.6561C40.685 54.9509 40.1366 55.2776 39.6092 55.6393ZM45.981 47.5039C41.8649 46.727 37.6167 47.5655 34.1473 49.8058C32.4637 48.6663 31.0599 47.1789 30.0349 45.4461C33.2443 43.6347 37.0745 43.1306 40.682 44.0695C42.9987 44.6722 45.1225 45.8447 46.8244 47.4604C46.8303 47.4661 47.1107 47.7392 47.1408 47.7681C46.7583 47.6667 46.3719 47.5775 45.981 47.5039ZM33.9049 39.6372C34.215 40.3776 34.5843 41.0957 35.0115 41.7843C34.1495 41.8934 33.2974 42.0722 32.4636 42.3169C32.871 41.3872 33.3523 40.4923 33.9049 39.6372ZM34.5732 61.3323C32.1712 58.0619 30.8594 54.0785 30.8594 49.9998C30.8594 49.8782 30.8609 49.7566 30.8631 49.635C31.4615 50.2205 32.1072 50.7606 32.797 51.2475C32.7952 51.4218 32.8399 51.5982 32.9351 51.7576C34.1907 53.8594 35.9248 55.6311 37.9961 56.9464C37.7936 57.2448 37.7704 57.6363 37.9459 57.9596L34.5732 61.3323ZM58.7917 37.1125C58.5329 37.1102 58.2759 37.2098 58.0846 37.4049C56.728 35.3825 54.8979 33.6905 52.7253 32.4672C52.5073 32.3446 52.2599 32.3146 52.0304 32.3666C51.6322 31.8414 51.2 31.3431 50.7383 30.8727C54.5575 31.0209 58.2596 32.3152 61.3321 34.5721L58.7917 37.1125ZM46.1313 29.8046C47.9398 30.8022 49.4897 32.1727 50.6733 33.8182C48.4455 37.1672 47.6216 41.2377 48.4117 45.1854C48.5096 45.6741 48.6321 46.1563 48.7769 46.6309C48.6466 46.5044 48.2558 46.1291 48.1879 46.0621C46.5248 44.4121 45.3192 42.3555 44.7013 40.1144C43.7371 36.6206 44.2608 32.9097 46.1313 29.8046ZM42.9381 32.2035C42.78 32.72 42.6493 33.2433 42.5474 33.7719C42.0683 33.5107 41.5754 33.2753 41.072 33.0644C41.6787 32.7437 42.3012 32.4564 42.9381 32.2035Z"/>
</mask>
<path d="M74.4924 44.9614C74.1633 43.3558 73.673 41.7767 73.0353 40.2678C72.4084 38.7863 71.633 37.3576 70.7307 36.0215C69.8361 34.6973 68.8088 33.4531 67.6779 32.3212C66.5461 31.1903 65.3019 30.1629 63.9777 29.2683C62.6418 28.3659 61.213 27.5904 59.7316 26.9635C58.2228 26.3248 56.6437 25.8356 55.0382 25.5063C51.7442 24.8325 48.256 24.8325 44.962 25.5063C43.3565 25.8355 41.7774 26.3247 40.2686 26.9635C38.7881 27.5905 37.3584 28.3659 36.0225 29.2683C34.6983 30.1629 33.4541 31.1903 32.3223 32.3212C31.1914 33.453 30.1641 34.6972 29.2695 36.0214C28.3672 37.3575 27.5918 38.7862 26.9649 40.2677C26.3262 41.7766 25.8369 43.3558 25.5078 44.9613C25.1709 46.608 25 48.3034 25 49.9998C25 51.6961 25.1709 53.3916 25.5078 55.0381C25.8369 56.6437 26.3262 58.2228 26.9649 59.7317C27.5918 61.2132 28.3672 62.6419 29.2695 63.978C30.1641 65.3023 31.1914 66.5465 32.3223 67.6784C33.4541 68.8093 34.6983 69.8367 36.0225 70.7312C37.3584 71.6337 38.7872 72.4091 40.2686 73.036C41.7774 73.6737 43.3565 74.164 44.962 74.4932C46.6085 74.8301 48.3038 75.001 50.0001 75.001H50.0021C56.296 75.001 62.3087 72.6542 66.9328 68.3932C67.1242 68.2165 67.2365 67.9762 67.2463 67.7155C67.257 67.4548 67.1662 67.2057 66.9894 67.0133C66.8049 66.8132 66.5431 66.6989 66.2707 66.6989C66.0246 66.6989 65.7902 66.7907 65.6095 66.9567C61.3439 70.8837 55.8009 73.0469 50.0001 73.0478C43.8448 73.0469 38.0577 70.6503 33.7032 66.2975C29.3506 61.9428 26.9531 56.1544 26.9531 49.9998C26.9531 44.3065 29.006 38.9276 32.7588 34.706C32.8118 35.588 32.9419 36.4603 33.1463 37.3141C31.781 39.1237 30.727 41.1194 30.0068 43.2586L30.008 43.2601C29.3861 43.5592 28.7806 43.8976 28.1972 44.2781C27.7802 44.55 27.6344 45.092 27.8588 45.5364C28.2076 46.2273 28.6075 46.8883 29.0528 47.5158L29.0517 47.5161C28.9551 48.3363 28.9063 49.1699 28.9063 49.9998C28.9063 54.8919 30.6193 59.6601 33.7295 63.4261C33.9047 63.6382 34.1613 63.7667 34.4361 63.7797C34.4516 63.7804 34.467 63.7808 34.4826 63.7808C34.741 63.7808 34.9895 63.6784 35.1731 63.4948L63.4945 35.172C63.689 34.9775 63.7924 34.7098 63.7794 34.435C63.7663 34.1602 63.6379 33.9036 63.4257 33.7285C59.66 30.618 54.892 28.9049 50.0001 28.9049C49.4926 28.9049 48.979 28.9234 48.4688 28.9598L48.4687 28.961C47.7577 28.4678 47.0037 28.0283 46.2107 27.651C45.7782 27.445 45.2605 27.5833 44.9881 27.9771C44.5817 28.5642 44.221 29.1741 43.9045 29.8014L43.9038 29.8002C42.0307 30.364 40.2499 31.1862 38.5988 32.2495L38.5991 32.2553C37.6876 32.0352 36.7555 31.8927 35.8143 31.8314C39.8502 28.6678 44.794 26.9517 50.0001 26.9517C56.1544 26.9517 61.9425 29.3492 66.297 33.702C70.6496 38.0567 73.0461 43.8441 73.0471 49.9997C73.0471 53.6024 72.2394 57.0518 70.6467 60.2532C70.4064 60.7356 70.6037 61.3226 71.0861 61.5628C71.2228 61.6302 71.3683 61.6654 71.5207 61.6654C71.8937 61.6654 72.2287 61.4574 72.3957 61.1234C73.2375 59.4309 73.8859 57.6408 74.3234 55.8028C74.7727 53.912 75.0002 51.9598 75.0002 49.9997C75.0002 48.3034 74.8293 46.608 74.4924 44.9614ZM42.2937 35.8831C42.2159 37.467 42.3867 39.0692 42.8184 40.6339C43.0699 41.5457 43.4508 42.3822 43.9223 43.1671C43.0421 42.7585 42.1222 42.426 41.1737 42.1793C39.8921 41.8457 38.5856 41.6736 37.2834 41.6562C35.5807 39.3522 34.6736 36.5872 34.6841 33.748C37.383 33.7369 40.0357 34.4792 42.2937 35.8831ZM50.3269 44.802C49.6161 41.2507 50.4063 37.5827 52.4971 34.6095C54.2565 35.7443 55.7212 37.2445 56.7883 39.0016C56.7037 39.1212 56.6215 39.2422 56.5406 39.3638L50.4716 45.4331C50.4188 45.2241 50.3692 45.0139 50.3269 44.802ZM39.6092 55.6393C37.8071 54.6112 36.2675 53.2035 35.1001 51.5149C38.1701 49.4929 41.9533 48.7314 45.6191 49.4233C45.8574 49.4683 46.0937 49.5197 46.3285 49.5764L41.2491 54.6561C40.685 54.9509 40.1366 55.2776 39.6092 55.6393ZM45.981 47.5039C41.8649 46.727 37.6167 47.5655 34.1473 49.8058C32.4637 48.6663 31.0599 47.1789 30.0349 45.4461C33.2443 43.6347 37.0745 43.1306 40.682 44.0695C42.9987 44.6722 45.1225 45.8447 46.8244 47.4604C46.8303 47.4661 47.1107 47.7392 47.1408 47.7681C46.7583 47.6667 46.3719 47.5775 45.981 47.5039ZM33.9049 39.6372C34.215 40.3776 34.5843 41.0957 35.0115 41.7843C34.1495 41.8934 33.2974 42.0722 32.4636 42.3169C32.871 41.3872 33.3523 40.4923 33.9049 39.6372ZM34.5732 61.3323C32.1712 58.0619 30.8594 54.0785 30.8594 49.9998C30.8594 49.8782 30.8609 49.7566 30.8631 49.635C31.4615 50.2205 32.1072 50.7606 32.797 51.2475C32.7952 51.4218 32.8399 51.5982 32.9351 51.7576C34.1907 53.8594 35.9248 55.6311 37.9961 56.9464C37.7936 57.2448 37.7704 57.6363 37.9459 57.9596L34.5732 61.3323ZM58.7917 37.1125C58.5329 37.1102 58.2759 37.2098 58.0846 37.4049C56.728 35.3825 54.8979 33.6905 52.7253 32.4672C52.5073 32.3446 52.2599 32.3146 52.0304 32.3666C51.6322 31.8414 51.2 31.3431 50.7383 30.8727C54.5575 31.0209 58.2596 32.3152 61.3321 34.5721L58.7917 37.1125ZM46.1313 29.8046C47.9398 30.8022 49.4897 32.1727 50.6733 33.8182C48.4455 37.1672 47.6216 41.2377 48.4117 45.1854C48.5096 45.6741 48.6321 46.1563 48.7769 46.6309C48.6466 46.5044 48.2558 46.1291 48.1879 46.0621C46.5248 44.4121 45.3192 42.3555 44.7013 40.1144C43.7371 36.6206 44.2608 32.9097 46.1313 29.8046ZM42.9381 32.2035C42.78 32.72 42.6493 33.2433 42.5474 33.7719C42.0683 33.5107 41.5754 33.2753 41.072 33.0644C41.6787 32.7437 42.3012 32.4564 42.9381 32.2035Z" fill="#8DD6DD"/>
<path d="M74.4924 44.9614C74.1633 43.3558 73.673 41.7767 73.0353 40.2678C72.4084 38.7863 71.633 37.3576 70.7307 36.0215C69.8361 34.6973 68.8088 33.4531 67.6779 32.3212C66.5461 31.1903 65.3019 30.1629 63.9777 29.2683C62.6418 28.3659 61.213 27.5904 59.7316 26.9635C58.2228 26.3248 56.6437 25.8356 55.0382 25.5063C51.7442 24.8325 48.256 24.8325 44.962 25.5063C43.3565 25.8355 41.7774 26.3247 40.2686 26.9635C38.7881 27.5905 37.3584 28.3659 36.0225 29.2683C34.6983 30.1629 33.4541 31.1903 32.3223 32.3212C31.1914 33.453 30.1641 34.6972 29.2695 36.0214C28.3672 37.3575 27.5918 38.7862 26.9649 40.2677C26.3262 41.7766 25.8369 43.3558 25.5078 44.9613C25.1709 46.608 25 48.3034 25 49.9998C25 51.6961 25.1709 53.3916 25.5078 55.0381C25.8369 56.6437 26.3262 58.2228 26.9649 59.7317C27.5918 61.2132 28.3672 62.6419 29.2695 63.978C30.1641 65.3023 31.1914 66.5465 32.3223 67.6784C33.4541 68.8093 34.6983 69.8367 36.0225 70.7312C37.3584 71.6337 38.7872 72.4091 40.2686 73.036C41.7774 73.6737 43.3565 74.164 44.962 74.4932C46.6085 74.8301 48.3038 75.001 50.0001 75.001H50.0021C56.296 75.001 62.3087 72.6542 66.9328 68.3932C67.1242 68.2165 67.2365 67.9762 67.2463 67.7155C67.257 67.4548 67.1662 67.2057 66.9894 67.0133C66.8049 66.8132 66.5431 66.6989 66.2707 66.6989C66.0246 66.6989 65.7902 66.7907 65.6095 66.9567C61.3439 70.8837 55.8009 73.0469 50.0001 73.0478C43.8448 73.0469 38.0577 70.6503 33.7032 66.2975C29.3506 61.9428 26.9531 56.1544 26.9531 49.9998C26.9531 44.3065 29.006 38.9276 32.7588 34.706C32.8118 35.588 32.9419 36.4603 33.1463 37.3141C31.781 39.1237 30.727 41.1194 30.0068 43.2586L30.008 43.2601C29.3861 43.5592 28.7806 43.8976 28.1972 44.2781C27.7802 44.55 27.6344 45.092 27.8588 45.5364C28.2076 46.2273 28.6075 46.8883 29.0528 47.5158L29.0517 47.5161C28.9551 48.3363 28.9063 49.1699 28.9063 49.9998C28.9063 54.8919 30.6193 59.6601 33.7295 63.4261C33.9047 63.6382 34.1613 63.7667 34.4361 63.7797C34.4516 63.7804 34.467 63.7808 34.4826 63.7808C34.741 63.7808 34.9895 63.6784 35.1731 63.4948L63.4945 35.172C63.689 34.9775 63.7924 34.7098 63.7794 34.435C63.7663 34.1602 63.6379 33.9036 63.4257 33.7285C59.66 30.618 54.892 28.9049 50.0001 28.9049C49.4926 28.9049 48.979 28.9234 48.4688 28.9598L48.4687 28.961C47.7577 28.4678 47.0037 28.0283 46.2107 27.651C45.7782 27.445 45.2605 27.5833 44.9881 27.9771C44.5817 28.5642 44.221 29.1741 43.9045 29.8014L43.9038 29.8002C42.0307 30.364 40.2499 31.1862 38.5988 32.2495L38.5991 32.2553C37.6876 32.0352 36.7555 31.8927 35.8143 31.8314C39.8502 28.6678 44.794 26.9517 50.0001 26.9517C56.1544 26.9517 61.9425 29.3492 66.297 33.702C70.6496 38.0567 73.0461 43.8441 73.0471 49.9997C73.0471 53.6024 72.2394 57.0518 70.6467 60.2532C70.4064 60.7356 70.6037 61.3226 71.0861 61.5628C71.2228 61.6302 71.3683 61.6654 71.5207 61.6654C71.8937 61.6654 72.2287 61.4574 72.3957 61.1234C73.2375 59.4309 73.8859 57.6408 74.3234 55.8028C74.7727 53.912 75.0002 51.9598 75.0002 49.9997C75.0002 48.3034 74.8293 46.608 74.4924 44.9614ZM42.2937 35.8831C42.2159 37.467 42.3867 39.0692 42.8184 40.6339C43.0699 41.5457 43.4508 42.3822 43.9223 43.1671C43.0421 42.7585 42.1222 42.426 41.1737 42.1793C39.8921 41.8457 38.5856 41.6736 37.2834 41.6562C35.5807 39.3522 34.6736 36.5872 34.6841 33.748C37.383 33.7369 40.0357 34.4792 42.2937 35.8831ZM50.3269 44.802C49.6161 41.2507 50.4063 37.5827 52.4971 34.6095C54.2565 35.7443 55.7212 37.2445 56.7883 39.0016C56.7037 39.1212 56.6215 39.2422 56.5406 39.3638L50.4716 45.4331C50.4188 45.2241 50.3692 45.0139 50.3269 44.802ZM39.6092 55.6393C37.8071 54.6112 36.2675 53.2035 35.1001 51.5149C38.1701 49.4929 41.9533 48.7314 45.6191 49.4233C45.8574 49.4683 46.0937 49.5197 46.3285 49.5764L41.2491 54.6561C40.685 54.9509 40.1366 55.2776 39.6092 55.6393ZM45.981 47.5039C41.8649 46.727 37.6167 47.5655 34.1473 49.8058C32.4637 48.6663 31.0599 47.1789 30.0349 45.4461C33.2443 43.6347 37.0745 43.1306 40.682 44.0695C42.9987 44.6722 45.1225 45.8447 46.8244 47.4604C46.8303 47.4661 47.1107 47.7392 47.1408 47.7681C46.7583 47.6667 46.3719 47.5775 45.981 47.5039ZM33.9049 39.6372C34.215 40.3776 34.5843 41.0957 35.0115 41.7843C34.1495 41.8934 33.2974 42.0722 32.4636 42.3169C32.871 41.3872 33.3523 40.4923 33.9049 39.6372ZM34.5732 61.3323C32.1712 58.0619 30.8594 54.0785 30.8594 49.9998C30.8594 49.8782 30.8609 49.7566 30.8631 49.635C31.4615 50.2205 32.1072 50.7606 32.797 51.2475C32.7952 51.4218 32.8399 51.5982 32.9351 51.7576C34.1907 53.8594 35.9248 55.6311 37.9961 56.9464C37.7936 57.2448 37.7704 57.6363 37.9459 57.9596L34.5732 61.3323ZM58.7917 37.1125C58.5329 37.1102 58.2759 37.2098 58.0846 37.4049C56.728 35.3825 54.8979 33.6905 52.7253 32.4672C52.5073 32.3446 52.2599 32.3146 52.0304 32.3666C51.6322 31.8414 51.2 31.3431 50.7383 30.8727C54.5575 31.0209 58.2596 32.3152 61.3321 34.5721L58.7917 37.1125ZM46.1313 29.8046C47.9398 30.8022 49.4897 32.1727 50.6733 33.8182C48.4455 37.1672 47.6216 41.2377 48.4117 45.1854C48.5096 45.6741 48.6321 46.1563 48.7769 46.6309C48.6466 46.5044 48.2558 46.1291 48.1879 46.0621C46.5248 44.4121 45.3192 42.3555 44.7013 40.1144C43.7371 36.6206 44.2608 32.9097 46.1313 29.8046ZM42.9381 32.2035C42.78 32.72 42.6493 33.2433 42.5474 33.7719C42.0683 33.5107 41.5754 33.2753 41.072 33.0644C41.6787 32.7437 42.3012 32.4564 42.9381 32.2035Z" stroke="#8DD6DD" stroke-width="0.6" mask="url(#path-4-outside-1)"/>
<path d="M69.215 65.548C69.8372 65.548 70.3416 65.0436 70.3416 64.4214C70.3416 63.7992 69.8372 63.2948 69.215 63.2948C68.5928 63.2948 68.0884 63.7992 68.0884 64.4214C68.0884 65.0436 68.5928 65.548 69.215 65.548Z" fill="#8DD6DD" stroke="#8DD6DD" stroke-width="0.3"/>
<path d="M50.0018 14.844C51.0803 14.844 51.9549 13.9694 51.9549 12.8909C51.9549 11.8124 51.0803 10.9377 50.0018 10.9377H50.0004C48.9219 10.9377 48.0481 11.8124 48.0481 12.8909C48.0481 13.9694 48.9231 14.844 50.0018 14.844Z" fill="#8DD6DD"/>
</svg>
